<svg width="28" height="42" viewBox="0 0 28 42" fill="none" xmlns="http://www.w3.org/2000/svg">
<path d="M15.8496 3.40424L15.85 3.40452L21.6099 7.43442C22.0387 7.73461 22.459 8.23876 22.7726 8.83959C23.0863 9.44041 23.26 10.0739 23.26 10.6V17.38C23.26 19.5158 21.5258 21.25 19.39 21.25H8.60999C6.47631 21.25 4.73999 19.5079 4.73999 17.37V10.47C4.73999 9.98334 4.89682 9.38223 5.18285 8.80129C5.46868 8.22077 5.85159 7.72532 6.24126 7.42138L6.24143 7.42125L11.2494 3.51286C11.2497 3.5126 11.25 3.51234 11.2504 3.51208C12.5006 2.54415 14.5492 2.49312 15.8496 3.40424ZM14 19.5C14.8242 19.5 15.5 18.8242 15.5 18V15C15.5 14.1758 14.8242 13.5 14 13.5C13.1758 13.5 12.5 14.1758 12.5 15V18C12.5 18.8242 13.1758 19.5 14 19.5Z" stroke="#7390A1" stroke-width="1.5"/>
<path d="M0.940252 39V31.7273H1.82093V34.9659H5.69878V31.7273H6.57946V39H5.69878V35.7472H1.82093V39H0.940252ZM10.4449 39.1136C9.95244 39.1136 9.52039 38.9964 9.1487 38.7621C8.77939 38.5277 8.49056 38.1998 8.28223 37.7784C8.07626 37.357 7.97328 36.8646 7.97328 36.3011C7.97328 35.733 8.07626 35.237 8.28223 34.8132C8.49056 34.3894 8.77939 34.0604 9.1487 33.826C9.52039 33.5916 9.95244 33.4744 10.4449 33.4744C10.9373 33.4744 11.3682 33.5916 11.7375 33.826C12.1092 34.0604 12.398 34.3894 12.604 34.8132C12.8123 35.237 12.9165 35.733 12.9165 36.3011C12.9165 36.8646 12.8123 37.357 12.604 37.7784C12.398 38.1998 12.1092 38.5277 11.7375 38.7621C11.3682 38.9964 10.9373 39.1136 10.4449 39.1136ZM10.4449 38.3608C10.8189 38.3608 11.1267 38.2649 11.3682 38.0732C11.6096 37.8814 11.7884 37.6293 11.9044 37.3168C12.0204 37.0043 12.0784 36.6657 12.0784 36.3011C12.0784 35.9366 12.0204 35.5968 11.9044 35.282C11.7884 34.9671 11.6096 34.7126 11.3682 34.5185C11.1267 34.3243 10.8189 34.2273 10.4449 34.2273C10.0708 34.2273 9.76305 34.3243 9.52157 34.5185C9.2801 34.7126 9.10136 34.9671 8.98535 35.282C8.86935 35.5968 8.81135 35.9366 8.81135 36.3011C8.81135 36.6657 8.86935 37.0043 8.98535 37.3168C9.10136 37.6293 9.2801 37.8814 9.52157 38.0732C9.76305 38.2649 10.0708 38.3608 10.4449 38.3608ZM14.1958 39V33.5455H15.0054V34.3977H15.0764C15.1901 34.1065 15.3735 33.8804 15.6269 33.7195C15.8802 33.5561 16.1844 33.4744 16.5395 33.4744C16.8994 33.4744 17.1988 33.5561 17.4379 33.7195C17.6794 33.8804 17.8676 34.1065 18.0026 34.3977H18.0594C18.1991 34.116 18.4086 33.8923 18.6879 33.7266C18.9673 33.5585 19.3023 33.4744 19.6929 33.4744C20.1806 33.4744 20.5795 33.6271 20.8896 33.9325C21.1998 34.2356 21.3548 34.7079 21.3548 35.3494V39H20.5168V35.3494C20.5168 34.947 20.4067 34.6593 20.1865 34.4865C19.9664 34.3137 19.7071 34.2273 19.4088 34.2273C19.0253 34.2273 18.7282 34.3433 18.5175 34.5753C18.3068 34.8049 18.2014 35.0961 18.2014 35.4489V39H17.3492V35.2642C17.3492 34.9541 17.2486 34.7043 17.0473 34.5149C16.8461 34.3232 16.5869 34.2273 16.2696 34.2273C16.0518 34.2273 15.8482 34.2853 15.6588 34.4013C15.4718 34.5173 15.3203 34.6783 15.2043 34.8842C15.0906 35.0878 15.0338 35.3234 15.0338 35.5909V39H14.1958ZM25.1741 39.1136C24.6485 39.1136 24.1952 38.9976 23.814 38.7656C23.4352 38.5312 23.1428 38.2045 22.9369 37.7855C22.7333 37.3641 22.6315 36.8741 22.6315 36.3153C22.6315 35.7566 22.7333 35.2642 22.9369 34.8381C23.1428 34.4096 23.4293 34.0758 23.7963 33.8366C24.1656 33.5952 24.5964 33.4744 25.0889 33.4744C25.373 33.4744 25.6535 33.5218 25.9305 33.6165C26.2075 33.7112 26.4596 33.8651 26.6869 34.0781C26.9142 34.2888 27.0953 34.5682 27.2302 34.9162C27.3651 35.2642 27.4326 35.6927 27.4326 36.2017V36.5568H23.2281V35.8324H26.5803C26.5803 35.5246 26.5188 35.25 26.3957 35.0085C26.2749 34.767 26.1021 34.5765 25.8772 34.4368C25.6547 34.2971 25.3919 34.2273 25.0889 34.2273C24.7551 34.2273 24.4662 34.3101 24.2224 34.4759C23.9809 34.6392 23.7951 34.8523 23.6649 35.1151C23.5347 35.3778 23.4695 35.6596 23.4695 35.9602V36.4432C23.4695 36.8551 23.5406 37.2043 23.6826 37.4908C23.827 37.7749 24.0271 37.9915 24.2828 38.1406C24.5384 38.2874 24.8356 38.3608 25.1741 38.3608C25.3943 38.3608 25.5931 38.33 25.7707 38.2685C25.9506 38.2045 26.1057 38.1098 26.2359 37.9844C26.3661 37.8565 26.4667 37.6979 26.5377 37.5085L27.3474 37.7358C27.2622 38.0104 27.1189 38.2519 26.9177 38.4602C26.7165 38.6662 26.4679 38.8272 26.172 38.9432C25.876 39.0568 25.5434 39.1136 25.1741 39.1136Z" fill="#7390A2"/>
</svg>
