<svg width="20" height="20" viewBox="0 0 20 20" fill="none" xmlns="http://www.w3.org/2000/svg">
<path d="M17.6172 14.6075C16.9969 13.9825 15.4945 13.0704 14.7656 12.7028C13.8164 12.2247 13.7383 12.1856 12.9922 12.7399C12.4945 13.1099 12.1636 13.4403 11.5812 13.3161C10.9988 13.1919 9.73318 12.4915 8.62498 11.3868C7.51678 10.2821 6.77576 8.97978 6.65115 8.39931C6.52654 7.81884 6.86248 7.49189 7.22888 6.99306C7.74529 6.28994 7.70623 6.17275 7.26482 5.22353C6.92068 4.48525 5.98201 2.99697 5.35467 2.37978C4.68357 1.71689 4.68357 1.83408 4.25115 2.01376C3.89911 2.16188 3.56137 2.34193 3.24217 2.55165C2.61717 2.96689 2.27029 3.31181 2.02771 3.83017C1.78514 4.34853 1.67615 5.56376 2.92889 7.83955C4.18162 10.1153 5.06053 11.279 6.87967 13.0931C8.69881 14.9071 10.0976 15.8825 12.1426 17.0294C14.6722 18.4462 15.6426 18.17 16.1625 17.9278C16.6824 17.6856 17.0289 17.3419 17.4449 16.7169C17.6552 16.3982 17.8356 16.0609 17.984 15.7091C18.164 15.2782 18.2812 15.2782 17.6172 14.6075Z" stroke="white" stroke-width="1.5" stroke-miterlimit="10"/>
</svg>
