<svg width="24" height="24" viewBox="0 0 24 24" fill="none" xmlns="http://www.w3.org/2000/svg">
<path d="M20 9.6087C20 12.4759 17.0905 16.7551 14.7808 19.7005C13.5758 21.2371 12.9732 22.0055 12 22.0055C11.0268 22.0055 10.4242 21.2371 9.21921 19.7005C6.90945 16.7551 4 12.4759 4 9.6087C4 4.85424 7.58172 1 12 1C16.4183 1 20 4.85424 20 9.6087Z" fill="#025B8F" stroke="#025B8F" stroke-width="1.5"/>
<path d="M9 10C9 11.6569 10.3431 13 12 13C13.6569 13 15 11.6569 15 10C15 8.34315 13.6569 7 12 7C10.3431 7 9 8.34315 9 10Z" fill="#025B8F" stroke="white" stroke-width="1.5"/>
</svg>
