<svg width="24" height="24" viewBox="0 0 24 24" fill="none" xmlns="http://www.w3.org/2000/svg">
<path d="M2.3331 17.7423C2.3331 17.7456 2.3331 17.7517 2.32935 17.7602C2.33075 17.7545 2.33169 17.7484 2.3331 17.7423ZM20.1203 18.5125C19.966 18.5092 19.8136 18.4774 19.6708 18.4188L17.0092 17.4752L16.9895 17.4672C16.9315 17.443 16.8691 17.4309 16.8062 17.4316C16.7483 17.4316 16.6908 17.4421 16.6365 17.4625C16.5718 17.4869 15.9892 17.7058 15.3779 17.8736C15.0465 17.9645 13.8929 18.2613 12.9672 18.2613C10.6009 18.2613 8.38841 17.3519 6.73794 15.7005C5.93165 14.8991 5.29231 13.9458 4.85693 12.8957C4.42156 11.8456 4.19879 10.7196 4.20153 9.58282C4.20151 8.9905 4.26532 8.3999 4.39185 7.82125C4.80388 5.91719 5.89513 4.18516 7.4645 2.94625C9.07436 1.68346 11.0617 0.99805 13.1078 1C15.5551 1 17.8356 1.9375 19.5297 3.63344C21.1309 5.23985 22.0084 7.35204 22.0014 9.58047C22 11.2364 21.5056 12.8543 20.5811 14.2281L20.5722 14.2413L20.5375 14.2881C20.5295 14.2989 20.5215 14.3092 20.514 14.32L20.507 14.3327C20.4884 14.3644 20.4715 14.3971 20.4564 14.4306L21.1942 17.0528C21.2268 17.161 21.2445 17.2731 21.2467 17.3861C21.2469 17.5341 21.2179 17.6806 21.1613 17.8174C21.1048 17.9541 21.0218 18.0784 20.9172 18.183C20.8126 18.2876 20.6883 18.3706 20.5516 18.4271C20.4148 18.4837 20.2683 18.5127 20.1203 18.5125Z" fill="#025B8F"/>
<path d="M13.5564 19.4418C13.508 19.3476 13.4399 19.265 13.3566 19.1995C13.2734 19.1339 13.177 19.0871 13.0741 19.0622C12.8032 18.9904 12.4872 19.0026 12.2458 18.9848C9.96644 18.8263 7.82148 17.8481 6.20737 16.2309C4.7724 14.804 3.83982 12.9495 3.55002 10.9467C3.4844 10.4901 3.4844 10.3767 3.4844 10.3767C3.48437 10.2244 3.43796 10.0757 3.35134 9.95035C3.26472 9.82505 3.14199 9.72909 2.9995 9.67525C2.857 9.6214 2.70149 9.61223 2.55365 9.64894C2.40581 9.68565 2.27265 9.76651 2.1719 9.88075C2.1719 9.88075 1.80252 10.2829 1.62815 10.6865C1.13909 11.8133 0.93053 13.0419 1.02033 14.267C1.11014 15.4921 1.49563 16.6771 2.14377 17.7206C2.26565 17.9236 2.26565 18.0173 2.23846 18.2283C2.11049 18.8897 1.88643 20.0564 1.76971 20.6615C1.73107 20.8578 1.74544 21.0608 1.81135 21.2496C1.87727 21.4385 1.99234 21.6063 2.14471 21.7359L2.16627 21.7542C2.36784 21.9143 2.61762 22.0015 2.87502 22.0017C3.01981 22.0018 3.16318 21.9733 3.2969 21.9178L5.80518 20.9498C5.89154 20.917 5.98694 20.917 6.07331 20.9498C7.06096 21.3173 8.08893 21.5123 9.06299 21.5123C10.2767 21.5135 11.4756 21.2468 12.5744 20.7314C12.8303 20.6114 13.2307 20.4811 13.465 20.2101C13.5537 20.105 13.6097 19.9762 13.6259 19.8397C13.6422 19.7031 13.618 19.5648 13.5564 19.4418Z" fill="#025B8F"/>
</svg>
