<svg width="24" height="24" viewBox="0 0 24 24" fill="none" xmlns="http://www.w3.org/2000/svg">
<path d="M11.75 2C6.37391 2 2 6.37391 2 11.75C2 17.1261 6.37391 21.5 11.75 21.5C17.1261 21.5 21.5 17.1261 21.5 11.75C21.5 6.37391 17.1261 2 11.75 2ZM9.39594 7.47594C9.98984 6.84641 10.8256 6.5 11.75 6.5C12.6744 6.5 13.5027 6.84875 14.0989 7.48156C14.7031 8.12281 14.997 8.98438 14.9277 9.91063C14.7889 11.75 13.3639 13.25 11.75 13.25C10.1361 13.25 8.70828 11.75 8.57234 9.91016C8.50344 8.97641 8.79688 8.11203 9.39594 7.47594ZM11.75 20C10.6487 20.0007 9.55838 19.7803 8.54382 19.3518C7.52927 18.9232 6.61109 18.2953 5.84375 17.5053C6.28323 16.8786 6.8432 16.3457 7.49094 15.9378C8.68578 15.1719 10.198 14.75 11.75 14.75C13.302 14.75 14.8142 15.1719 16.0077 15.9378C16.6559 16.3455 17.2164 16.8784 17.6563 17.5053C16.889 18.2954 15.9708 18.9234 14.9562 19.3519C13.9417 19.7804 12.8514 20.0008 11.75 20Z" fill="#025B8F"/>
</svg>
