<svg width="24" height="24" viewBox="0 0 24 24" fill="none" xmlns="http://www.w3.org/2000/svg">
<path d="M11.75 2C9.82163 2 7.93657 2.57183 6.33319 3.64317C4.72981 4.71451 3.48013 6.23725 2.74218 8.01883C2.00422 9.80041 1.81114 11.7608 2.18735 13.6521C2.56355 15.5434 3.49215 17.2807 4.85571 18.6443C6.21927 20.0078 7.95655 20.9364 9.84787 21.3126C11.7392 21.6888 13.6996 21.4958 15.4812 20.7578C17.2627 20.0199 18.7855 18.7702 19.8568 17.1668C20.9282 15.5634 21.5 13.6784 21.5 11.75C21.5 9.16413 20.4728 6.68419 18.6443 4.85571C16.8158 3.02723 14.3359 2 11.75 2Z" fill="#025B8F" stroke="#025B8F" stroke-width="1.2" stroke-miterlimit="10"/>
<path d="M10.9886 7C10.1998 7 9.4286 7.23393 8.77267 7.67221C8.11674 8.11048 7.60551 8.73342 7.30362 9.46225C7.00173 10.1911 6.92274 10.9931 7.07664 11.7668C7.23054 12.5405 7.61043 13.2512 8.16825 13.809C8.72607 14.3668 9.43677 14.7467 10.2105 14.9006C10.9842 15.0545 11.7862 14.9755 12.515 14.6737C13.2438 14.3718 13.8668 13.8605 14.3051 13.2046C14.7433 12.5487 14.9773 11.7775 14.9773 10.9886C14.9773 10.4648 14.8741 9.94617 14.6737 9.46225C14.4732 8.97833 14.1794 8.53862 13.809 8.16824C13.4386 7.79787 12.9989 7.50406 12.515 7.30362C12.0311 7.10317 11.5124 7 10.9886 7V7Z" stroke="white" stroke-width="1.2" stroke-miterlimit="10"/>
<path d="M13.8495 13.8501L16.7501 16.7507" stroke="white" stroke-width="1.2" stroke-miterlimit="10" stroke-linecap="round"/>
</svg>
