<svg width="80" height="80" viewBox="0 0 80 80" fill="none" xmlns="http://www.w3.org/2000/svg">
<path d="M53.3332 29.9999L41.788 43.8541C39.4146 46.7023 38.2278 48.1264 36.6666 48.1264C35.1053 48.1264 33.9186 46.7023 31.5451 43.8541L26.6666 37.9999M18.6493 16.7298C23.8085 18.023 29.0631 14.9893 30.5227 9.87467C33.2438 0.340157 46.756 0.340157 49.4771 9.87467C50.9367 14.9893 56.1913 18.023 61.3505 16.7298C70.9681 14.319 77.7243 26.021 70.8277 33.1447C67.1281 36.9661 67.1281 43.0336 70.8277 46.855C77.7243 53.9787 70.9681 65.6807 61.3505 63.2699C56.1913 61.9767 50.9367 65.0105 49.4771 70.1251C46.756 79.6596 33.2438 79.6596 30.5227 70.1251C29.0631 65.0105 23.8085 61.9767 18.6493 63.2699C9.03165 65.6807 2.27551 53.9787 9.17213 46.855C12.8717 43.0336 12.8717 36.9661 9.17213 33.1447C2.27551 26.021 9.03165 14.319 18.6493 16.7298Z" stroke="url(#paint0_linear_1486_12202)" stroke-width="4" stroke-linecap="round"/>
<defs>
<linearGradient id="paint0_linear_1486_12202" x1="6.35254" y1="2.72379" x2="80.7027" y2="71.514" gradientUnits="userSpaceOnUse">
<stop stop-color="#FF0092"/>
<stop offset="1" stop-color="#216DFD"/>
</linearGradient>
</defs>
</svg>
