<svg width="12" height="12" viewBox="0 0 12 12" fill="none" xmlns="http://www.w3.org/2000/svg">
<g id="bx:world">
<path id="Vector" d="M6 1C3.243 1 1 3.243 1 6C1 8.757 3.243 11 6 11C8.757 11 11 8.757 11 6C11 3.243 8.757 1 6 1ZM2 6C2 5.5505 2.078 5.119 2.2155 4.7155L3 5.5L4 6.5V7.5L5 8.5L5.5 9V9.9655C3.5305 9.718 2 8.036 2 6ZM9.165 8.4365C8.8385 8.1735 8.3435 8 8 8V7.5C8 7.23478 7.89464 6.98043 7.70711 6.79289C7.51957 6.60536 7.26522 6.5 7 6.5H5V5C5.26522 5 5.51957 4.89464 5.70711 4.70711C5.89464 4.51957 6 4.26522 6 4V3.5H6.5C6.76522 3.5 7.01957 3.39464 7.20711 3.20711C7.39464 3.01957 7.5 2.76522 7.5 2.5V2.2945C8.964 2.889 10 4.325 10 6C9.99991 6.88235 9.70614 7.73957 9.165 8.4365Z" fill="black"/>
</g>
</svg>
