<svg width="18" height="18" viewBox="0 0 18 18" fill="none" xmlns="http://www.w3.org/2000/svg">
<g id="objects/calendar">
<path id="Vector" d="M14.625 2.81201H3.375C2.44302 2.81201 1.6875 3.56753 1.6875 4.49951V14.6245C1.6875 15.5565 2.44302 16.312 3.375 16.312H14.625C15.557 16.312 16.3125 15.5565 16.3125 14.6245V4.49951C16.3125 3.56753 15.557 2.81201 14.625 2.81201Z" stroke="#7390A1" stroke-width="1.2" stroke-linejoin="round"/>
<path id="Vector_2" d="M10.4062 8.99853C10.8722 8.99853 11.25 8.62077 11.25 8.15478C11.25 7.68879 10.8722 7.31104 10.4062 7.31104C9.94026 7.31104 9.5625 7.68879 9.5625 8.15478C9.5625 8.62077 9.94026 8.99853 10.4062 8.99853Z" fill="#7390A1"/>
<path id="Vector_3" d="M13.2188 8.99853C13.6847 8.99853 14.0625 8.62077 14.0625 8.15478C14.0625 7.68879 13.6847 7.31104 13.2188 7.31104C12.7528 7.31104 12.375 7.68879 12.375 8.15478C12.375 8.62077 12.7528 8.99853 13.2188 8.99853Z" fill="#7390A1"/>
<path id="Vector_4" d="M10.4062 11.811C10.8722 11.811 11.25 11.4333 11.25 10.9673C11.25 10.5013 10.8722 10.1235 10.4062 10.1235C9.94026 10.1235 9.5625 10.5013 9.5625 10.9673C9.5625 11.4333 9.94026 11.811 10.4062 11.811Z" fill="#7390A1"/>
<path id="Vector_5" d="M13.2188 11.811C13.6847 11.811 14.0625 11.4333 14.0625 10.9673C14.0625 10.5013 13.6847 10.1235 13.2188 10.1235C12.7528 10.1235 12.375 10.5013 12.375 10.9673C12.375 11.4333 12.7528 11.811 13.2188 11.811Z" fill="#7390A1"/>
<path id="Vector_6" d="M4.78125 11.811C5.24724 11.811 5.625 11.4333 5.625 10.9673C5.625 10.5013 5.24724 10.1235 4.78125 10.1235C4.31526 10.1235 3.9375 10.5013 3.9375 10.9673C3.9375 11.4333 4.31526 11.811 4.78125 11.811Z" fill="#7390A1"/>
<path id="Vector_7" d="M7.59375 11.811C8.05974 11.811 8.4375 11.4333 8.4375 10.9673C8.4375 10.5013 8.05974 10.1235 7.59375 10.1235C7.12776 10.1235 6.75 10.5013 6.75 10.9673C6.75 11.4333 7.12776 11.811 7.59375 11.811Z" fill="#7390A1"/>
<path id="Vector_8" d="M4.78125 14.6235C5.24724 14.6235 5.625 14.2458 5.625 13.7798C5.625 13.3138 5.24724 12.936 4.78125 12.936C4.31526 12.936 3.9375 13.3138 3.9375 13.7798C3.9375 14.2458 4.31526 14.6235 4.78125 14.6235Z" fill="#7390A1"/>
<path id="Vector_9" d="M7.59375 14.6235C8.05974 14.6235 8.4375 14.2458 8.4375 13.7798C8.4375 13.3138 8.05974 12.936 7.59375 12.936C7.12776 12.936 6.75 13.3138 6.75 13.7798C6.75 14.2458 7.12776 14.6235 7.59375 14.6235Z" fill="#7390A1"/>
<path id="Vector_10" d="M10.4062 14.6235C10.8722 14.6235 11.25 14.2458 11.25 13.7798C11.25 13.3138 10.8722 12.936 10.4062 12.936C9.94026 12.936 9.5625 13.3138 9.5625 13.7798C9.5625 14.2458 9.94026 14.6235 10.4062 14.6235Z" fill="#7390A1"/>
<path id="Vector_11" d="M13.5 1.68604V2.81104M4.5 1.68604V2.81104V1.68604Z" stroke="#7390A1" stroke-width="1.2" stroke-linecap="round" stroke-linejoin="round"/>
<path id="Vector_12" d="M16.3125 5.62451H1.6875" stroke="#7390A1" stroke-width="1.2" stroke-linejoin="round"/>
</g>
</svg>
