<svg width="18" height="18" viewBox="0 0 18 18" fill="none" xmlns="http://www.w3.org/2000/svg">
<g id="objects/calendar">
<path id="Vector" d="M14.625 2.81201H3.37499C2.44301 2.81201 1.68749 3.56753 1.68749 4.49951V14.6245C1.68749 15.5565 2.44301 16.312 3.37499 16.312H14.625C15.557 16.312 16.3125 15.5565 16.3125 14.6245V4.49951C16.3125 3.56753 15.557 2.81201 14.625 2.81201Z" stroke="white" stroke-width="1.2" stroke-linejoin="round"/>
<path id="Vector_2" d="M10.4063 8.99853C10.8723 8.99853 11.2501 8.62077 11.2501 8.15478C11.2501 7.68879 10.8723 7.31104 10.4063 7.31104C9.94034 7.31104 9.56258 7.68879 9.56258 8.15478C9.56258 8.62077 9.94034 8.99853 10.4063 8.99853Z" fill="white"/>
<path id="Vector_3" d="M13.2187 8.99853C13.6847 8.99853 14.0625 8.62077 14.0625 8.15478C14.0625 7.68879 13.6847 7.31104 13.2187 7.31104C12.7527 7.31104 12.375 7.68879 12.375 8.15478C12.375 8.62077 12.7527 8.99853 13.2187 8.99853Z" fill="white"/>
<path id="Vector_4" d="M10.4063 11.811C10.8723 11.811 11.2501 11.4333 11.2501 10.9673C11.2501 10.5013 10.8723 10.1235 10.4063 10.1235C9.94034 10.1235 9.56258 10.5013 9.56258 10.9673C9.56258 11.4333 9.94034 11.811 10.4063 11.811Z" fill="white"/>
<path id="Vector_5" d="M13.2187 11.811C13.6847 11.811 14.0625 11.4333 14.0625 10.9673C14.0625 10.5013 13.6847 10.1235 13.2187 10.1235C12.7527 10.1235 12.375 10.5013 12.375 10.9673C12.375 11.4333 12.7527 11.811 13.2187 11.811Z" fill="white"/>
<path id="Vector_6" d="M4.78122 11.811C5.24721 11.811 5.62497 11.4333 5.62497 10.9673C5.62497 10.5013 5.24721 10.1235 4.78122 10.1235C4.31523 10.1235 3.93747 10.5013 3.93747 10.9673C3.93747 11.4333 4.31523 11.811 4.78122 11.811Z" fill="white"/>
<path id="Vector_7" d="M7.59372 11.811C8.05971 11.811 8.43747 11.4333 8.43747 10.9673C8.43747 10.5013 8.05971 10.1235 7.59372 10.1235C7.12773 10.1235 6.74997 10.5013 6.74997 10.9673C6.74997 11.4333 7.12773 11.811 7.59372 11.811Z" fill="white"/>
<path id="Vector_8" d="M4.78122 14.6235C5.24721 14.6235 5.62497 14.2458 5.62497 13.7798C5.62497 13.3138 5.24721 12.936 4.78122 12.936C4.31523 12.936 3.93747 13.3138 3.93747 13.7798C3.93747 14.2458 4.31523 14.6235 4.78122 14.6235Z" fill="white"/>
<path id="Vector_9" d="M7.59372 14.6235C8.05971 14.6235 8.43747 14.2458 8.43747 13.7798C8.43747 13.3138 8.05971 12.936 7.59372 12.936C7.12773 12.936 6.74997 13.3138 6.74997 13.7798C6.74997 14.2458 7.12773 14.6235 7.59372 14.6235Z" fill="white"/>
<path id="Vector_10" d="M10.4063 14.6235C10.8723 14.6235 11.2501 14.2458 11.2501 13.7798C11.2501 13.3138 10.8723 12.936 10.4063 12.936C9.94034 12.936 9.56258 13.3138 9.56258 13.7798C9.56258 14.2458 9.94034 14.6235 10.4063 14.6235Z" fill="white"/>
<path id="Vector_11" d="M13.5 1.68604V2.81104M4.49999 1.68604V2.81104V1.68604Z" stroke="white" stroke-width="1.2" stroke-linecap="round" stroke-linejoin="round"/>
<path id="Vector_12" d="M16.3125 5.62451H1.68749" stroke="white" stroke-width="1.2" stroke-linejoin="round"/>
</g>
</svg>
