<svg width="22" height="22" viewBox="0 0 22 22" fill="none" xmlns="http://www.w3.org/2000/svg">
<g id="carbon:rule-draft">
<path id="Vector" d="M20.4236 13.2639L18.3611 11.2014C18.2321 11.0726 18.0573 11.0001 17.875 11.0001C17.6927 11.0001 17.5179 11.0726 17.3889 11.2014L11 17.5904V20.625H14.0346L20.4236 14.2361C20.5524 14.1071 20.6249 13.9323 20.6249 13.75C20.6249 13.5677 20.5524 13.3929 20.4236 13.2639ZM13.4654 19.25H12.375V18.1596L15.8125 14.7221L16.9029 15.8125L13.4654 19.25ZM17.875 14.8404L16.7846 13.75L17.875 12.6596L18.9654 13.75L17.875 14.8404ZM5.5 11H12.375V12.375H5.5V11ZM5.5 6.875H13.75V8.25H5.5V6.875Z" fill="black"/>
<path id="Vector_2" d="M17.875 2.75C17.8746 2.38544 17.7297 2.03591 17.4719 1.77813C17.2141 1.52035 16.8646 1.37536 16.5 1.375H2.75C2.38544 1.37536 2.03592 1.52035 1.77813 1.77813C1.52035 2.03591 1.37537 2.38544 1.375 2.75V11.6875C1.37347 13.0586 1.74537 14.4043 2.45079 15.58C3.1562 16.7557 4.1685 17.7171 5.379 18.3611L8.9375 20.2586V18.7L6.02663 17.1476C5.03618 16.6208 4.20789 15.8342 3.63063 14.8723C3.05337 13.9103 2.74894 12.8094 2.75 11.6875V2.75H16.5V8.9375H17.875V2.75Z" fill="black"/>
</g>
</svg>
