<svg width="10" height="10" viewBox="0 0 10 10" fill="none" xmlns="http://www.w3.org/2000/svg">
<g id="Category">
<g id="Vector">
<path d="M1 2.5C1 2.03406 1 1.80109 1.07612 1.61732C1.17761 1.37229 1.37229 1.17761 1.61732 1.07612C1.80109 1 2.03406 1 2.5 1C2.96594 1 3.19891 1 3.38268 1.07612C3.62771 1.17761 3.82239 1.37229 3.92388 1.61732C4 1.80109 4 2.03406 4 2.5C4 2.96594 4 3.19891 3.92388 3.38268C3.82239 3.62771 3.62771 3.82239 3.38268 3.92388C3.19891 4 2.96594 4 2.5 4C2.03406 4 1.80109 4 1.61732 3.92388C1.37229 3.82239 1.17761 3.62771 1.07612 3.38268C1 3.19891 1 2.96594 1 2.5Z" stroke="#424B5A"/>
<path d="M6 2.5C6 2.03406 6 1.80109 6.07612 1.61732C6.17761 1.37229 6.37229 1.17761 6.61732 1.07612C6.80109 1 7.03406 1 7.5 1C7.96594 1 8.19891 1 8.38268 1.07612C8.62771 1.17761 8.82239 1.37229 8.92388 1.61732C9 1.80109 9 2.03406 9 2.5C9 2.96594 9 3.19891 8.92388 3.38268C8.82239 3.62771 8.62771 3.82239 8.38268 3.92388C8.19891 4 7.96594 4 7.5 4C7.03406 4 6.80109 4 6.61732 3.92388C6.37229 3.82239 6.17761 3.62771 6.07612 3.38268C6 3.19891 6 2.96594 6 2.5Z" stroke="#424B5A"/>
<path d="M1 7.5C1 7.03406 1 6.80109 1.07612 6.61732C1.17761 6.37229 1.37229 6.17761 1.61732 6.07612C1.80109 6 2.03406 6 2.5 6C2.96594 6 3.19891 6 3.38268 6.07612C3.62771 6.17761 3.82239 6.37229 3.92388 6.61732C4 6.80109 4 7.03406 4 7.5C4 7.96594 4 8.19891 3.92388 8.38268C3.82239 8.62771 3.62771 8.82239 3.38268 8.92388C3.19891 9 2.96594 9 2.5 9C2.03406 9 1.80109 9 1.61732 8.92388C1.37229 8.82239 1.17761 8.62771 1.07612 8.38268C1 8.19891 1 7.96594 1 7.5Z" stroke="#424B5A"/>
<path d="M6 7.5C6 7.03406 6 6.80109 6.07612 6.61732C6.17761 6.37229 6.37229 6.17761 6.61732 6.07612C6.80109 6 7.03406 6 7.5 6C7.96594 6 8.19891 6 8.38268 6.07612C8.62771 6.17761 8.82239 6.37229 8.92388 6.61732C9 6.80109 9 7.03406 9 7.5C9 7.96594 9 8.19891 8.92388 8.38268C8.82239 8.62771 8.62771 8.82239 8.38268 8.92388C8.19891 9 7.96594 9 7.5 9C7.03406 9 6.80109 9 6.61732 8.92388C6.37229 8.82239 6.17761 8.62771 6.07612 8.38268C6 8.19891 6 7.96594 6 7.5Z" stroke="#424B5A"/>
</g>
</g>
</svg>
