<svg width="20" height="20" viewBox="0 0 20 20" fill="none" xmlns="http://www.w3.org/2000/svg">
<g id="communication/chatbubble">
<path id="Vector" d="M3.00109 18.7542C2.73542 18.7529 2.48108 18.6464 2.29384 18.4579C2.1066 18.2694 2.00174 18.0144 2.00226 17.7487C2.00459 17.6477 2.02035 17.5475 2.04914 17.4506L2.76867 14.8479C2.79875 14.7518 2.76476 14.6549 2.72062 14.5784L2.71203 14.5627C2.7089 14.5577 2.69406 14.537 2.68351 14.5217C2.67297 14.5065 2.66086 14.4901 2.64992 14.4741L2.6425 14.4635C1.73397 13.0865 1.24974 11.473 1.24992 9.82329C1.24289 7.57368 2.12297 5.44829 3.72883 3.83579C5.39055 2.17095 7.6132 1.25415 9.99289 1.25415C12.0116 1.25315 13.9705 1.93982 15.5468 3.20103C17.0878 4.44126 18.1589 6.16978 18.5628 8.07134C18.6871 8.64901 18.7497 9.23825 18.7495 9.82915C18.7495 12.1311 17.8652 14.2932 16.2589 15.9178C14.6386 17.5584 12.4628 18.4592 10.1327 18.4592C9.31242 18.4592 8.26281 18.2499 7.7589 18.1077C7.15265 17.9381 6.57804 17.717 6.51476 17.6936C6.44779 17.668 6.37671 17.6547 6.305 17.6545C6.22722 17.6541 6.15015 17.6693 6.07844 17.6995L6.04523 17.7124L3.40929 18.6647C3.27983 18.7192 3.14148 18.7495 3.00109 18.7542Z" fill="#7390A2"/>
</g>
</svg>
