<svg width="38" height="37" viewBox="0 0 38 37" fill="none" xmlns="http://www.w3.org/2000/svg">
<g id="Group" filter="url(#filter0_d_1267_7635)">
<path id="Vector" fill-rule="evenodd" clip-rule="evenodd" d="M30.6572 27.0443C34.029 23.6667 36 20.1486 36 16.052C36 7.73889 28.3894 1 18.9999 1C9.61066 1 2 7.73889 2 16.0522C2 24.3655 9.85687 30.0725 19.2464 30.0725V32.8293C19.2464 33.7028 20.1521 34.265 20.9201 33.8488C23.3196 32.5485 27.7662 29.9404 30.6572 27.0443ZM10.7419 14.0222C12.0839 14.0222 13.1716 15.1021 13.1716 16.4324C13.1716 17.7653 12.0839 18.8451 10.7419 18.8451C9.40231 18.8451 8.31447 17.7653 8.31447 16.4324C8.31447 15.1021 9.40231 14.0222 10.7419 14.0222ZM21.4286 16.4324C21.4286 15.1021 20.3413 14.0222 19 14.0222C17.6589 14.0222 16.5715 15.1021 16.5715 16.4324C16.5715 17.7653 17.659 18.8451 19 18.8451C20.3413 18.8451 21.4286 17.7653 21.4286 16.4324ZM27.2577 14.0222C28.5994 14.0222 29.6856 15.1021 29.6856 16.4324C29.6856 17.7653 28.5995 18.8451 27.2577 18.8451C25.916 18.8451 24.8284 17.7653 24.8285 16.4324C24.8285 15.1021 25.9161 14.0222 27.2577 14.0222Z" fill="white"/>
</g>
<defs>
<filter id="filter0_d_1267_7635" x="0.0289855" y="0.0144928" width="37.942" height="36.9308" filterUnits="userSpaceOnUse" color-interpolation-filters="sRGB">
<feFlood flood-opacity="0" result="BackgroundImageFix"/>
<feColorMatrix in="SourceAlpha" type="matrix" values="0 0 0 0 0 0 0 0 0 0 0 0 0 0 0 0 0 0 127 0" result="hardAlpha"/>
<feOffset dy="0.985507"/>
<feGaussianBlur stdDeviation="0.985507"/>
<feColorMatrix type="matrix" values="0 0 0 0 0 0 0 0 0 0 0 0 0 0 0 0 0 0 0.15 0"/>
<feBlend mode="normal" in2="BackgroundImageFix" result="effect1_dropShadow_1267_7635"/>
<feBlend mode="normal" in="SourceGraphic" in2="effect1_dropShadow_1267_7635" result="shape"/>
</filter>
</defs>
</svg>
