<svg width="26" height="26" viewBox="0 0 26 26" fill="none" xmlns="http://www.w3.org/2000/svg">
<g id="fluent:person-feedback-20-regular">
<path id="Vector" d="M13.5625 15.25C14.0101 15.25 14.4393 15.4278 14.7557 15.7443C15.0722 16.0607 15.25 16.4899 15.25 16.9375V17.5C15.25 19.7174 13.1575 22 9.625 22C6.0925 22 4 19.7174 4 17.5V16.9375C4 16.4899 4.17779 16.0607 4.49426 15.7443C4.81072 15.4278 5.23995 15.25 5.6875 15.25H13.5625ZM13.5625 16.375H5.6875C5.53832 16.375 5.39524 16.4343 5.28975 16.5398C5.18426 16.6452 5.125 16.7883 5.125 16.9375V17.5C5.125 19.1178 6.736 20.875 9.625 20.875C12.514 20.875 14.125 19.1178 14.125 17.5V16.9375C14.125 16.7883 14.0657 16.6452 13.9602 16.5398C13.8548 16.4343 13.7117 16.375 13.5625 16.375ZM9.625 7.9375C10.4455 7.9375 11.2324 8.26345 11.8126 8.84364C12.3928 9.42383 12.7188 10.2107 12.7188 11.0312C12.7188 11.8518 12.3928 12.6387 11.8126 13.2189C11.2324 13.7991 10.4455 14.125 9.625 14.125C8.80449 14.125 8.01758 13.7991 7.43739 13.2189C6.8572 12.6387 6.53125 11.8518 6.53125 11.0312C6.53125 10.2107 6.8572 9.42383 7.43739 8.84364C8.01758 8.26345 8.80449 7.9375 9.625 7.9375ZM19.75 4C20.3175 4.0001 20.8639 4.21462 21.2799 4.60057C21.6959 4.98652 21.9507 5.51539 21.9932 6.08125L22 6.25V8.5C22.0002 9.06765 21.7858 9.61439 21.3998 10.0306C21.0138 10.4468 20.4848 10.7018 19.9187 10.7444L19.75 10.75H18.0614L16.7136 12.55C16.1174 13.3443 14.9091 13.0225 14.7145 12.127L14.6954 12.0021L14.6875 11.875V10.6769L14.5997 10.6544C14.1954 10.5319 13.8336 10.2981 13.5557 9.97985C13.2778 9.66157 13.095 9.27158 13.0281 8.85437L13.0056 8.66763L13 8.5V6.25C12.9998 5.68235 13.2142 5.13561 13.6002 4.71938C13.9862 4.30315 14.5152 4.0482 15.0813 4.00563L15.25 4H19.75ZM9.625 9.0625C9.36646 9.0625 9.11045 9.11342 8.87159 9.21236C8.63273 9.3113 8.4157 9.45632 8.23288 9.63913C8.05007 9.82195 7.90505 10.039 7.80611 10.2778C7.70717 10.5167 7.65625 10.7727 7.65625 11.0312C7.65625 11.2898 7.70717 11.5458 7.80611 11.7847C7.90505 12.0235 8.05007 12.2406 8.23288 12.4234C8.4157 12.6062 8.63273 12.7512 8.87159 12.8501C9.11045 12.9491 9.36646 13 9.625 13C10.1471 13 10.6479 12.7926 11.0171 12.4234C11.3863 12.0542 11.5938 11.5534 11.5938 11.0312C11.5938 10.5091 11.3863 10.0083 11.0171 9.63913C10.6479 9.26992 10.1471 9.0625 9.625 9.0625ZM19.75 5.125H15.25C14.9745 5.12504 14.7085 5.2262 14.5026 5.4093C14.2967 5.59241 14.1651 5.84472 14.1329 6.11837L14.125 6.25V8.5C14.125 8.77555 14.2262 9.0415 14.4093 9.24742C14.5924 9.45333 14.8447 9.58489 15.1184 9.61713L15.25 9.625H15.8125V11.875L17.5 9.625H19.75C20.0256 9.62496 20.2915 9.5238 20.4974 9.3407C20.7033 9.15759 20.8349 8.90528 20.8671 8.63163L20.875 8.5V6.25C20.875 5.97445 20.7738 5.7085 20.5907 5.50258C20.4076 5.29667 20.1553 5.16511 19.8816 5.13287L19.75 5.125Z" fill="white"/>
</g>
</svg>
