<svg width="28" height="30" viewBox="0 0 28 30" fill="none" xmlns="http://www.w3.org/2000/svg">
<g id="Document Upload 4">
<path id="Vector" d="M3.77475 9.24629L3.89207 9.98705L3.77475 9.24629ZM9.66279 3.35824L10.4036 3.47557V3.47557L9.66279 3.35824ZM23.8301 27.814L23.3893 27.2073L23.8301 27.814ZM25.3972 26.247L24.7904 25.8061L25.3972 26.247ZM2.60279 26.247L3.20956 25.8061L2.60279 26.247ZM4.16986 27.814L4.61069 27.2073L4.16986 27.814ZM4.16986 2.18629L3.72902 1.57953L4.16986 2.18629ZM2.60279 3.75335L1.99603 3.31251L2.60279 3.75335ZM23.8301 2.18629L23.3893 2.79305L23.8301 2.18629ZM25.3972 3.75335L24.7904 4.19419L25.3972 3.75335ZM9.75 0.874478L9.72432 0.124918L9.75 0.874478ZM1.29098 9.3335L0.541422 9.30781L1.29098 9.3335ZM13.25 22.0835C13.25 22.4977 13.5858 22.8335 14 22.8335C14.4142 22.8335 14.75 22.4977 14.75 22.0835H13.25ZM7.80064 14.7555C7.50906 15.0497 7.51118 15.5246 7.80537 15.8162C8.09957 16.1078 8.57444 16.1056 8.86602 15.8115L7.80064 14.7555ZM10.3136 13.2855L10.8463 13.8134L10.3136 13.2855ZM17.6864 13.2855L17.1537 13.8134L17.6864 13.2855ZM19.134 15.8115C19.4256 16.1057 19.9004 16.1078 20.1946 15.8162C20.4888 15.5246 20.4909 15.0497 20.1994 14.7555L19.134 15.8115ZM13.6449 10.7727L13.5501 10.0287L13.5501 10.0287L13.6449 10.7727ZM14.3551 10.7727L14.4499 10.0287L14.4499 10.0287L14.3551 10.7727ZM14 10.7502L14 10.0002L14 10.7502ZM3.89207 9.98705C7.2439 9.45618 9.87268 6.82739 10.4036 3.47557L8.92203 3.24091C8.49281 5.9509 6.3674 8.0763 3.65742 8.50552L3.89207 9.98705ZM0.5 13.5835V16.4168H2V13.5835H0.5ZM27.5 16.4168V13.5835H26V16.4168H27.5ZM14 29.9168C16.6394 29.9168 18.6791 29.9179 20.2897 29.7434C21.9143 29.5674 23.1908 29.2056 24.271 28.4208L23.3893 27.2073C22.6075 27.7753 21.6251 28.0899 20.1281 28.2521C18.6171 28.4158 16.6728 28.4168 14 28.4168V29.9168ZM26 16.4168C26 19.0896 25.999 21.0339 25.8353 22.5449C25.6731 24.0419 25.3585 25.0243 24.7904 25.8061L26.004 26.6878C26.7887 25.6077 27.1505 24.3311 27.3265 22.7065C27.501 21.0959 27.5 19.0562 27.5 16.4168H26ZM24.271 28.4208C24.936 27.9376 25.5208 27.3528 26.004 26.6878L24.7904 25.8061C24.3998 26.3438 23.927 26.8166 23.3893 27.2073L24.271 28.4208ZM0.5 16.4168C0.5 19.0562 0.49897 21.0959 0.673462 22.7065C0.849475 24.3311 1.21126 25.6077 1.99603 26.6878L3.20956 25.8061C2.64153 25.0243 2.32692 24.0419 2.16474 22.5449C2.00103 21.0339 2 19.0896 2 16.4168H0.5ZM14 28.4168C11.3272 28.4168 9.3829 28.4158 7.8719 28.2521C6.37494 28.0899 5.39252 27.7753 4.61069 27.2073L3.72902 28.4208C4.80916 29.2056 6.08575 29.5674 7.71033 29.7434C9.32089 29.9179 11.3606 29.9168 14 29.9168V28.4168ZM1.99603 26.6878C2.47919 27.3528 3.06401 27.9376 3.72902 28.4208L4.61069 27.2073C4.07303 26.8166 3.60019 26.3438 3.20956 25.8061L1.99603 26.6878ZM3.72902 1.57953C3.06401 2.06269 2.47919 2.6475 1.99603 3.31251L3.20956 4.19419C3.60019 3.65652 4.07303 3.18369 4.61069 2.79305L3.72902 1.57953ZM14 1.5835C16.6728 1.5835 18.6171 1.58453 20.1281 1.74823C21.6251 1.91042 22.6075 2.22503 23.3893 2.79305L24.271 1.57953C23.1908 0.79476 21.9143 0.432972 20.2897 0.256959C18.6791 0.0824667 16.6394 0.0834961 14 0.0834961V1.5835ZM27.5 13.5835C27.5 10.9441 27.501 8.90438 27.3265 7.29383C27.1505 5.66924 26.7887 4.39265 26.004 3.31251L24.7904 4.19419C25.3585 4.97601 25.6731 5.95844 25.8353 7.4554C25.999 8.9664 26 10.9107 26 13.5835H27.5ZM23.3893 2.79305C23.927 3.18369 24.3998 3.65652 24.7904 4.19419L26.004 3.31251C25.5208 2.6475 24.936 2.06269 24.271 1.57953L23.3893 2.79305ZM14 0.0834961C12.3482 0.0834961 10.9361 0.0834022 9.72432 0.124918L9.77568 1.62404C10.9563 1.58359 12.3399 1.5835 14 1.5835V0.0834961ZM9.72432 0.124918C7.07413 0.215717 5.2096 0.503826 3.72902 1.57953L4.61069 2.79305C5.69316 2.0066 7.14401 1.7142 9.77568 1.62404L9.72432 0.124918ZM9 0.874473C8.99999 2.19079 8.9968 2.7688 8.92203 3.24091L10.4036 3.47557C10.5014 2.85796 10.5 2.13582 10.5 0.874484L9 0.874473ZM2 13.5835C2 11.9234 2.00009 10.5398 2.04054 9.35918L0.541422 9.30781C0.499907 10.5196 0.5 11.9317 0.5 13.5835H2ZM2.04054 9.35918C2.13071 6.72751 2.4231 5.27666 3.20956 4.19419L1.99603 3.31251C0.920328 4.79309 0.632221 6.65763 0.541422 9.30781L2.04054 9.35918ZM1.29099 10.0835C2.55233 10.0835 3.27446 10.0849 3.89207 9.98705L3.65742 8.50552C3.1853 8.5803 2.6073 8.58349 1.29098 8.5835L1.29099 10.0835ZM14.75 22.0835V11.8835H13.25V22.0835H14.75ZM8.86602 15.8115L10.8463 13.8134L9.78092 12.7575L7.80064 14.7555L8.86602 15.8115ZM17.1537 13.8134L19.134 15.8115L20.1994 14.7555L18.2191 12.7575L17.1537 13.8134ZM10.8463 13.8134C11.6483 13.0042 12.2061 12.4431 12.6802 12.0623C13.1425 11.6911 13.452 11.5534 13.7397 11.5167L13.5501 10.0287C12.8753 10.1147 12.3089 10.4367 11.7409 10.8928C11.1848 11.3394 10.5581 11.9733 9.78092 12.7575L10.8463 13.8134ZM18.2191 12.7575C17.4419 11.9733 16.8152 11.3394 16.2591 10.8928C15.6911 10.4367 15.1247 10.1147 14.4499 10.0287L14.2603 11.5167C14.548 11.5534 14.8575 11.6911 15.3198 12.0623C15.7939 12.4431 16.3517 13.0042 17.1537 13.8134L18.2191 12.7575ZM13.7397 11.5167C13.8261 11.5057 13.9131 11.5002 14 11.5002L14 10.0002C13.8497 10.0002 13.6994 10.0097 13.5501 10.0287L13.7397 11.5167ZM14 11.5002C14.0869 11.5002 14.1739 11.5057 14.2603 11.5167L14.4499 10.0287C14.3006 10.0097 14.1503 10.0002 14 10.0002L14 11.5002ZM14.75 11.8835V10.7502H13.25V11.8835H14.75Z" fill="url(#paint0_linear_2228_2450)"/>
</g>
<defs>
<linearGradient id="paint0_linear_2228_2450" x1="1.25" y1="0.833496" x2="29.5" y2="26.8941" gradientUnits="userSpaceOnUse">
<stop stop-color="#FF0092"/>
<stop offset="1" stop-color="#216DFD"/>
</linearGradient>
</defs>
</svg>
