<svg width="22" height="22" viewBox="0 0 22 22" fill="none" xmlns="http://www.w3.org/2000/svg">
<g id="eva:upload-outline">
<g id="evaUploadOutline0">
<g id="evaUploadOutline1">
<g id="evaUploadOutline2">
<path id="Vector" d="M4.58325 5.5L17.4166 5.5C17.9228 5.5 18.3333 5.08959 18.3333 4.58333C18.3333 4.07707 17.9228 3.66667 17.4166 3.66667L4.58325 3.66667C4.07699 3.66667 3.66659 4.07707 3.66659 4.58333C3.66659 5.08959 4.07699 5.5 4.58325 5.5Z" fill="#FEFFFF"/>
<path id="Vector_2" d="M18.3333 6.41675V4.58341C18.3333 4.07715 17.9228 3.66675 17.4166 3.66675C16.9103 3.66675 16.4999 4.07715 16.4999 4.58341V6.41675C16.4999 6.92301 16.9103 7.33341 17.4166 7.33341C17.9228 7.33341 18.3333 6.92301 18.3333 6.41675Z" fill="#FEFFFF"/>
<path id="Vector_3" d="M5.5 6.41675V4.58341C5.5 4.07715 5.08959 3.66675 4.58333 3.66675C4.07707 3.66675 3.66667 4.07715 3.66667 4.58341V6.41675C3.66667 6.92301 4.07707 7.33341 4.58333 7.33341C5.08959 7.33341 5.5 6.92301 5.5 6.41675Z" fill="#FEFFFF"/>
<path id="Vector_4" d="M7.33329 12.8334C7.19098 12.8334 7.05063 12.8002 6.92335 12.7366C6.79606 12.673 6.68534 12.5806 6.59996 12.4667C6.52773 12.3704 6.47518 12.2608 6.44531 12.1442C6.41543 12.0276 6.40881 11.9062 6.42584 11.7871C6.44286 11.6679 6.48319 11.5533 6.54452 11.4497C6.60586 11.3461 6.68699 11.2556 6.78329 11.1834L10.45 8.43338C10.607 8.31866 10.7964 8.25684 10.9908 8.25684C11.1852 8.25684 11.3746 8.31866 11.5316 8.43338L15.1983 11.0184C15.3959 11.1586 15.53 11.3713 15.5712 11.6101C15.6124 11.8488 15.5575 12.0942 15.4183 12.2925C15.3488 12.3917 15.2604 12.4761 15.1581 12.5409C15.0559 12.6057 14.9418 12.6495 14.8225 12.67C14.7032 12.6904 14.581 12.6871 14.463 12.66C14.345 12.633 14.2335 12.5829 14.135 12.5125L11 10.3034L7.88329 12.65C7.72462 12.7691 7.53163 12.8334 7.33329 12.8334Z" fill="#FEFFFF"/>
<path id="Vector_5" d="M10.9999 19.2502C10.7568 19.2502 10.5236 19.1536 10.3517 18.9817C10.1798 18.8098 10.0833 18.5766 10.0833 18.3335V11.0002C10.0833 10.757 10.1798 10.5239 10.3517 10.352C10.5236 10.1801 10.7568 10.0835 10.9999 10.0835C11.243 10.0835 11.4762 10.1801 11.6481 10.352C11.82 10.5239 11.9166 10.757 11.9166 11.0002V18.3335C11.9166 18.5766 11.82 18.8098 11.6481 18.9817C11.4762 19.1536 11.243 19.2502 10.9999 19.2502Z" fill="#FEFFFF"/>
</g>
</g>
</g>
</g>
</svg>
