<svg width="18" height="18" viewBox="0 0 18 18" fill="none" xmlns="http://www.w3.org/2000/svg">
<g id="streamline:interface-help-question-circle-circle-faq-frame-help-info-mark-more-query-question" clip-path="url(#clip0_1764_10946)">
<path id="Vector" d="M9 16.9049C13.2736 16.9049 16.7381 13.4404 16.7381 9.16681C16.7381 4.89317 13.2736 1.42871 9 1.42871C4.72637 1.42871 1.2619 4.89317 1.2619 9.16681C1.2619 13.4404 4.72637 16.9049 9 16.9049Z" stroke="white" stroke-width="1.2" stroke-linecap="round" stroke-linejoin="round"/>
<path id="Vector_2" d="M7.21428 7.38093C7.21428 7.02775 7.31901 6.6825 7.51523 6.38884C7.71144 6.09518 7.99033 5.8663 8.31663 5.73115C8.64293 5.59599 9.00197 5.56063 9.34837 5.62953C9.69476 5.69843 10.0129 5.8685 10.2627 6.11824C10.5124 6.36798 10.6825 6.68616 10.7514 7.03255C10.8203 7.37895 10.7849 7.738 10.6498 8.06429C10.5146 8.39059 10.2857 8.66948 9.99208 8.8657C9.69842 9.06191 9.35317 9.16664 8.99999 9.16664V10.3571" stroke="white" stroke-width="1.2" stroke-linecap="round" stroke-linejoin="round"/>
<path id="Vector_3" d="M9 12.1431C8.82341 12.1431 8.65078 12.1954 8.50395 12.2935C8.35712 12.3916 8.24268 12.5311 8.1751 12.6942C8.10753 12.8574 8.08984 13.0369 8.1243 13.2101C8.15875 13.3833 8.24378 13.5424 8.36865 13.6673C8.49352 13.7921 8.65261 13.8772 8.82581 13.9116C8.99901 13.9461 9.17853 13.9284 9.34168 13.8608C9.50483 13.7932 9.64427 13.6788 9.74238 13.532C9.84049 13.3851 9.89285 13.2125 9.89285 13.0359C9.88977 12.8001 9.79471 12.5748 9.62793 12.408C9.46115 12.2412 9.23584 12.1461 9 12.1431Z" fill="white"/>
</g>
<defs>
<clipPath id="clip0_1764_10946">
<rect width="16.6667" height="16.6667" fill="white" transform="translate(0.666664 0.833496)"/>
</clipPath>
</defs>
</svg>
