<svg width="20" height="20" viewBox="0 0 20 20" fill="none" xmlns="http://www.w3.org/2000/svg">
<g id="brands/logo">
<path id="Vector" d="M13.6457 2.70747C14.6118 2.71036 15.5375 3.09542 16.2207 3.77857C16.9038 4.46172 17.2889 5.38745 17.2918 6.35356V13.645C17.2889 14.6111 16.9038 15.5368 16.2207 16.22C15.5375 16.9031 14.6118 17.2882 13.6457 17.2911H6.3543C5.38818 17.2882 4.46246 16.9031 3.77931 16.22C3.09616 15.5368 2.71109 14.6111 2.7082 13.645V6.35356C2.71109 5.38745 3.09616 4.46172 3.77931 3.77857C4.46246 3.09542 5.38818 2.71036 6.3543 2.70747H13.6457ZM13.6457 1.24927H6.3543C3.54687 1.24927 1.25 3.54614 1.25 6.35356V13.645C1.25 16.4524 3.54687 18.7493 6.3543 18.7493H13.6457C16.4531 18.7493 18.75 16.4524 18.75 13.645V6.35356C18.75 3.54614 16.4531 1.24927 13.6457 1.24927Z" fill="#7390A1"/>
<path id="Vector_2" d="M14.7395 6.35181C14.5231 6.35181 14.3117 6.28766 14.1318 6.16748C13.9519 6.04729 13.8117 5.87647 13.729 5.67662C13.6462 5.47676 13.6245 5.25684 13.6667 5.04468C13.7089 4.83251 13.8131 4.63762 13.9661 4.48466C14.119 4.3317 14.3139 4.22753 14.5261 4.18532C14.7382 4.14312 14.9582 4.16478 15.158 4.24756C15.3579 4.33035 15.5287 4.47054 15.6489 4.6504C15.7691 4.83027 15.8332 5.04173 15.8332 5.25806C15.8335 5.40178 15.8054 5.54414 15.7506 5.67698C15.6957 5.80982 15.6152 5.93052 15.5135 6.03214C15.4119 6.13377 15.2912 6.21432 15.1584 6.26918C15.0255 6.32404 14.8832 6.35212 14.7395 6.35181ZM10 7.08071C10.5769 7.08071 11.1408 7.25178 11.6205 7.57228C12.1002 7.89278 12.474 8.34833 12.6948 8.8813C12.9155 9.41428 12.9733 10.0007 12.8608 10.5665C12.7482 11.1324 12.4704 11.6521 12.0625 12.06C11.6546 12.4679 11.1348 12.7457 10.569 12.8583C10.0032 12.9708 9.41677 12.913 8.88379 12.6923C8.35082 12.4715 7.89528 12.0977 7.57477 11.618C7.25427 11.1383 7.0832 10.5744 7.0832 9.99751C7.08403 9.22418 7.3916 8.48276 7.93843 7.93594C8.48525 7.38911 9.22667 7.08154 10 7.08071ZM10 5.62251C9.13471 5.62251 8.28885 5.8791 7.56938 6.35983C6.84992 6.84056 6.28916 7.52384 5.95803 8.32327C5.6269 9.1227 5.54026 10.0024 5.70907 10.851C5.87788 11.6997 6.29456 12.4792 6.90641 13.0911C7.51826 13.703 8.29781 14.1196 9.14648 14.2884C9.99515 14.4573 10.8748 14.3706 11.6742 14.0395C12.4737 13.7084 13.1569 13.1476 13.6377 12.4281C14.1184 11.7087 14.375 10.8628 14.375 9.99751C14.375 8.83719 13.9141 7.72439 13.0936 6.90392C12.2731 6.08345 11.1603 5.62251 10 5.62251Z" fill="#7390A1"/>
</g>
</svg>
