<svg width="12" height="12" viewBox="0 0 12 12" fill="none" xmlns="http://www.w3.org/2000/svg">
<g id="Location">
<path id="Vector" d="M9.77946 6.11446C9.63089 6.86151 9.26425 7.54776 8.72589 8.08655L8.13492 8.67105C8.13466 8.6713 8.1344 8.67156 8.13414 8.67181C7.69787 9.0996 7.13153 9.65048 6.43443 10.3246C6.31788 10.4373 6.16211 10.5003 5.99999 10.5003C5.83807 10.5003 5.68249 10.4375 5.56599 10.325C5.56584 10.3249 5.56569 10.3247 5.56554 10.3246L3.82237 8.62887C3.82218 8.62868 3.82198 8.62849 3.82179 8.62831C3.60329 8.41427 3.42171 8.23417 3.27504 8.0875C2.73615 7.54857 2.36917 6.86195 2.22051 6.11446C2.07184 5.36696 2.14817 4.59216 2.43984 3.88804C2.73151 3.18392 3.22543 2.58211 3.85913 2.15869C4.49282 1.73527 5.23785 1.50928 5.99999 1.50928C6.76212 1.50928 7.50715 1.73527 8.14085 2.15869C8.77455 2.58211 9.26846 3.18392 9.56013 3.88804C9.8518 4.59216 9.92813 5.36696 9.77946 6.11446ZM7.74999 5.50006C7.74999 5.03593 7.56561 4.59081 7.23742 4.26262C6.90923 3.93443 6.46411 3.75006 5.99999 3.75006C5.53586 3.75006 5.09074 3.93443 4.76255 4.26262C4.43436 4.59081 4.24999 5.03593 4.24999 5.50006C4.24999 5.96418 4.43436 6.4093 4.76255 6.73749C5.09074 7.06568 5.53586 7.25006 5.99999 7.25006C6.46412 7.25006 6.90923 7.06568 7.23742 6.73749C7.56561 6.4093 7.74999 5.96419 7.74999 5.50006Z" stroke="#424B5A"/>
</g>
</svg>
