<svg width="178" height="214" viewBox="0 0 178 214" fill="none" xmlns="http://www.w3.org/2000/svg">
<g clip-path="url(#clip0_1120_2252)">
<path d="M177.869 78.8514C177.136 67.7384 173.921 56.9317 168.463 47.2274C163.004 37.5231 155.44 29.1685 146.328 22.779C137.217 16.3895 126.789 12.1279 115.814 10.3083C104.838 8.48866 93.5952 9.15727 82.9123 12.2649C72.2294 15.3726 62.379 20.8401 54.0869 28.2646C45.7947 35.6891 39.2721 44.8814 34.9995 55.1645C30.7269 65.4475 28.8132 76.5591 29.3994 87.6808C29.9856 98.8025 33.0567 109.651 38.3866 119.427L85.1067 182.928L88.4969 187.548C90.2511 189.913 92.5335 191.833 95.1617 193.156C97.7899 194.48 100.691 195.169 103.633 195.169C106.575 195.169 109.476 194.48 112.104 193.156C114.732 191.833 117.015 189.913 118.769 187.548L122.246 182.884L163.061 128.339C173.756 114.15 179.011 96.59 177.869 78.8514Z" fill="url(#paint0_linear_1120_2252)"/>
<g filter="url(#filter0_bii_1120_2252)">
<path d="M148.712 87.0627C148.103 67.3174 139.684 48.6229 125.307 35.092C110.93 21.5611 91.772 14.3021 72.0486 14.9119C52.3252 15.5217 33.6516 23.9503 20.1358 38.3436C6.61996 52.7368 -0.630983 71.9158 -0.0218784 91.6611C-0.0357047 104.238 3.14829 116.611 9.23026 127.616L55.9285 191.118C36.8336 192.826 23.2725 197.139 23.2725 202.197C23.2725 208.767 46.0639 214.066 74.1703 214.066C102.277 214.066 125.09 208.745 125.09 202.197C125.09 197.205 111.835 192.935 93.0902 191.249L133.795 136.681C144.56 122.473 149.855 104.859 148.712 87.0627Z" fill="url(#paint1_linear_1120_2252)" fill-opacity="0.1"/>
</g>
<path opacity="0.5" d="M74.3549 19.2846C75.8422 19.2846 77.3733 19.2846 78.8825 19.4379C91.7042 20.2548 104.065 24.533 114.654 31.8182C125.242 39.1033 133.661 49.1233 139.018 60.814C144.374 72.5047 146.468 85.4296 145.076 98.2158C143.685 111.002 138.86 123.172 131.115 133.434L90.3876 188.001L86.8879 192.687L92.728 193.235C112.632 195.096 120.834 199.257 121.709 200.986C120.288 204.052 103.03 209.57 74.1143 209.57C45.1986 209.57 27.9629 204.052 26.5193 200.986C27.4161 199.213 35.8152 195.008 56.1787 193.169L61.9749 192.666L58.5191 187.958L12.0614 124.697C6.12898 113.852 3.11954 101.647 3.32935 89.2842C3.53916 76.9211 6.96098 64.8259 13.258 54.1887C19.555 43.5516 28.5102 34.7394 39.2422 28.6192C49.9743 22.4991 62.1132 19.282 74.4642 19.2846M74.4642 16.0001C61.519 15.9831 48.7935 19.3494 37.5464 25.7661C26.2992 32.1827 16.92 41.4273 10.3362 52.5858C3.75241 63.7442 0.192169 76.4299 0.00756389 89.3883C-0.177042 102.347 3.02036 115.129 9.2836 126.471L55.9818 189.972C36.887 191.68 23.3259 195.994 23.3259 201.052C23.3259 207.621 46.1172 212.92 74.2236 212.92C102.33 212.92 125.143 207.599 125.143 201.052C125.143 196.06 111.888 191.79 93.1435 190.104L133.849 135.536C141.967 124.803 147.027 112.066 148.488 98.6819C149.95 85.2979 147.758 71.7677 142.148 59.5316C136.537 47.2956 127.717 36.8118 116.626 29.1962C105.536 21.5807 92.5897 17.1185 79.1669 16.2847C77.5702 16.2847 75.9953 16.1314 74.4424 16.1314L74.4642 16.0001Z" fill="url(#paint2_linear_1120_2252)"/>
<path opacity="0.31" d="M93.0683 191.118L89.5906 195.76C87.8364 198.124 85.554 200.045 82.9258 201.368C80.2976 202.691 77.3965 203.38 74.4547 203.38C71.5128 203.38 68.6117 202.691 65.9835 201.368C63.3553 200.045 61.0729 198.124 59.3188 195.76L55.8847 191.052C36.7899 192.76 23.2288 197.074 23.2288 202.132C23.2288 208.701 46.0201 214 74.1266 214C102.233 214 125.046 208.679 125.046 202.132C125.112 197.139 111.857 192.869 93.0683 191.118Z" fill="white"/>
<g opacity="0.5" filter="url(#filter1_b_1120_2252)">
<path d="M74.1922 108.938C85.9822 108.938 95.5399 99.3695 95.5399 87.5664C95.5399 75.7632 85.9822 66.1948 74.1922 66.1948C62.4021 66.1948 52.8444 75.7632 52.8444 87.5664C52.8444 99.3695 62.4021 108.938 74.1922 108.938Z" fill="white"/>
</g>
<path opacity="0.71" d="M105.208 28.2472L123.931 51.0858L108.357 25.9918L131.171 7.24793L106.104 22.8386L87.3814 0L102.933 25.094L80.1415 43.8379L105.208 28.2472Z" fill="url(#paint3_radial_1120_2252)"/>
<path opacity="0.71" d="M98.5283 182.583L105.645 191.234L99.7255 181.729L108.397 174.628L98.8692 180.534L91.7521 171.883L97.6636 181.388L89 188.489L98.5283 182.583Z" fill="url(#paint4_radial_1120_2252)"/>
<path opacity="0.71" d="M9.52827 93.7957L16.6454 102.447L10.7255 92.9413L19.3974 85.8412L9.86916 91.7469L2.75206 83.0958L8.66358 92.6013L0 99.7013L9.52827 93.7957Z" fill="url(#paint5_radial_1120_2252)"/>
</g>
<defs>
<filter id="filter0_bii_1120_2252" x="-20.0574" y="-5.12366" width="188.923" height="239.189" filterUnits="userSpaceOnUse" color-interpolation-filters="sRGB">
<feFlood flood-opacity="0" result="BackgroundImageFix"/>
<feGaussianBlur in="BackgroundImageFix" stdDeviation="10"/>
<feComposite in2="SourceAlpha" operator="in" result="effect1_backgroundBlur_1120_2252"/>
<feBlend mode="normal" in="SourceGraphic" in2="effect1_backgroundBlur_1120_2252" result="shape"/>
<feColorMatrix in="SourceAlpha" type="matrix" values="0 0 0 0 0 0 0 0 0 0 0 0 0 0 0 0 0 0 127 0" result="hardAlpha"/>
<feOffset dy="10"/>
<feGaussianBlur stdDeviation="5"/>
<feComposite in2="hardAlpha" operator="arithmetic" k2="-1" k3="1"/>
<feColorMatrix type="matrix" values="0 0 0 0 1 0 0 0 0 1 0 0 0 0 1 0 0 0 0.15 0"/>
<feBlend mode="normal" in2="shape" result="effect2_innerShadow_1120_2252"/>
<feColorMatrix in="SourceAlpha" type="matrix" values="0 0 0 0 0 0 0 0 0 0 0 0 0 0 0 0 0 0 127 0" result="hardAlpha"/>
<feOffset dy="-10"/>
<feGaussianBlur stdDeviation="5"/>
<feComposite in2="hardAlpha" operator="arithmetic" k2="-1" k3="1"/>
<feColorMatrix type="matrix" values="0 0 0 0 0.541176 0 0 0 0 0.137255 0 0 0 0 0.529412 0 0 0 0.15 0"/>
<feBlend mode="normal" in2="effect2_innerShadow_1120_2252" result="effect3_innerShadow_1120_2252"/>
</filter>
<filter id="filter1_b_1120_2252" x="32.8444" y="46.1948" width="82.6955" height="82.743" filterUnits="userSpaceOnUse" color-interpolation-filters="sRGB">
<feFlood flood-opacity="0" result="BackgroundImageFix"/>
<feGaussianBlur in="BackgroundImageFix" stdDeviation="10"/>
<feComposite in2="SourceAlpha" operator="in" result="effect1_backgroundBlur_1120_2252"/>
<feBlend mode="normal" in="SourceGraphic" in2="effect1_backgroundBlur_1120_2252" result="shape"/>
</filter>
<linearGradient id="paint0_linear_1120_2252" x1="29.2961" y1="9.30786" x2="211.621" y2="158.852" gradientUnits="userSpaceOnUse">
<stop stop-color="#FF0092"/>
<stop offset="1" stop-color="#216DFD"/>
</linearGradient>
<linearGradient id="paint1_linear_1120_2252" x1="-0.057373" y1="114.471" x2="148.865" y2="114.471" gradientUnits="userSpaceOnUse">
<stop stop-color="#E379E0"/>
<stop offset="1" stop-color="#8A2387"/>
</linearGradient>
<linearGradient id="paint2_linear_1120_2252" x1="17.989" y1="26.3136" x2="152.481" y2="241.997" gradientUnits="userSpaceOnUse">
<stop stop-color="white" stop-opacity="0"/>
<stop offset="0.05" stop-color="white" stop-opacity="0.02"/>
<stop offset="0.12" stop-color="white" stop-opacity="0.08"/>
<stop offset="0.18" stop-color="white" stop-opacity="0.17"/>
<stop offset="0.26" stop-color="white" stop-opacity="0.3"/>
<stop offset="0.33" stop-color="white" stop-opacity="0.47"/>
<stop offset="0.41" stop-color="white" stop-opacity="0.67"/>
<stop offset="0.48" stop-color="white" stop-opacity="0.91"/>
<stop offset="0.51" stop-color="white" stop-opacity="0.96"/>
<stop offset="0.53" stop-color="white" stop-opacity="0.78"/>
<stop offset="0.56" stop-color="white" stop-opacity="0.61"/>
<stop offset="0.58" stop-color="white" stop-opacity="0.47"/>
<stop offset="0.61" stop-color="white" stop-opacity="0.34"/>
<stop offset="0.64" stop-color="white" stop-opacity="0.23"/>
<stop offset="0.67" stop-color="white" stop-opacity="0.15"/>
<stop offset="0.71" stop-color="white" stop-opacity="0.08"/>
<stop offset="0.75" stop-color="white" stop-opacity="0.03"/>
<stop offset="0.82" stop-color="white" stop-opacity="0.01"/>
<stop offset="1" stop-color="white" stop-opacity="0"/>
</linearGradient>
<radialGradient id="paint3_radial_1120_2252" cx="0" cy="0" r="1" gradientUnits="userSpaceOnUse" gradientTransform="translate(105.59 26.1816) rotate(54.2203) scale(31.4103 31.3993)">
<stop stop-color="white"/>
<stop offset="0.09" stop-color="white" stop-opacity="0.84"/>
<stop offset="0.23" stop-color="white" stop-opacity="0.62"/>
<stop offset="0.36" stop-color="white" stop-opacity="0.43"/>
<stop offset="0.5" stop-color="white" stop-opacity="0.28"/>
<stop offset="0.63" stop-color="white" stop-opacity="0.15"/>
<stop offset="0.76" stop-color="white" stop-opacity="0.07"/>
<stop offset="0.89" stop-color="white" stop-opacity="0.02"/>
<stop offset="1" stop-color="white" stop-opacity="0"/>
</radialGradient>
<radialGradient id="paint4_radial_1120_2252" cx="0" cy="0" r="1" gradientUnits="userSpaceOnUse" gradientTransform="translate(98.6735 181.8) rotate(54.1249) scale(11.9124 11.9213)">
<stop stop-color="white"/>
<stop offset="0.09" stop-color="white" stop-opacity="0.84"/>
<stop offset="0.23" stop-color="white" stop-opacity="0.62"/>
<stop offset="0.36" stop-color="white" stop-opacity="0.43"/>
<stop offset="0.5" stop-color="white" stop-opacity="0.28"/>
<stop offset="0.63" stop-color="white" stop-opacity="0.15"/>
<stop offset="0.76" stop-color="white" stop-opacity="0.07"/>
<stop offset="0.89" stop-color="white" stop-opacity="0.02"/>
<stop offset="1" stop-color="white" stop-opacity="0"/>
</radialGradient>
<radialGradient id="paint5_radial_1120_2252" cx="0" cy="0" r="1" gradientUnits="userSpaceOnUse" gradientTransform="translate(9.67354 93.0132) rotate(54.1249) scale(11.9124 11.9213)">
<stop stop-color="white"/>
<stop offset="0.09" stop-color="white" stop-opacity="0.84"/>
<stop offset="0.23" stop-color="white" stop-opacity="0.62"/>
<stop offset="0.36" stop-color="white" stop-opacity="0.43"/>
<stop offset="0.5" stop-color="white" stop-opacity="0.28"/>
<stop offset="0.63" stop-color="white" stop-opacity="0.15"/>
<stop offset="0.76" stop-color="white" stop-opacity="0.07"/>
<stop offset="0.89" stop-color="white" stop-opacity="0.02"/>
<stop offset="1" stop-color="white" stop-opacity="0"/>
</radialGradient>
<clipPath id="clip0_1120_2252">
<rect width="178" height="214" fill="white"/>
</clipPath>
</defs>
</svg>
