<svg width="12" height="12" viewBox="0 0 12 12" fill="none" xmlns="http://www.w3.org/2000/svg">
<g id="Message 18">
<path id="Vector" d="M2.0202 3.56644C2.38725 3.5 2.87468 3.5 3.61111 3.5H4.38889C5.47788 3.5 6.02238 3.5 6.43831 3.71482C6.80419 3.90378 7.10165 4.2053 7.28807 4.57616C7.5 4.99777 7.5 5.54969 7.5 6.65353V7.71738C7.5 7.82761 7.5 7.88273 7.49782 7.9293C7.46266 8.68231 7.01277 9.32363 6.37403 9.62431M2.0202 3.56644C1.84448 3.59824 1.69634 3.64527 1.56169 3.71482C1.19581 3.90378 0.898352 4.2053 0.711932 4.57616C0.5 4.99777 0.5 5.54969 0.5 6.65353V8.3203C0.5 9.14141 1.15669 9.80705 1.96676 9.80705H2.20077C2.50375 9.80705 2.71093 10.1172 2.59841 10.4024C2.43955 10.8049 2.89692 11.1688 3.24496 10.9168L4.26025 10.1818C4.27061 10.1743 4.27578 10.1705 4.28087 10.1669C4.60521 9.93521 4.99169 9.80967 5.38845 9.80709C5.39468 9.80705 5.40298 9.80705 5.41958 9.80705C5.5409 9.80705 5.60156 9.80705 5.64751 9.80485C5.90623 9.79243 6.15158 9.72903 6.37403 9.62431M2.0202 3.56644C2.04809 3.04085 2.11447 2.67515 2.27248 2.36502C2.51217 1.89462 2.89462 1.51217 3.36502 1.27248C3.8998 1 4.59987 1 6 1H7C8.40013 1 9.1002 1 9.63498 1.27248C10.1054 1.51217 10.4878 1.89462 10.7275 2.36502C11 2.8998 11 3.59987 11 5V7.11417C11 8.15569 10.1557 9 9.11417 9H8.81329C8.42375 9 8.15737 9.39344 8.30205 9.75513C8.50629 10.2657 7.91825 10.7273 7.47076 10.4077L6.37403 9.62431" stroke="#424B5A"/>
<g id="Vector_2">
<path d="M3 7C3 7.27614 2.77614 7.5 2.5 7.5C2.22386 7.5 2 7.27614 2 7C2 6.72386 2.22386 6.5 2.5 6.5C2.77614 6.5 3 6.72386 3 7Z" fill="#424B5A"/>
<path d="M4.5 7C4.5 7.27614 4.27614 7.5 4 7.5C3.72386 7.5 3.5 7.27614 3.5 7C3.5 6.72386 3.72386 6.5 4 6.5C4.27614 6.5 4.5 6.72386 4.5 7Z" fill="#424B5A"/>
<path d="M6 7C6 7.27614 5.77614 7.5 5.5 7.5C5.22386 7.5 5 7.27614 5 7C5 6.72386 5.22386 6.5 5.5 6.5C5.77614 6.5 6 6.72386 6 7Z" fill="#424B5A"/>
</g>
</g>
</svg>
