<svg width="16" height="16" viewBox="0 0 16 16" fill="none" xmlns="http://www.w3.org/2000/svg">
<path d="M11.3333 12.9999C11.3333 11.8953 9.84067 10.9999 8 10.9999C6.15933 10.9999 4.66667 11.8953 4.66667 12.9999M14 10.9999C14 10.1799 13.1773 9.47527 12 9.1666M2 10.9999C2 10.1799 2.82267 9.47527 4 9.1666M12 6.4906C12.1975 6.316 12.3585 6.10407 12.4739 5.867C12.5892 5.62994 12.6565 5.37241 12.6719 5.10924C12.6873 4.84607 12.6506 4.58245 12.5638 4.33353C12.4769 4.08462 12.3418 3.85532 12.166 3.65883C11.9903 3.46234 11.7774 3.30254 11.5397 3.18861C11.3019 3.07468 11.044 3.00887 10.7808 2.99497C10.5175 2.98107 10.2541 3.01935 10.0057 3.10762C9.75731 3.19588 9.5288 3.33238 9.33333 3.50927M4 6.4906C3.6082 6.13603 3.37264 5.64082 3.34478 5.11314C3.31692 4.58545 3.49902 4.06819 3.85131 3.67433C4.20359 3.28047 4.69743 3.04204 5.22494 3.01111C5.75245 2.98019 6.27077 3.15928 6.66667 3.50927M8 8.99994C7.46957 8.99994 6.96086 8.78922 6.58579 8.41415C6.21071 8.03908 6 7.53037 6 6.99994C6 6.4695 6.21071 5.9608 6.58579 5.58572C6.96086 5.21065 7.46957 4.99994 8 4.99994C8.53043 4.99994 9.03914 5.21065 9.41421 5.58572C9.78929 5.9608 10 6.4695 10 6.99994C10 7.53037 9.78929 8.03908 9.41421 8.41415C9.03914 8.78922 8.53043 8.99994 8 8.99994Z" stroke="white" stroke-width="1.5" stroke-linecap="round" stroke-linejoin="round"/>
</svg>
