<svg width="20" height="19" viewBox="0 0 20 19" fill="none" xmlns="http://www.w3.org/2000/svg">
<g id="ph:share-fill">
<path id="Vector" d="M18.7755 6.90069L15.0255 10.6507C14.9381 10.7382 14.8267 10.7978 14.7054 10.822C14.5841 10.8461 14.4584 10.8337 14.3441 10.7864C14.2298 10.739 14.1322 10.6589 14.0635 10.556C13.9948 10.4531 13.9582 10.3322 13.9583 10.2085V7.0835H13.724C12.1995 7.08308 10.7181 7.58937 9.51275 8.52275C8.30741 9.45614 7.44649 10.7637 7.06537 12.2398C7.02393 12.4003 6.92039 12.5379 6.77754 12.6221C6.63469 12.7064 6.46423 12.7304 6.30365 12.689C6.14307 12.6475 6.00553 12.544 5.92128 12.4011C5.83704 12.2583 5.81299 12.0878 5.85443 11.9273C6.30413 10.1824 7.32143 8.63659 8.74614 7.53336C10.1709 6.43014 11.922 5.83213 13.724 5.8335H13.9583V2.7085C13.9582 2.58482 13.9948 2.46388 14.0635 2.36101C14.1322 2.25814 14.2298 2.17796 14.3441 2.13061C14.4584 2.08327 14.5841 2.07089 14.7054 2.09504C14.8267 2.1192 14.9381 2.17881 15.0255 2.26631L18.7755 6.01631C18.8336 6.07436 18.8797 6.14329 18.9112 6.21916C18.9426 6.29504 18.9588 6.37637 18.9588 6.4585C18.9588 6.54064 18.9426 6.62196 18.9112 6.69784C18.8797 6.77371 18.8336 6.84264 18.7755 6.90069ZM15.8333 14.5835H3.95834V5.2085C3.95834 5.04274 3.89249 4.88377 3.77528 4.76656C3.65807 4.64935 3.4991 4.5835 3.33334 4.5835C3.16758 4.5835 3.0086 4.64935 2.89139 4.76656C2.77418 4.88377 2.70834 5.04274 2.70834 5.2085V14.5835C2.70834 14.915 2.84003 15.233 3.07445 15.4674C3.30887 15.7018 3.62682 15.8335 3.95834 15.8335H15.8333C15.9991 15.8335 16.1581 15.7677 16.2753 15.6504C16.3925 15.5332 16.4583 15.3743 16.4583 15.2085C16.4583 15.0427 16.3925 14.8838 16.2753 14.7666C16.1581 14.6493 15.9991 14.5835 15.8333 14.5835Z" fill="white"/>
</g>
</svg>
