<svg width="16" height="16" viewBox="0 0 16 16" fill="none" xmlns="http://www.w3.org/2000/svg">
<g id="Play Circle">
<path id="Vector" d="M6.23454 5.87029L6.73033 6.20821L6.23454 5.87029ZM8.94737 6.18626L9.26185 5.67528L8.94737 6.18626ZM7.0997 5.33784L7.0329 4.74157L7.0997 5.33784ZM7.0997 10.6625L7.0329 11.2588L7.0997 10.6625ZM6.23454 10.13L5.73875 10.468L6.23454 10.13ZM10.5605 8.53261L10.0069 8.30136L10.0069 8.30136L10.5605 8.53261ZM10.5605 7.46772L10.0069 7.69896L10.5605 7.46772ZM14.0667 8.00016C14.0667 11.3507 11.3505 14.0668 8 14.0668V15.2668C12.0133 15.2668 15.2667 12.0134 15.2667 8.00016H14.0667ZM8 14.0668C4.64948 14.0668 1.93334 11.3507 1.93334 8.00016H0.733336C0.733336 12.0134 3.98673 15.2668 8 15.2668V14.0668ZM1.93334 8.00016C1.93334 4.64964 4.64948 1.9335 8 1.9335V0.733496C3.98673 0.733496 0.733336 3.98689 0.733336 8.00016H1.93334ZM8 1.9335C11.3505 1.9335 14.0667 4.64964 14.0667 8.00016H15.2667C15.2667 3.98689 12.0133 0.733496 8 0.733496V1.9335ZM6.6 8.00016C6.6 7.3938 6.60053 6.97807 6.62711 6.66927C6.65409 6.35576 6.70252 6.24901 6.73033 6.20821L5.73875 5.53236C5.53202 5.83567 5.46318 6.19861 5.43153 6.56638C5.39947 6.93886 5.4 7.41601 5.4 8.00016L6.6 8.00016ZM9.26185 5.67528C8.78875 5.38413 8.39745 5.14254 8.07435 4.98371C7.7554 4.82691 7.40663 4.6997 7.0329 4.74157L7.16651 5.93411C7.18962 5.93152 7.28107 5.9309 7.54494 6.06061C7.80466 6.18829 8.13877 6.39315 8.6329 6.69725L9.26185 5.67528ZM6.73033 6.20821C6.84123 6.04551 7.00252 5.95248 7.16651 5.93411L7.0329 4.74157C6.50461 4.80076 6.03701 5.09477 5.73875 5.53236L6.73033 6.20821ZM8.6329 9.30308C8.13877 9.60718 7.80466 9.81204 7.54494 9.93971C7.28107 10.0694 7.18962 10.0688 7.16651 10.0662L7.0329 11.2588C7.40663 11.3006 7.7554 11.1734 8.07435 11.0166C8.39745 10.8578 8.78875 10.6162 9.26185 10.325L8.6329 9.30308ZM5.4 8.00016C5.4 8.58431 5.39947 9.06146 5.43153 9.43395C5.46318 9.80172 5.53202 10.1647 5.73875 10.468L6.73033 9.79211C6.70252 9.75131 6.65409 9.64457 6.62711 9.33105C6.60053 9.02226 6.6 8.60652 6.6 8.00016L5.4 8.00016ZM7.16651 10.0662C7.00252 10.0478 6.84123 9.95482 6.73033 9.79211L5.73875 10.468C6.03701 10.9056 6.50461 11.1996 7.0329 11.2588L7.16651 10.0662ZM9.26185 10.325C9.73521 10.0337 10.1268 9.79349 10.4167 9.57511C10.7066 9.3568 10.9711 9.1064 11.1141 8.76386L10.0069 8.30136C9.98763 8.34739 9.92913 8.44009 9.69483 8.61655C9.46062 8.79293 9.12675 8.99914 8.6329 9.30308L9.26185 10.325ZM8.6329 6.69725C9.12675 7.00118 9.46062 7.20739 9.69483 7.38378C9.92913 7.56024 9.98763 7.65294 10.0069 7.69896L11.1141 7.23647C10.9711 6.89393 10.7066 6.64353 10.4167 6.42522C10.1268 6.20683 9.73521 5.9666 9.26185 5.67528L8.6329 6.69725ZM11.1141 8.76386C11.3175 8.27696 11.3175 7.72337 11.1141 7.23647L10.0069 7.69896C10.0866 7.88992 10.0866 8.11041 10.0069 8.30136L11.1141 8.76386Z" fill="white"/>
</g>
</svg>
