<svg width="20" height="20" viewBox="0 0 20 20" fill="none" xmlns="http://www.w3.org/2000/svg">
<g id="documents/document-text">
<path id="Vector" d="M16.25 8.64502V16.2524C16.25 16.7497 16.0524 17.2266 15.7008 17.5783C15.3492 17.9299 14.8723 18.1274 14.375 18.1274H5.62498C5.1277 18.1274 4.65079 17.9299 4.29916 17.5783C3.94753 17.2266 3.74998 16.7497 3.74998 16.2524V3.75244C3.74998 3.25516 3.94753 2.77825 4.29916 2.42662C4.65079 2.07499 5.1277 1.87744 5.62498 1.87744H9.48241C9.81381 1.87749 10.1316 2.00914 10.366 2.24346L15.884 7.76143C16.1183 7.99579 16.2499 8.31361 16.25 8.64502Z" stroke="white" stroke-width="1.2" stroke-linejoin="round"/>
<path id="Vector_2" d="M6.87486 14.377H13.1249M9.99986 2.18945V6.87695C9.99986 7.20847 10.1316 7.52642 10.366 7.76084C10.6004 7.99526 10.9183 8.12695 11.2499 8.12695H15.9374L9.99986 2.18945ZM6.87486 11.252H13.1249H6.87486Z" stroke="white" stroke-width="1.2" stroke-linecap="round" stroke-linejoin="round"/>
</g>
</svg>
