<svg width="8" height="11" viewBox="0 0 8 11" fill="none" xmlns="http://www.w3.org/2000/svg">
<g id="Profile 1">
<path id="Vector" d="M5.5 3C5.5 3.82843 4.82843 4.5 4 4.5V5.5C5.38071 5.5 6.5 4.38071 6.5 3H5.5ZM4 4.5C3.17157 4.5 2.5 3.82843 2.5 3H1.5C1.5 4.38071 2.61929 5.5 4 5.5V4.5ZM2.5 3C2.5 2.17157 3.17157 1.5 4 1.5V0.5C2.61929 0.5 1.5 1.61929 1.5 3H2.5ZM4 1.5C4.82843 1.5 5.5 2.17157 5.5 3H6.5C6.5 1.61929 5.38071 0.5 4 0.5V1.5ZM2.5 7H5.5V6H2.5V7ZM5.5 10H2.5V11H5.5V10ZM2.5 10C1.67157 10 1 9.32843 1 8.5H0C0 9.88071 1.11929 11 2.5 11V10ZM7 8.5C7 9.32843 6.32843 10 5.5 10V11C6.88071 11 8 9.88071 8 8.5H7ZM5.5 7C6.32843 7 7 7.67157 7 8.5H8C8 7.11929 6.88071 6 5.5 6V7ZM2.5 6C1.11929 6 0 7.11929 0 8.5H1C1 7.67157 1.67157 7 2.5 7V6Z" fill="#424B5A"/>
</g>
</svg>
