<svg width="18" height="18" viewBox="0 0 18 18" fill="none" xmlns="http://www.w3.org/2000/svg">
<g id="radix-icons:cross-2">
<path id="Vector" fill-rule="evenodd" clip-rule="evenodd" d="M14.1384 4.8384C14.2025 4.77434 14.2534 4.69828 14.2882 4.61455C14.3229 4.53083 14.3408 4.44108 14.3409 4.35043C14.3409 4.25978 14.3231 4.17001 14.2885 4.08624C14.2539 4.00247 14.2031 3.92634 14.139 3.8622C14.0749 3.79807 13.9989 3.74717 13.9152 3.71243C13.8314 3.67769 13.7417 3.65978 13.651 3.65973C13.5604 3.65967 13.4706 3.67747 13.3868 3.71211C13.3031 3.74675 13.2269 3.79754 13.1628 3.8616L9 8.0244L4.8384 3.8616C4.70887 3.73207 4.53319 3.6593 4.35 3.6593C4.16682 3.6593 3.99114 3.73207 3.8616 3.8616C3.73207 3.99114 3.6593 4.16682 3.6593 4.35C3.6593 4.53319 3.73207 4.70887 3.8616 4.8384L8.0244 9L3.8616 13.1616C3.79747 13.2257 3.74659 13.3019 3.71188 13.3857C3.67717 13.4695 3.6593 13.5593 3.6593 13.65C3.6593 13.7407 3.67717 13.8305 3.71188 13.9143C3.74659 13.9981 3.79747 14.0743 3.8616 14.1384C3.99114 14.2679 4.16682 14.3407 4.35 14.3407C4.44071 14.3407 4.53052 14.3228 4.61432 14.2881C4.69812 14.2534 4.77427 14.2025 4.8384 14.1384L9 9.9756L13.1628 14.1384C13.2923 14.2678 13.468 14.3404 13.651 14.3403C13.8341 14.3402 14.0096 14.2673 14.139 14.1378C14.2684 14.0083 14.341 13.8327 14.3409 13.6496C14.3408 13.4665 14.2679 13.291 14.1384 13.1616L9.9756 9L14.1384 4.8384Z" fill="#7390A1"/>
</g>
</svg>
