<svg width="16" height="17" viewBox="0 0 16 17" fill="none" xmlns="http://www.w3.org/2000/svg">
<path id="Vector" d="M5.92391 3.01026L6.42827 1.73518C6.51333 1.51929 6.66298 1.3336 6.85762 1.20242C7.05226 1.07124 7.28282 1.00068 7.5191 1H8.4809C8.71718 1.00068 8.94774 1.07124 9.14238 1.20242C9.33702 1.3336 9.48667 1.51929 9.57173 1.73518L10.0761 3.01026L11.7886 3.97518L13.1726 3.76841C13.4031 3.73777 13.6377 3.77493 13.8465 3.87515C14.0554 3.97538 14.2291 4.13414 14.3456 4.33128L14.8148 5.13538C14.935 5.33566 14.9904 5.56693 14.9736 5.79868C14.9569 6.03042 14.8688 6.25174 14.7209 6.43344L13.8647 7.50174V9.43159L14.7444 10.4999C14.8922 10.6816 14.9803 10.9029 14.9971 11.1347C15.0138 11.3664 14.9584 11.5977 14.8382 11.7979L14.369 12.6021C14.2525 12.7992 14.0788 12.958 13.87 13.0582C13.6611 13.1584 13.4266 13.1956 13.1961 13.1649L11.812 12.9582L10.0996 13.9231L9.59519 15.1982C9.51013 15.414 9.36048 15.5997 9.16584 15.7309C8.9712 15.8621 8.74064 15.9327 8.50436 15.9333H7.5191C7.28282 15.9327 7.05226 15.8621 6.85762 15.7309C6.66298 15.5997 6.51333 15.414 6.42827 15.1982L5.92391 13.9231L4.21142 12.9582L2.82736 13.1649C2.5969 13.1956 2.36234 13.1584 2.15349 13.0582C1.94464 12.958 1.77092 12.7992 1.65442 12.6021L1.18525 11.7979C1.06503 11.5977 1.00964 11.3664 1.02639 11.1347C1.04314 10.9029 1.13125 10.6816 1.27908 10.4999L2.13533 9.43159V7.50174L1.25563 6.43344C1.10779 6.25174 1.01968 6.03042 1.00293 5.79868C0.986177 5.56693 1.04157 5.33566 1.16179 5.13538L1.63097 4.33128C1.74747 4.13414 1.92118 3.97538 2.13003 3.87515C2.33888 3.77493 2.57344 3.73777 2.8039 3.76841L4.18796 3.97518L5.92391 3.01026ZM5.65413 8.46667C5.65413 8.92106 5.79171 9.36524 6.04948 9.74305C6.30725 10.1209 6.67362 10.4153 7.10227 10.5892C7.53093 10.7631 8.0026 10.8086 8.45766 10.72C8.91271 10.6313 9.3307 10.4125 9.65878 10.0912C9.98686 9.7699 10.2103 9.36053 10.3008 8.91487C10.3913 8.46922 10.3449 8.00728 10.1673 7.58748C9.98975 7.16767 9.68907 6.80886 9.30329 6.55642C8.91752 6.30397 8.46397 6.16923 8 6.16923C7.37784 6.16923 6.78116 6.41128 6.34122 6.84213C5.90128 7.27299 5.65413 7.85735 5.65413 8.46667Z" stroke="white" stroke-width="1.2" stroke-linecap="round" stroke-linejoin="round"/>
</svg>
