<svg width="18" height="14" viewBox="0 0 18 14" fill="none" xmlns="http://www.w3.org/2000/svg">
<g id="Ticket 2">
<path id="Vector" d="M16.5 4.33333C16.5 2.49238 15.0076 1 13.1667 1H4.83333C2.99238 1 1.5 2.49238 1.5 4.33333C1.5 4.7408 1.73367 5.11216 2.10102 5.28849L2.46654 5.46394C3.75526 6.08253 3.75526 7.91747 2.46654 8.53606L2.10102 8.71151C1.73367 8.88784 1.5 9.2592 1.5 9.66667C1.5 11.5076 2.99238 13 4.83333 13H13.1667C15.0076 13 16.5 11.5076 16.5 9.66667C16.5 9.2592 16.2663 8.88784 15.899 8.71151L15.5335 8.53606C14.2447 7.91747 14.2447 6.08253 15.5335 5.46394L15.899 5.28849C16.2663 5.11216 16.5 4.7408 16.5 4.33333Z" stroke="white" stroke-width="1.2"/>
<path id="Vector_2" d="M7.5 1L7.5 13" stroke="white" stroke-width="1.2" stroke-linecap="round" stroke-dasharray="2 2"/>
</g>
</svg>
