<svg width="22" height="22" viewBox="0 0 22 22" fill="none" xmlns="http://www.w3.org/2000/svg">
<g id="Icons/Outline/Trash">
<g id="Shape">
<path d="M8.25 2.74998C8.25 2.24372 8.66041 1.83331 9.16667 1.83331H12.8333C13.3396 1.83331 13.75 2.24372 13.75 2.74998V3.66665H18.3333C18.8396 3.66665 19.25 4.07705 19.25 4.58331C19.25 5.08957 18.8396 5.49998 18.3333 5.49998H3.66667C3.16041 5.49998 2.75 5.08957 2.75 4.58331C2.75 4.07705 3.16041 3.66665 3.66667 3.66665H8.25V2.74998Z" fill="#F44336"/>
<path d="M5.5 7.33331C6.00626 7.33331 6.41667 7.74372 6.41667 8.24998V17.4166C6.41667 17.9229 6.82707 18.3333 7.33333 18.3333H14.6667C15.1729 18.3333 15.5833 17.9229 15.5833 17.4166V8.24998C15.5833 7.74372 15.9937 7.33331 16.5 7.33331C17.0063 7.33331 17.4167 7.74372 17.4167 8.24998V17.4166C17.4167 18.9354 16.1855 20.1666 14.6667 20.1666H7.33333C5.81455 20.1666 4.58333 18.9354 4.58333 17.4166V8.24998C4.58333 7.74372 4.99374 7.33331 5.5 7.33331Z" fill="#F44336"/>
<path d="M8.25 10.0833C8.25 9.57705 8.66041 9.16665 9.16667 9.16665C9.67293 9.16665 10.0833 9.57705 10.0833 10.0833V15.5833C10.0833 16.0896 9.67293 16.5 9.16667 16.5C8.66041 16.5 8.25 16.0896 8.25 15.5833V10.0833Z" fill="#F44336"/>
<path d="M12.8333 9.16665C12.3271 9.16665 11.9167 9.57705 11.9167 10.0833V15.5833C11.9167 16.0896 12.3271 16.5 12.8333 16.5C13.3396 16.5 13.75 16.0896 13.75 15.5833V10.0833C13.75 9.57705 13.3396 9.16665 12.8333 9.16665Z" fill="#F44336"/>
</g>
</g>
</svg>
