<svg width="20" height="20" viewBox="0 0 20 20" fill="none" xmlns="http://www.w3.org/2000/svg">
<g id="user">
<path id="Ellipse 255 (Stroke)" fill-rule="evenodd" clip-rule="evenodd" d="M6.15472 13.0798C5.16553 13.5744 4.79166 14.142 4.79166 14.5832C4.79166 15.0243 5.16553 15.592 6.15472 16.0865C7.10652 16.5624 8.46516 16.8748 10 16.8748C11.5348 16.8748 12.8935 16.5624 13.8453 16.0865C14.8345 15.592 15.2083 15.0243 15.2083 14.5832C15.2083 14.142 14.8345 13.5744 13.8453 13.0798C12.8935 12.6039 11.5348 12.2915 10 12.2915C8.46516 12.2915 7.10652 12.6039 6.15472 13.0798ZM5.5957 11.9618C6.75515 11.382 8.31318 11.0415 10 11.0415C11.6868 11.0415 13.2448 11.382 14.4043 11.9618C15.5264 12.5228 16.4583 13.4135 16.4583 14.5832C16.4583 15.7529 15.5264 16.6435 14.4043 17.2046C13.2448 17.7843 11.6868 18.1248 10 18.1248C8.31318 18.1248 6.75515 17.7843 5.5957 17.2046C4.47363 16.6435 3.54166 15.7529 3.54166 14.5832C3.54166 13.4135 4.47363 12.5228 5.5957 11.9618Z" fill="white"/>
<path id="Ellipse 257 (Stroke)" fill-rule="evenodd" clip-rule="evenodd" d="M10 3.125C8.50423 3.125 7.29166 4.33756 7.29166 5.83333C7.29166 7.3291 8.50423 8.54167 10 8.54167C11.4958 8.54167 12.7083 7.3291 12.7083 5.83333C12.7083 4.33756 11.4958 3.125 10 3.125ZM6.04166 5.83333C6.04166 3.64721 7.81387 1.875 10 1.875C12.1861 1.875 13.9583 3.64721 13.9583 5.83333C13.9583 8.01946 12.1861 9.79167 10 9.79167C7.81387 9.79167 6.04166 8.01946 6.04166 5.83333Z" fill="white"/>
</g>
</svg>
