<svg width="12" height="10" viewBox="0 0 12 10" fill="none" xmlns="http://www.w3.org/2000/svg">
<g id="Video Slash">
<g id="Vector">
<path d="M4.48322 0.625C3.79736 0.624998 3.25964 0.624996 2.82747 0.660306C2.3874 0.696261 2.02384 0.770689 1.69478 0.938356C1.15381 1.21399 0.713992 1.65381 0.438356 2.19478C0.270689 2.52384 0.196261 2.8874 0.160306 3.32747C0.124996 3.75964 0.124998 4.29736 0.125 4.98322V5.01678C0.124998 5.70264 0.124996 6.24036 0.160306 6.67253C0.196261 7.1126 0.270689 7.47616 0.438356 7.80522C0.450027 7.82813 0.461992 7.85085 0.474246 7.87339C0.585355 8.07773 0.859216 8.09568 1.02369 7.93121L1.05178 7.90312C1.1665 7.7884 1.18027 7.60929 1.10661 7.46473C1.00179 7.25902 0.939981 7.00515 0.907815 6.61146C0.875292 6.21339 0.875 5.70625 0.875 5C0.875 4.29375 0.875292 3.78661 0.907815 3.38854C0.939981 2.99485 1.00179 2.74098 1.10661 2.53527C1.31034 2.13543 1.63543 1.81034 2.03527 1.60661C2.24098 1.50179 2.49485 1.43998 2.88854 1.40782C3.28661 1.37529 3.79375 1.375 4.5 1.375C5.20625 1.375 5.71339 1.37529 6.11146 1.40782C6.50515 1.43998 6.75902 1.50179 6.96473 1.60661C7.10929 1.68027 7.2884 1.6665 7.40312 1.55178L7.43121 1.52369C7.59568 1.35922 7.57773 1.08535 7.37339 0.974246C7.35085 0.961992 7.32813 0.950027 7.30522 0.938356C6.97616 0.770689 6.6126 0.696261 6.17253 0.660306C5.74036 0.624996 5.20264 0.624998 4.51678 0.625H4.48322Z" fill="#424B5A"/>
<path fill-rule="evenodd" clip-rule="evenodd" d="M8.51377 2.1048C8.4016 1.90268 8.12964 1.88592 7.96619 2.04937L7.9511 2.06446C7.82798 2.18758 7.81434 2.38013 7.89339 2.53527C7.99821 2.74098 8.06002 2.99485 8.09219 3.38854C8.12471 3.78661 8.125 4.29375 8.125 5C8.125 5.70625 8.12471 6.21339 8.09219 6.61146C8.06002 7.00515 7.99821 7.25902 7.89339 7.46473C7.68966 7.86457 7.36457 8.18966 6.96473 8.39339C6.75902 8.49821 6.50515 8.56002 6.11146 8.59219C5.71339 8.62471 5.20625 8.625 4.5 8.625C3.79375 8.625 3.28661 8.62471 2.88854 8.59219C2.49485 8.56002 2.24098 8.49821 2.03527 8.39339C1.88013 8.31434 1.68758 8.32798 1.56446 8.4511L1.54937 8.46619C1.38592 8.62964 1.40268 8.90159 1.60479 9.01377C1.63446 9.03024 1.66446 9.0462 1.69478 9.06164C2.02384 9.22931 2.3874 9.30374 2.82747 9.33969C3.25964 9.375 3.79734 9.375 4.48319 9.375H4.51679C5.20263 9.375 5.74037 9.375 6.17253 9.33969C6.6126 9.30374 6.97616 9.22931 7.30522 9.06164C7.84619 8.78601 8.28601 8.34619 8.56164 7.80522C8.60277 7.72451 8.69884 7.68527 8.7819 7.72144C9.29721 7.94586 9.72576 8.12643 10.0795 8.22239C10.4919 8.33428 10.8937 8.35733 11.2529 8.12231C11.612 7.8873 11.7518 7.50991 11.8144 7.08717C11.875 6.67782 11.875 6.13787 11.875 5.47509V4.52491C11.875 3.86213 11.875 3.32218 11.8144 2.91283C11.7518 2.49009 11.612 2.1127 11.2529 1.87769C10.8937 1.64267 10.4919 1.66572 10.0795 1.77761C9.72576 1.87357 9.2972 2.05414 8.7819 2.27856C8.69884 2.31473 8.60277 2.27549 8.56164 2.19478C8.5462 2.16446 8.53024 2.13446 8.51377 2.1048ZM8.84934 6.93253C8.82864 6.92349 8.81641 6.90187 8.81909 6.87944C8.82711 6.81234 8.8339 6.74343 8.83969 6.67253C8.875 6.24037 8.875 5.70266 8.875 5.01681V4.98321C8.875 4.29737 8.875 3.75964 8.83969 3.32747C8.8339 3.25657 8.82711 3.18766 8.81909 3.12056C8.81641 3.09813 8.82864 3.07651 8.84934 3.06747C9.49268 2.78635 9.93648 2.59351 10.2758 2.50145C10.6085 2.41121 10.7489 2.44422 10.8422 2.50527C10.9355 2.56632 11.022 2.68179 11.0725 3.02272C11.124 3.37056 11.125 3.85444 11.125 4.55652V5.44348C11.125 6.14556 11.124 6.62944 11.0725 6.97728C11.022 7.31821 10.9355 7.43368 10.8422 7.49473C10.7489 7.55578 10.6085 7.58879 10.2758 7.49855C9.93648 7.40649 9.49268 7.21364 8.84934 6.93253Z" fill="#424B5A"/>
</g>
<path id="Vector_2" d="M9.48528 1L1 9.48528M4.50005 3.5H2.50005" stroke="#424B5A" stroke-linecap="round"/>
</g>
</svg>
