<svg width="56" height="18" viewBox="0 0 56 18" fill="none" xmlns="http://www.w3.org/2000/svg">
<path d="M5.82955 6.45455C5.77841 6.02273 5.57102 5.6875 5.20739 5.44886C4.84375 5.21023 4.39773 5.09091 3.86932 5.09091C3.48295 5.09091 3.14489 5.15341 2.85511 5.27841C2.56818 5.40341 2.34375 5.57528 2.18182 5.79403C2.02273 6.01278 1.94318 6.26136 1.94318 6.53977C1.94318 6.77273 1.99858 6.97301 2.10938 7.14062C2.22301 7.3054 2.3679 7.44318 2.54403 7.55398C2.72017 7.66193 2.90483 7.75142 3.09801 7.82244C3.29119 7.89062 3.46875 7.94602 3.63068 7.98864L4.51705 8.22727C4.74432 8.28693 4.99716 8.36932 5.27557 8.47443C5.55682 8.57955 5.82528 8.72301 6.08097 8.90483C6.33949 9.08381 6.55256 9.31392 6.72017 9.59517C6.88778 9.87642 6.97159 10.2216 6.97159 10.6307C6.97159 11.1023 6.84801 11.5284 6.60085 11.9091C6.35653 12.2898 5.99858 12.5923 5.52699 12.8168C5.05824 13.0412 4.48864 13.1534 3.81818 13.1534C3.19318 13.1534 2.65199 13.0526 2.1946 12.8509C1.74006 12.6491 1.3821 12.3679 1.12074 12.0071C0.862216 11.6463 0.715909 11.2273 0.681818 10.75H1.77273C1.80114 11.0795 1.91193 11.3523 2.10511 11.5682C2.30114 11.7812 2.5483 11.9403 2.84659 12.0455C3.14773 12.1477 3.47159 12.1989 3.81818 12.1989C4.22159 12.1989 4.58381 12.1335 4.90483 12.0028C5.22585 11.8693 5.48011 11.6847 5.66761 11.4489C5.85511 11.2102 5.94886 10.9318 5.94886 10.6136C5.94886 10.3239 5.8679 10.0881 5.70597 9.90625C5.54403 9.72443 5.33097 9.5767 5.06676 9.46307C4.80256 9.34943 4.51705 9.25 4.21023 9.16477L3.13636 8.85795C2.45455 8.66193 1.91477 8.3821 1.51705 8.01847C1.11932 7.65483 0.920455 7.17898 0.920455 6.59091C0.920455 6.10227 1.05256 5.67614 1.31676 5.3125C1.58381 4.94602 1.94176 4.66193 2.39062 4.46023C2.84233 4.25568 3.34659 4.15341 3.90341 4.15341C4.46591 4.15341 4.96591 4.25426 5.40341 4.45597C5.84091 4.65483 6.1875 4.92756 6.44318 5.27415C6.7017 5.62074 6.83807 6.0142 6.85227 6.45455H5.82955ZM11.0891 13.1364C10.4584 13.1364 9.9144 12.9972 9.45701 12.7188C9.00247 12.4375 8.65162 12.0455 8.40446 11.5426C8.16014 11.0369 8.03798 10.4489 8.03798 9.77841C8.03798 9.10795 8.16014 8.51705 8.40446 8.00568C8.65162 7.49148 8.99537 7.09091 9.43571 6.80398C9.87889 6.5142 10.3959 6.36932 10.9868 6.36932C11.3278 6.36932 11.6644 6.42614 11.9968 6.53977C12.3292 6.65341 12.6317 6.83807 12.9045 7.09375C13.1772 7.34659 13.3945 7.68182 13.5564 8.09943C13.7184 8.51705 13.7993 9.03125 13.7993 9.64205V10.0682H8.75389V9.19886H12.7766C12.7766 8.82955 12.7028 8.5 12.555 8.21023C12.4101 7.92045 12.2028 7.69176 11.9329 7.52415C11.6658 7.35653 11.3505 7.27273 10.9868 7.27273C10.5863 7.27273 10.2397 7.37216 9.94707 7.57102C9.6573 7.76705 9.43429 8.02273 9.27804 8.33807C9.12179 8.65341 9.04366 8.99148 9.04366 9.35227V9.93182C9.04366 10.4261 9.12889 10.8452 9.29934 11.1889C9.47264 11.5298 9.7127 11.7898 10.0195 11.9688C10.3263 12.1449 10.6829 12.233 11.0891 12.233C11.3533 12.233 11.592 12.196 11.805 12.1222C12.0209 12.0455 12.207 11.9318 12.3633 11.7812C12.5195 11.6278 12.6403 11.4375 12.7255 11.2102L13.6971 11.483C13.5948 11.8125 13.4229 12.1023 13.1814 12.3523C12.94 12.5994 12.6417 12.7926 12.2866 12.9318C11.9314 13.0682 11.5323 13.1364 11.0891 13.1364ZM17.8455 13.1364C17.2148 13.1364 16.6708 12.9972 16.2134 12.7188C15.7588 12.4375 15.408 12.0455 15.1608 11.5426C14.9165 11.0369 14.7944 10.4489 14.7944 9.77841C14.7944 9.10795 14.9165 8.51705 15.1608 8.00568C15.408 7.49148 15.7517 7.09091 16.1921 6.80398C16.6353 6.5142 17.1523 6.36932 17.7432 6.36932C18.0841 6.36932 18.4208 6.42614 18.7532 6.53977C19.0855 6.65341 19.3881 6.83807 19.6608 7.09375C19.9336 7.34659 20.1509 7.68182 20.3128 8.09943C20.4748 8.51705 20.5557 9.03125 20.5557 9.64205V10.0682H15.5103V9.19886H19.533C19.533 8.82955 19.4591 8.5 19.3114 8.21023C19.1665 7.92045 18.9591 7.69176 18.6892 7.52415C18.4222 7.35653 18.1069 7.27273 17.7432 7.27273C17.3427 7.27273 16.9961 7.37216 16.7034 7.57102C16.4137 7.76705 16.1907 8.02273 16.0344 8.33807C15.8782 8.65341 15.8 8.99148 15.8 9.35227V9.93182C15.8 10.4261 15.8853 10.8452 16.0557 11.1889C16.229 11.5298 16.4691 11.7898 16.7759 11.9688C17.0827 12.1449 17.4392 12.233 17.8455 12.233C18.1097 12.233 18.3483 12.196 18.5614 12.1222C18.7773 12.0455 18.9634 11.9318 19.1196 11.7812C19.2759 11.6278 19.3966 11.4375 19.4819 11.2102L20.4534 11.483C20.3512 11.8125 20.1793 12.1023 19.9378 12.3523C19.6963 12.5994 19.398 12.7926 19.0429 12.9318C18.6878 13.0682 18.2887 13.1364 17.8455 13.1364ZM25.4989 13H24.3909L27.5955 4.27273H28.6864L31.8909 13H30.783L28.175 5.65341H28.1068L25.4989 13ZM25.908 9.59091H30.3739V10.5284H25.908V9.59091ZM33.8916 4.27273V13H32.8859V4.27273H33.8916ZM36.5113 4.27273V13H35.5056V4.27273H36.5113Z" fill="url(#paint0_linear_1552_8013)"/>
<path fill-rule="evenodd" clip-rule="evenodd" d="M45.5722 5.11429C45.2977 5.29429 45.2532 5.62262 45.4728 5.84762L48.5487 8.99994L45.4728 12.1523C45.2532 12.3773 45.2977 12.7056 45.5722 12.8856C45.8466 13.0656 46.2471 13.0291 46.4666 12.8041L49.8605 9.32586C50.0465 9.13532 50.0465 8.86456 49.8605 8.67401L46.4666 5.19577C46.2471 4.97076 45.8466 4.93428 45.5722 5.11429Z" fill="url(#paint1_linear_1552_8013)"/>
<defs>
<linearGradient id="paint0_linear_1552_8013" x1="0" y1="0" x2="13.7131" y2="29.6737" gradientUnits="userSpaceOnUse">
<stop stop-color="#FF0092"/>
<stop offset="1" stop-color="#216DFD"/>
</linearGradient>
<linearGradient id="paint1_linear_1552_8013" x1="45.3333" y1="4.99994" x2="52.3854" y2="9.01334" gradientUnits="userSpaceOnUse">
<stop stop-color="#FF0092"/>
<stop offset="1" stop-color="#216DFD"/>
</linearGradient>
</defs>
</svg>
