<svg width="12" height="12" viewBox="0 0 12 12" fill="none" xmlns="http://www.w3.org/2000/svg">
<path d="M10.5 5C10.5 7.39902 8.38581 9.56313 7.05571 10.6873C6.43904 11.2084 5.56096 11.2084 4.94429 10.6873C3.61419 9.56313 1.5 7.39902 1.5 5C1.5 3.80653 1.97411 2.66193 2.81802 1.81802C3.66193 0.974106 4.80653 0.5 6 0.5C7.19347 0.5 8.33807 0.974106 9.18198 1.81802C10.0259 2.66193 10.5 3.80653 10.5 5Z" fill="#716E90"/>
<path d="M6 6.5C6.82843 6.5 7.5 5.82843 7.5 5C7.5 4.17157 6.82843 3.5 6 3.5C5.17157 3.5 4.5 4.17157 4.5 5C4.5 5.82843 5.17157 6.5 6 6.5Z" fill="white"/>
</svg>
