<svg width="13" height="13" viewBox="0 0 13 13" fill="none" xmlns="http://www.w3.org/2000/svg">
<path d="M6.27294 1.12029C6.38538 0.906466 6.69154 0.906466 6.80399 1.12029L8.4642 4.27744C8.50762 4.36003 8.58701 4.4177 8.67898 4.43349L12.1946 5.03683C12.4327 5.07769 12.5274 5.36887 12.3587 5.54189L9.86915 8.09645C9.80402 8.16327 9.7737 8.2566 9.78711 8.34894L10.2997 11.879C10.3344 12.1181 10.0867 12.298 9.87006 12.1911L6.6712 10.6128C6.58752 10.5715 6.4894 10.5715 6.40572 10.6128L3.20686 12.1911C2.99021 12.298 2.74251 12.1181 2.77723 11.879L3.28982 8.34894C3.30323 8.2566 3.2729 8.16327 3.20778 8.09645L0.718188 5.54189C0.549572 5.36887 0.644182 5.07769 0.882292 5.03683L4.39795 4.43349C4.48991 4.4177 4.5693 4.36003 4.61273 4.27744L6.27294 1.12029Z" fill="#FFB600"/>
</svg>
