<svg width="16" height="14" viewBox="0 0 16 14" fill="none" xmlns="http://www.w3.org/2000/svg">
<path d="M14.6667 4.908C14.669 5.93383 14.2738 6.92066 13.564 7.66133C11.9367 9.34867 10.358 11.108 8.67067 12.7333C8.28333 13.1 7.66933 13.0867 7.29933 12.7033L2.436 7.662C0.966 6.138 0.966 3.678 2.436 2.15467C2.78343 1.79 3.20129 1.49968 3.66426 1.30132C4.12723 1.10295 4.62566 1.00067 5.12933 1.00067C5.63301 1.00067 6.13144 1.10295 6.59441 1.30132C7.05737 1.49968 7.47524 1.79 7.82267 2.15467L8 2.33733L8.17667 2.15467C8.5248 1.79086 8.94278 1.50108 9.40558 1.30267C9.86838 1.10426 10.3665 1.00132 10.87 1C11.8833 1 12.852 1.416 13.5633 2.15467C14.2733 2.89523 14.6688 3.88207 14.6667 4.908Z" stroke="white" stroke-linejoin="round"/>
</svg>
