<svg width="30" height="30" viewBox="0 0 30 30" fill="none" xmlns="http://www.w3.org/2000/svg">
<path d="M20.4567 8.02246C18.0942 8.02246 17.0958 9.14981 15.4505 9.14981C13.7636 9.14981 12.4768 8.03066 10.4296 8.03066C8.42567 8.03066 6.28875 9.2541 4.93172 11.3383C3.02625 14.2773 3.34969 19.8127 6.43582 24.5283C7.53973 26.2164 9.01395 28.1096 10.9475 28.1301H10.9827C12.6632 28.1301 13.1624 27.0297 15.4751 27.0168H15.5102C17.7884 27.0168 18.2454 28.1236 19.9188 28.1236H19.954C21.8876 28.1031 23.4409 26.0055 24.5448 24.3238C25.3393 23.1145 25.6347 22.5074 26.244 21.1393C21.7798 19.4447 21.0626 13.116 25.4776 10.6896C24.13 9.00215 22.2362 8.0248 20.4509 8.0248L20.4567 8.02246Z" fill="#37424D"/>
<path d="M19.9365 1.87598C18.5302 1.97148 16.8896 2.8668 15.9287 4.03574C15.0568 5.09512 14.3396 6.6666 14.6209 8.19062H14.7334C16.231 8.19062 17.7638 7.28887 18.6591 6.1334C19.5216 5.03359 20.1755 3.475 19.9365 1.87598Z" fill="#37424D"/>
</svg>
