<svg width="375" height="199" viewBox="0 0 375 199" fill="none" xmlns="http://www.w3.org/2000/svg">
<rect x="16" y="5" width="343" height="166" rx="20" fill="url(#paint0_linear_1362_7829)"/>
<mask id="mask0_1362_7829" style="mask-type:alpha" maskUnits="userSpaceOnUse" x="16" y="5" width="343" height="166">
<rect x="16" y="5" width="343" height="166" rx="20" fill="#FF8800"/>
</mask>
<g mask="url(#mask0_1362_7829)">
<rect opacity="0.2" width="114.679" height="119.472" rx="13" transform="matrix(0.937739 -0.34734 0.316357 0.94864 286.462 88.5171)" fill="white"/>
<rect opacity="0.2" width="114.679" height="119.472" rx="13" transform="matrix(0.937739 -0.34734 0.316357 0.94864 -87.6252 12.0693)" fill="white"/>
<path opacity="0.2" d="M149.677 45.4079L275.063 2.26978" stroke="white"/>
<path opacity="0.2" d="M172.475 48.1382L297.861 5" stroke="white"/>
<path opacity="0.2" d="M180.765 24.1118L306.151 -19.0264" stroke="white"/>
</g>
<path d="M44.8946 30.4375H42.406C42.3605 30.1155 42.2677 29.8295 42.1276 29.5795C41.9874 29.3258 41.8075 29.1098 41.5878 28.9318C41.3681 28.7538 41.1143 28.6174 40.8264 28.5227C40.5423 28.428 40.2336 28.3807 39.9003 28.3807C39.298 28.3807 38.7734 28.5303 38.3264 28.8295C37.8795 29.125 37.5329 29.5568 37.2867 30.125C37.0405 30.6894 36.9173 31.375 36.9173 32.1818C36.9173 33.0114 37.0405 33.7083 37.2867 34.2727C37.5367 34.8371 37.8852 35.2633 38.3321 35.5511C38.7791 35.839 39.2961 35.983 39.8833 35.983C40.2128 35.983 40.5177 35.9394 40.798 35.8523C41.0821 35.7652 41.334 35.6383 41.5537 35.4716C41.7734 35.3011 41.9552 35.0947 42.0992 34.8523C42.2469 34.6098 42.3492 34.3333 42.406 34.0227L44.8946 34.0341C44.8302 34.5682 44.6692 35.0833 44.4117 35.5795C44.1579 36.072 43.8151 36.5133 43.3833 36.9034C42.9552 37.2898 42.4439 37.5966 41.8492 37.8239C41.2583 38.0473 40.5897 38.1591 39.8435 38.1591C38.8056 38.1591 37.8776 37.9242 37.0594 37.4545C36.245 36.9848 35.6011 36.3049 35.1276 35.4148C34.6579 34.5246 34.423 33.447 34.423 32.1818C34.423 30.9129 34.6617 29.8333 35.1389 28.9432C35.6162 28.053 36.2639 27.375 37.0821 26.9091C37.9003 26.4394 38.8208 26.2045 39.8435 26.2045C40.5177 26.2045 41.1427 26.2992 41.7185 26.4886C42.298 26.678 42.8113 26.9545 43.2583 27.3182C43.7052 27.678 44.0689 28.1193 44.3492 28.642C44.6333 29.1648 44.8151 29.7633 44.8946 30.4375ZM46.4534 38V29.2727H48.8V30.7955H48.8909C49.05 30.2538 49.317 29.8447 49.692 29.5682C50.067 29.2879 50.4988 29.1477 50.9875 29.1477C51.1087 29.1477 51.2394 29.1553 51.3795 29.1705C51.5197 29.1856 51.6428 29.2064 51.7488 29.233V31.3807C51.6352 31.3466 51.478 31.3163 51.2772 31.2898C51.0765 31.2633 50.8928 31.25 50.7261 31.25C50.37 31.25 50.0519 31.3277 49.7716 31.483C49.495 31.6345 49.2753 31.8466 49.1125 32.1193C48.9534 32.392 48.8738 32.7064 48.8738 33.0625V38H46.4534ZM56.4113 38.1705C55.5135 38.1705 54.7408 37.9886 54.0931 37.625C53.4491 37.2576 52.9529 36.7386 52.6044 36.0682C52.256 35.3939 52.0817 34.5966 52.0817 33.6761C52.0817 32.7784 52.256 31.9905 52.6044 31.3125C52.9529 30.6345 53.4435 30.1061 54.076 29.7273C54.7124 29.3485 55.4586 29.1591 56.3147 29.1591C56.8904 29.1591 57.4264 29.2519 57.9226 29.4375C58.4226 29.6193 58.8582 29.8939 59.2295 30.2614C59.6045 30.6288 59.8961 31.0909 60.1045 31.6477C60.3128 32.2008 60.417 32.8485 60.417 33.5909V34.2557H53.0476V32.7557H58.1385C58.1385 32.4072 58.0628 32.0985 57.9113 31.8295C57.7598 31.5606 57.5495 31.3504 57.2806 31.1989C57.0154 31.0436 56.7067 30.9659 56.3545 30.9659C55.987 30.9659 55.6613 31.0511 55.3772 31.2216C55.0969 31.3883 54.8772 31.6136 54.7181 31.8977C54.559 32.178 54.4776 32.4905 54.4738 32.8352V34.2614C54.4738 34.6932 54.5533 35.0663 54.7124 35.3807C54.8753 35.6951 55.1044 35.9375 55.3999 36.108C55.6954 36.2784 56.0457 36.3636 56.451 36.3636C56.72 36.3636 56.9662 36.3258 57.1897 36.25C57.4132 36.1742 57.6045 36.0606 57.7635 35.9091C57.9226 35.7576 58.0438 35.572 58.1272 35.3523L60.3658 35.5C60.2522 36.0379 60.0192 36.5076 59.667 36.9091C59.3185 37.3068 58.8677 37.6174 58.3147 37.8409C57.7654 38.0606 57.131 38.1705 56.4113 38.1705ZM65.0524 38.142C64.3895 38.142 63.7891 37.9716 63.2513 37.6307C62.7172 37.286 62.2929 36.7803 61.9785 36.1136C61.6679 35.4432 61.5126 34.6212 61.5126 33.6477C61.5126 32.6477 61.6736 31.8163 61.9956 31.1534C62.3176 30.4867 62.7456 29.9886 63.2797 29.6591C63.8176 29.3258 64.4066 29.1591 65.0467 29.1591C65.5354 29.1591 65.9426 29.2424 66.2683 29.4091C66.5979 29.572 66.863 29.7765 67.0638 30.0227C67.2683 30.2652 67.4236 30.5038 67.5297 30.7386H67.6035V26.3636H70.0183V38H67.632V36.6023H67.5297C67.416 36.8447 67.2551 37.0852 67.0467 37.3239C66.8422 37.5587 66.5751 37.7538 66.2456 37.9091C65.9198 38.0644 65.5221 38.142 65.0524 38.142ZM65.8195 36.2159C66.2096 36.2159 66.5391 36.1098 66.8081 35.8977C67.0808 35.6818 67.2891 35.3807 67.4331 34.9943C67.5808 34.608 67.6547 34.1553 67.6547 33.6364C67.6547 33.1174 67.5827 32.6667 67.4388 32.2841C67.2948 31.9015 67.0865 31.6061 66.8138 31.3977C66.541 31.1894 66.2096 31.0852 65.8195 31.0852C65.4217 31.0852 65.0865 31.1932 64.8138 31.4091C64.541 31.625 64.3346 31.9242 64.1945 32.3068C64.0543 32.6894 63.9842 33.1326 63.9842 33.6364C63.9842 34.1439 64.0543 34.5928 64.1945 34.983C64.3384 35.3693 64.5448 35.6723 64.8138 35.892C65.0865 36.108 65.4217 36.2159 65.8195 36.2159ZM71.8484 38V29.2727H74.2688V38H71.8484ZM73.0643 28.1477C72.7044 28.1477 72.3957 28.0284 72.1381 27.7898C71.8844 27.5473 71.7575 27.2576 71.7575 26.9205C71.7575 26.5871 71.8844 26.3011 72.1381 26.0625C72.3957 25.8201 72.7044 25.6989 73.0643 25.6989C73.4241 25.6989 73.7309 25.8201 73.9847 26.0625C74.2423 26.3011 74.3711 26.5871 74.3711 26.9205C74.3711 27.2576 74.2423 27.5473 73.9847 27.7898C73.7309 28.0284 73.4241 28.1477 73.0643 28.1477ZM80.6898 29.2727V31.0909H75.4341V29.2727H80.6898ZM76.6273 27.1818H79.0477V35.3182C79.0477 35.5417 79.0818 35.7159 79.15 35.8409C79.2182 35.9621 79.3129 36.0473 79.4341 36.0966C79.5591 36.1458 79.703 36.1705 79.8659 36.1705C79.9796 36.1705 80.0932 36.161 80.2068 36.142C80.3205 36.1193 80.4076 36.1023 80.4682 36.0909L80.8489 37.892C80.7277 37.9299 80.5572 37.9735 80.3375 38.0227C80.1178 38.0758 79.8508 38.108 79.5364 38.1193C78.953 38.142 78.4417 38.0644 78.0023 37.8864C77.5667 37.7083 77.2277 37.4318 76.9852 37.0568C76.7428 36.6818 76.6235 36.2083 76.6273 35.6364V27.1818ZM95.9621 30.4375H93.4735C93.428 30.1155 93.3352 29.8295 93.1951 29.5795C93.0549 29.3258 92.875 29.1098 92.6553 28.9318C92.4356 28.7538 92.1818 28.6174 91.8939 28.5227C91.6098 28.428 91.3011 28.3807 90.9678 28.3807C90.3655 28.3807 89.8409 28.5303 89.3939 28.8295C88.947 29.125 88.6004 29.5568 88.3542 30.125C88.108 30.6894 87.9848 31.375 87.9848 32.1818C87.9848 33.0114 88.108 33.7083 88.3542 34.2727C88.6042 34.8371 88.9527 35.2633 89.3996 35.5511C89.8466 35.839 90.3636 35.983 90.9508 35.983C91.2803 35.983 91.5852 35.9394 91.8655 35.8523C92.1496 35.7652 92.4015 35.6383 92.6212 35.4716C92.8409 35.3011 93.0227 35.0947 93.1667 34.8523C93.3144 34.6098 93.4167 34.3333 93.4735 34.0227L95.9621 34.0341C95.8977 34.5682 95.7367 35.0833 95.4792 35.5795C95.2254 36.072 94.8826 36.5133 94.4508 36.9034C94.0227 37.2898 93.5114 37.5966 92.9167 37.8239C92.3258 38.0473 91.6572 38.1591 90.911 38.1591C89.8731 38.1591 88.9451 37.9242 88.1269 37.4545C87.3125 36.9848 86.6686 36.3049 86.1951 35.4148C85.7254 34.5246 85.4905 33.447 85.4905 32.1818C85.4905 30.9129 85.7292 29.8333 86.2064 28.9432C86.6837 28.053 87.3314 27.375 88.1496 26.9091C88.9678 26.4394 89.8883 26.2045 90.911 26.2045C91.5852 26.2045 92.2102 26.2992 92.786 26.4886C93.3655 26.678 93.8788 26.9545 94.3258 27.3182C94.7727 27.678 95.1364 28.1193 95.4167 28.642C95.7008 29.1648 95.8826 29.7633 95.9621 30.4375ZM100.01 38.1648C99.4527 38.1648 98.9565 38.0682 98.5209 37.875C98.0853 37.678 97.7406 37.3883 97.4868 37.0057C97.2368 36.6193 97.1118 36.1383 97.1118 35.5625C97.1118 35.0777 97.2008 34.6705 97.3788 34.3409C97.5569 34.0114 97.7993 33.7462 98.1061 33.5455C98.4129 33.3447 98.7614 33.1932 99.1516 33.0909C99.5455 32.9886 99.9584 32.9167 100.39 32.875C100.898 32.822 101.307 32.7727 101.617 32.7273C101.928 32.678 102.153 32.6061 102.294 32.5114C102.434 32.4167 102.504 32.2765 102.504 32.0909V32.0568C102.504 31.697 102.39 31.4186 102.163 31.2216C101.939 31.0246 101.621 30.9261 101.208 30.9261C100.773 30.9261 100.426 31.0227 100.169 31.2159C99.911 31.4053 99.7406 31.6439 99.6572 31.9318L97.4186 31.75C97.5322 31.2197 97.7557 30.7614 98.0891 30.375C98.4224 29.9848 98.8523 29.6856 99.3788 29.4773C99.9091 29.2652 100.523 29.1591 101.22 29.1591C101.705 29.1591 102.169 29.2159 102.612 29.3295C103.059 29.4432 103.455 29.6193 103.799 29.858C104.148 30.0966 104.422 30.4034 104.623 30.7784C104.824 31.1496 104.924 31.5947 104.924 32.1136V38H102.629V36.7898H102.561C102.42 37.0625 102.233 37.303 101.998 37.5114C101.763 37.7159 101.481 37.8769 101.152 37.9943C100.822 38.108 100.441 38.1648 100.01 38.1648ZM100.703 36.4943C101.059 36.4943 101.373 36.4242 101.646 36.2841C101.919 36.1402 102.133 35.947 102.288 35.7045C102.443 35.4621 102.521 35.1875 102.521 34.8807V33.9545C102.445 34.0038 102.341 34.0492 102.208 34.0909C102.08 34.1288 101.934 34.1648 101.771 34.1989C101.608 34.2292 101.445 34.2576 101.282 34.2841C101.119 34.3068 100.972 34.3277 100.839 34.3466C100.555 34.3883 100.307 34.4545 100.095 34.5455C99.8826 34.6364 99.7178 34.7595 99.6004 34.9148C99.483 35.0663 99.4243 35.2557 99.4243 35.483C99.4243 35.8125 99.5436 36.0644 99.7822 36.2386C100.025 36.4091 100.331 36.4943 100.703 36.4943ZM106.642 38V29.2727H108.989V30.7955H109.08C109.239 30.2538 109.506 29.8447 109.881 29.5682C110.256 29.2879 110.688 29.1477 111.176 29.1477C111.297 29.1477 111.428 29.1553 111.568 29.1705C111.708 29.1856 111.832 29.2064 111.938 29.233V31.3807C111.824 31.3466 111.667 31.3163 111.466 31.2898C111.265 31.2633 111.082 31.25 110.915 31.25C110.559 31.25 110.241 31.3277 109.96 31.483C109.684 31.6345 109.464 31.8466 109.301 32.1193C109.142 32.392 109.063 32.7064 109.063 33.0625V38H106.642ZM115.839 38.142C115.176 38.142 114.575 37.9716 114.038 37.6307C113.503 37.286 113.079 36.7803 112.765 36.1136C112.454 35.4432 112.299 34.6212 112.299 33.6477C112.299 32.6477 112.46 31.8163 112.782 31.1534C113.104 30.4867 113.532 29.9886 114.066 29.6591C114.604 29.3258 115.193 29.1591 115.833 29.1591C116.322 29.1591 116.729 29.2424 117.055 29.4091C117.384 29.572 117.649 29.7765 117.85 30.0227C118.055 30.2652 118.21 30.5038 118.316 30.7386H118.39V26.3636H120.805V38H118.418V36.6023H118.316C118.202 36.8447 118.041 37.0852 117.833 37.3239C117.628 37.5587 117.361 37.7538 117.032 37.9091C116.706 38.0644 116.308 38.142 115.839 38.142ZM116.606 36.2159C116.996 36.2159 117.325 36.1098 117.594 35.8977C117.867 35.6818 118.075 35.3807 118.219 34.9943C118.367 34.608 118.441 34.1553 118.441 33.6364C118.441 33.1174 118.369 32.6667 118.225 32.2841C118.081 31.9015 117.873 31.6061 117.6 31.3977C117.327 31.1894 116.996 31.0852 116.606 31.0852C116.208 31.0852 115.873 31.1932 115.6 31.4091C115.327 31.625 115.121 31.9242 114.981 32.3068C114.841 32.6894 114.77 33.1326 114.77 33.6364C114.77 34.1439 114.841 34.5928 114.981 34.983C115.125 35.3693 115.331 35.6723 115.6 35.892C115.873 36.108 116.208 36.2159 116.606 36.2159Z" fill="white"/>
<path d="M36.3548 85.2727L38.1162 88.4943L39.906 85.2727H42.0821L39.4514 89.6364L42.1276 94H39.9628L38.1162 90.858L36.2867 94H34.1048L36.7639 89.6364L34.173 85.2727H36.3548ZM45.1948 85.2727L46.9562 88.4943L48.746 85.2727H50.9221L48.2914 89.6364L50.9676 94H48.8028L46.9562 90.858L45.1267 94H42.9448L45.6039 89.6364L43.013 85.2727H45.1948ZM54.0348 85.2727L55.7962 88.4943L57.586 85.2727H59.7621L57.1314 89.6364L59.8076 94H57.6428L55.7962 90.858L53.9667 94H51.7848L54.4439 89.6364L51.853 85.2727H54.0348ZM62.8748 85.2727L64.6362 88.4943L66.426 85.2727H68.6021L65.9714 89.6364L68.6476 94H66.4828L64.6362 90.858L62.8067 94H60.6248L63.2839 89.6364L60.693 85.2727H62.8748ZM79.3323 85.2727L81.0937 88.4943L82.8835 85.2727H85.0596L82.4289 89.6364L85.1051 94H82.9403L81.0937 90.858L79.2642 94H77.0823L79.7414 89.6364L77.1505 85.2727H79.3323ZM88.1723 85.2727L89.9337 88.4943L91.7235 85.2727H93.8996L91.2689 89.6364L93.9451 94H91.7803L89.9337 90.858L88.1042 94H85.9223L88.5814 89.6364L85.9905 85.2727H88.1723ZM97.0123 85.2727L98.7737 88.4943L100.563 85.2727H102.74L100.109 89.6364L102.785 94H100.62L98.7737 90.858L96.9442 94H94.7623L97.4214 89.6364L94.8305 85.2727H97.0123ZM105.852 85.2727L107.614 88.4943L109.403 85.2727H111.58L108.949 89.6364L111.625 94H109.46L107.614 90.858L105.784 94H103.602L106.261 89.6364L103.671 85.2727H105.852ZM122.31 85.2727L124.071 88.4943L125.861 85.2727H128.037L125.406 89.6364L128.083 94H125.918L124.071 90.858L122.242 94H120.06L122.719 89.6364L120.128 85.2727H122.31ZM131.15 85.2727L132.911 88.4943L134.701 85.2727H136.877L134.246 89.6364L136.923 94H134.758L132.911 90.858L131.082 94H128.9L131.559 89.6364L128.968 85.2727H131.15ZM139.99 85.2727L141.751 88.4943L143.541 85.2727H145.717L143.086 89.6364L145.763 94H143.598L141.751 90.858L139.922 94H137.74L140.399 89.6364L137.808 85.2727H139.99ZM148.83 85.2727L150.591 88.4943L152.381 85.2727H154.557L151.926 89.6364L154.603 94H152.438L150.591 90.858L148.762 94H146.58L149.239 89.6364L146.648 85.2727H148.83ZM165.287 85.2727L167.049 88.4943L168.838 85.2727H171.015L168.384 89.6364L171.06 94H168.895L167.049 90.858L165.219 94H163.037L165.696 89.6364L163.106 85.2727H165.287ZM174.127 85.2727L175.889 88.4943L177.678 85.2727H179.855L177.224 89.6364L179.9 94H177.735L175.889 90.858L174.059 94H171.877L174.536 89.6364L171.946 85.2727H174.127ZM182.967 85.2727L184.729 88.4943L186.518 85.2727H188.695L186.064 89.6364L188.74 94H186.575L184.729 90.858L182.899 94H180.717L183.376 89.6364L180.786 85.2727H182.967ZM191.807 85.2727L193.569 88.4943L195.358 85.2727H197.535L194.904 89.6364L197.58 94H195.415L193.569 90.858L191.739 94H189.557L192.216 89.6364L189.626 85.2727H191.807Z" fill="white"/>
<path d="M36.3313 133.565H35.5558C35.5259 133.399 35.4704 133.253 35.3892 133.127C35.308 133.001 35.2086 132.894 35.0909 132.806C34.9733 132.719 34.8415 132.652 34.6957 132.608C34.5515 132.563 34.3982 132.54 34.2358 132.54C33.9425 132.54 33.6798 132.614 33.4478 132.762C33.2175 132.909 33.0352 133.125 32.9009 133.411C32.7684 133.696 32.7021 134.044 32.7021 134.455C32.7021 134.869 32.7684 135.219 32.9009 135.504C33.0352 135.789 33.2183 136.004 33.4503 136.15C33.6823 136.296 33.9433 136.369 34.2333 136.369C34.3941 136.369 34.5465 136.347 34.6907 136.304C34.8366 136.259 34.9683 136.194 35.086 136.108C35.2036 136.021 35.3031 135.916 35.3843 135.792C35.4671 135.666 35.5243 135.522 35.5558 135.359L36.3313 135.362C36.2899 135.612 36.2095 135.842 36.0902 136.053C35.9726 136.262 35.8209 136.442 35.6353 136.595C35.4514 136.746 35.2409 136.862 35.0039 136.945C34.7669 137.028 34.5084 137.07 34.2284 137.07C33.7875 137.07 33.3948 136.965 33.0501 136.756C32.7054 136.546 32.4336 136.245 32.2348 135.854C32.0375 135.463 31.9389 134.996 31.9389 134.455C31.9389 133.911 32.0384 133.444 32.2372 133.055C32.4361 132.664 32.7079 132.364 33.0526 132.155C33.3973 131.945 33.7892 131.839 34.2284 131.839C34.4985 131.839 34.7504 131.878 34.984 131.956C35.2194 132.033 35.4307 132.145 35.6179 132.294C35.8052 132.442 35.9601 132.623 36.0828 132.836C36.2054 133.048 36.2883 133.291 36.3313 133.565ZM38.232 137.085C37.99 137.085 37.7713 137.04 37.5757 136.95C37.3802 136.859 37.2252 136.727 37.1109 136.555C36.9982 136.383 36.9418 136.171 36.9418 135.921C36.9418 135.706 36.9833 135.528 37.0661 135.389C37.149 135.25 37.2608 135.14 37.4017 135.059C37.5426 134.977 37.7 134.916 37.874 134.875C38.048 134.833 38.2253 134.802 38.406 134.78C38.6347 134.754 38.8203 134.732 38.9628 134.716C39.1053 134.697 39.2089 134.668 39.2735 134.629C39.3381 134.589 39.3705 134.524 39.3705 134.435V134.417C39.3705 134.2 39.3091 134.032 39.1865 133.913C39.0655 133.793 38.8849 133.734 38.6446 133.734C38.3944 133.734 38.1972 133.789 38.053 133.9C37.9105 134.01 37.8119 134.131 37.7572 134.266L37.0587 134.107C37.1415 133.875 37.2625 133.687 37.4216 133.545C37.5823 133.401 37.7671 133.296 37.9759 133.232C38.1847 133.165 38.4043 133.132 38.6347 133.132C38.7871 133.132 38.9487 133.15 39.1194 133.187C39.2917 133.222 39.4525 133.286 39.6016 133.381C39.7524 133.475 39.8759 133.61 39.972 133.786C40.0681 133.96 40.1162 134.186 40.1162 134.464V137H39.3903V136.478H39.3605C39.3124 136.574 39.2404 136.669 39.1442 136.761C39.0481 136.854 38.9247 136.931 38.7739 136.993C38.6231 137.054 38.4424 137.085 38.232 137.085ZM38.3935 136.488C38.599 136.488 38.7747 136.447 38.9205 136.366C39.068 136.285 39.1799 136.179 39.2561 136.048C39.334 135.915 39.3729 135.774 39.3729 135.623V135.131C39.3464 135.157 39.295 135.182 39.2188 135.205C39.1442 135.227 39.0589 135.246 38.9628 135.262C38.8667 135.277 38.773 135.291 38.6819 135.305C38.5907 135.316 38.5145 135.326 38.4532 135.335C38.309 135.353 38.1773 135.383 38.058 135.426C37.9403 135.47 37.8458 135.532 37.7746 135.613C37.705 135.692 37.6702 135.799 37.6702 135.931C37.6702 136.115 37.7381 136.254 37.874 136.349C38.0099 136.442 38.1831 136.488 38.3935 136.488ZM41.0362 137V133.182H41.7546V133.788H41.7943C41.8639 133.583 41.9866 133.421 42.1622 133.304C42.3395 133.184 42.5401 133.125 42.7638 133.125C42.8102 133.125 42.8649 133.126 42.9278 133.13C42.9925 133.133 43.043 133.137 43.0795 133.142V133.853C43.0497 133.845 42.9966 133.836 42.9204 133.826C42.8442 133.814 42.7679 133.808 42.6917 133.808C42.516 133.808 42.3594 133.846 42.2219 133.92C42.086 133.993 41.9783 134.095 41.8987 134.226C41.8192 134.355 41.7794 134.503 41.7794 134.668V137H41.0362ZM44.9453 137.075C44.6371 137.075 44.362 136.996 44.12 136.838C43.8797 136.679 43.6908 136.453 43.5533 136.16C43.4174 135.865 43.3494 135.511 43.3494 135.098C43.3494 134.686 43.4182 134.333 43.5557 134.039C43.6949 133.746 43.8855 133.522 44.1275 133.366C44.3694 133.21 44.6437 133.132 44.9503 133.132C45.1872 133.132 45.3778 133.172 45.522 133.251C45.6678 133.329 45.7805 133.42 45.8601 133.525C45.9413 133.629 46.0042 133.721 46.049 133.801H46.0937V131.909H46.837V137H46.1111V136.406H46.049C46.0042 136.487 45.9396 136.58 45.8551 136.684C45.7722 136.789 45.6579 136.88 45.5121 136.958C45.3662 137.036 45.1773 137.075 44.9453 137.075ZM45.1094 136.441C45.3231 136.441 45.5038 136.384 45.6513 136.272C45.8004 136.157 45.9131 135.999 45.9893 135.797C46.0672 135.595 46.1062 135.359 46.1062 135.091C46.1062 134.826 46.068 134.594 45.9918 134.395C45.9156 134.196 45.8037 134.041 45.6562 133.93C45.5087 133.819 45.3265 133.763 45.1094 133.763C44.8856 133.763 44.6992 133.821 44.5501 133.938C44.4009 134.054 44.2882 134.212 44.212 134.412C44.1374 134.613 44.1001 134.839 44.1001 135.091C44.1001 135.346 44.1382 135.576 44.2145 135.779C44.2907 135.983 44.4034 136.145 44.5525 136.264C44.7033 136.382 44.889 136.441 45.1094 136.441ZM49.67 137V131.909H50.4381V134.121H52.9761V131.909H53.7467V137H52.9761V134.78H50.4381V137H49.67ZM56.344 137.077C55.986 137.077 55.6736 136.995 55.4068 136.831C55.14 136.667 54.9329 136.437 54.7854 136.142C54.6379 135.847 54.5641 135.503 54.5641 135.108C54.5641 134.712 54.6379 134.366 54.7854 134.069C54.9329 133.773 55.14 133.542 55.4068 133.378C55.6736 133.214 55.986 133.132 56.344 133.132C56.7019 133.132 57.0143 133.214 57.2811 133.378C57.5479 133.542 57.7551 133.773 57.9026 134.069C58.05 134.366 58.1238 134.712 58.1238 135.108C58.1238 135.503 58.05 135.847 57.9026 136.142C57.7551 136.437 57.5479 136.667 57.2811 136.831C57.0143 136.995 56.7019 137.077 56.344 137.077ZM56.3464 136.453C56.5785 136.453 56.7707 136.392 56.9232 136.269C57.0756 136.147 57.1883 135.983 57.2612 135.779C57.3358 135.576 57.3731 135.351 57.3731 135.106C57.3731 134.862 57.3358 134.638 57.2612 134.435C57.1883 134.229 57.0756 134.064 56.9232 133.94C56.7707 133.816 56.5785 133.754 56.3464 133.754C56.1128 133.754 55.9189 133.816 55.7648 133.94C55.6123 134.064 55.4988 134.229 55.4242 134.435C55.3513 134.638 55.3148 134.862 55.3148 135.106C55.3148 135.351 55.3513 135.576 55.4242 135.779C55.4988 135.983 55.6123 136.147 55.7648 136.269C55.9189 136.392 56.1128 136.453 56.3464 136.453ZM59.6267 131.909V137H58.8834V131.909H59.6267ZM61.9859 137.075C61.6777 137.075 61.4026 136.996 61.1606 136.838C60.9203 136.679 60.7314 136.453 60.5939 136.16C60.458 135.865 60.39 135.511 60.39 135.098C60.39 134.686 60.4588 134.333 60.5964 134.039C60.7356 133.746 60.9261 133.522 61.1681 133.366C61.41 133.21 61.6843 133.132 61.9909 133.132C62.2279 133.132 62.4184 133.172 62.5626 133.251C62.7085 133.329 62.8211 133.42 62.9007 133.525C62.9819 133.629 63.0449 133.721 63.0896 133.801H63.1344V131.909H63.8776V137H63.1518V136.406H63.0896C63.0449 136.487 62.9802 136.58 62.8957 136.684C62.8129 136.789 62.6985 136.88 62.5527 136.958C62.4068 137.036 62.2179 137.075 61.9859 137.075ZM62.15 136.441C62.3638 136.441 62.5444 136.384 62.6919 136.272C62.841 136.157 62.9537 135.999 63.03 135.797C63.1078 135.595 63.1468 135.359 63.1468 135.091C63.1468 134.826 63.1087 134.594 63.0324 134.395C62.9562 134.196 62.8443 134.041 62.6969 133.93C62.5494 133.819 62.3671 133.763 62.15 133.763C61.9263 133.763 61.7398 133.821 61.5907 133.938C61.4415 134.054 61.3288 134.212 61.2526 134.412C61.178 134.613 61.1408 134.839 61.1408 135.091C61.1408 135.346 61.1789 135.576 61.2551 135.779C61.3313 135.983 61.444 136.145 61.5932 136.264C61.744 136.382 61.9296 136.441 62.15 136.441ZM66.514 137.077C66.1378 137.077 65.8139 136.997 65.5421 136.836C65.272 136.674 65.0631 136.446 64.9157 136.152C64.7698 135.857 64.6969 135.512 64.6969 135.116C64.6969 134.725 64.7698 134.38 64.9157 134.082C65.0631 133.783 65.2686 133.551 65.5321 133.383C65.7973 133.216 66.1072 133.132 66.4618 133.132C66.6773 133.132 66.8861 133.168 67.0882 133.239C67.2904 133.31 67.4719 133.422 67.6326 133.575C67.7934 133.727 67.9202 133.925 68.013 134.169C68.1058 134.411 68.1522 134.705 68.1522 135.051V135.315H65.117V134.758H67.4238C67.4238 134.562 67.384 134.389 67.3045 134.238C67.225 134.086 67.1131 133.966 66.9689 133.878C66.8264 133.79 66.659 133.746 66.4668 133.746C66.258 133.746 66.0757 133.797 65.9199 133.9C65.7658 134.001 65.6465 134.134 65.562 134.298C65.4791 134.46 65.4377 134.637 65.4377 134.827V135.262C65.4377 135.518 65.4824 135.735 65.5719 135.914C65.663 136.093 65.7898 136.229 65.9522 136.324C66.1146 136.417 66.3044 136.463 66.5215 136.463C66.6623 136.463 66.7908 136.443 66.9068 136.403C67.0228 136.362 67.123 136.301 67.2076 136.219C67.2921 136.138 67.3567 136.038 67.4014 135.919L68.1049 136.045C68.0486 136.253 67.9475 136.434 67.8017 136.59C67.6575 136.744 67.476 136.864 67.2573 136.95C67.0402 137.035 66.7924 137.077 66.514 137.077ZM68.9068 137V133.182H69.6252V133.788H69.665C69.7346 133.583 69.8572 133.421 70.0329 133.304C70.2102 133.184 70.4107 133.125 70.6344 133.125C70.6809 133.125 70.7355 133.126 70.7985 133.13C70.8631 133.133 70.9137 133.137 70.9501 133.142V133.853C70.9203 133.845 70.8673 133.836 70.7911 133.826C70.7148 133.814 70.6386 133.808 70.5624 133.808C70.3867 133.808 70.2301 133.846 70.0925 133.92C69.9567 133.993 69.8489 134.095 69.7694 134.226C69.6898 134.355 69.6501 134.503 69.6501 134.668V137H68.9068ZM77.4746 131.909V137H76.7686L74.1809 133.266H74.1337V137H73.3655V131.909H74.0765L76.6667 135.648H76.7139V131.909H77.4746ZM79.5765 137.085C79.3346 137.085 79.1158 137.04 78.9203 136.95C78.7247 136.859 78.5698 136.727 78.4554 136.555C78.3427 136.383 78.2864 136.171 78.2864 135.921C78.2864 135.706 78.3278 135.528 78.4107 135.389C78.4935 135.25 78.6054 135.14 78.7463 135.059C78.8871 134.977 79.0446 134.916 79.2186 134.875C79.3926 134.833 79.5699 134.802 79.7505 134.78C79.9792 134.754 80.1648 134.732 80.3074 134.716C80.4499 134.697 80.5534 134.668 80.6181 134.629C80.6827 134.589 80.715 134.524 80.715 134.435V134.417C80.715 134.2 80.6537 134.032 80.5311 133.913C80.4101 133.793 80.2295 133.734 79.9892 133.734C79.7389 133.734 79.5417 133.789 79.3976 133.9C79.255 134.01 79.1564 134.131 79.1017 134.266L78.4032 134.107C78.4861 133.875 78.6071 133.687 78.7662 133.545C78.9269 133.401 79.1117 133.296 79.3205 133.232C79.5293 133.165 79.7489 133.132 79.9792 133.132C80.1317 133.132 80.2933 133.15 80.464 133.187C80.6363 133.222 80.7971 133.286 80.9462 133.381C81.097 133.475 81.2205 133.61 81.3166 133.786C81.4127 133.96 81.4608 134.186 81.4608 134.464V137H80.7349V136.478H80.7051C80.657 136.574 80.5849 136.669 80.4888 136.761C80.3927 136.854 80.2692 136.931 80.1184 136.993C79.9676 137.054 79.787 137.085 79.5765 137.085ZM79.7381 136.488C79.9436 136.488 80.1193 136.447 80.2651 136.366C80.4126 136.285 80.5244 136.179 80.6007 136.048C80.6786 135.915 80.7175 135.774 80.7175 135.623V135.131C80.691 135.157 80.6396 135.182 80.5634 135.205C80.4888 135.227 80.4035 135.246 80.3074 135.262C80.2112 135.277 80.1176 135.291 80.0265 135.305C79.9353 135.316 79.8591 135.326 79.7978 135.335C79.6536 135.353 79.5218 135.383 79.4025 135.426C79.2849 135.47 79.1904 135.532 79.1191 135.613C79.0495 135.692 79.0147 135.799 79.0147 135.931C79.0147 136.115 79.0827 136.254 79.2186 136.349C79.3545 136.442 79.5276 136.488 79.7381 136.488ZM82.3807 137V133.182H83.0942V133.803H83.1414C83.2209 133.593 83.351 133.429 83.5317 133.311C83.7123 133.192 83.9286 133.132 84.1804 133.132C84.4357 133.132 84.6494 133.192 84.8218 133.311C84.9958 133.43 85.1242 133.594 85.2071 133.803H85.2469C85.338 133.599 85.483 133.437 85.6819 133.316C85.8807 133.193 86.1177 133.132 86.3928 133.132C86.7392 133.132 87.0217 133.241 87.2405 133.458C87.4609 133.675 87.5711 134.002 87.5711 134.44V137H86.8278V134.509C86.8278 134.251 86.7574 134.063 86.6165 133.947C86.4757 133.831 86.3075 133.773 86.1119 133.773C85.87 133.773 85.6819 133.848 85.5476 133.997C85.4134 134.145 85.3463 134.334 85.3463 134.566V137H84.6055V134.462C84.6055 134.255 84.5409 134.088 84.4116 133.962C84.2824 133.836 84.1142 133.773 83.907 133.773C83.7661 133.773 83.6361 133.811 83.5167 133.885C83.3991 133.958 83.3038 134.06 83.2309 134.191C83.1596 134.322 83.124 134.474 83.124 134.646V137H82.3807ZM90.1428 137.077C89.7667 137.077 89.4427 136.997 89.1709 136.836C88.9008 136.674 88.692 136.446 88.5445 136.152C88.3986 135.857 88.3257 135.512 88.3257 135.116C88.3257 134.725 88.3986 134.38 88.5445 134.082C88.692 133.783 88.8975 133.551 89.161 133.383C89.4261 133.216 89.736 133.132 90.0906 133.132C90.3061 133.132 90.5149 133.168 90.7171 133.239C90.9192 133.31 91.1007 133.422 91.2615 133.575C91.4222 133.727 91.549 133.925 91.6418 134.169C91.7346 134.411 91.781 134.705 91.781 135.051V135.315H88.7458V134.758H91.0527C91.0527 134.562 91.0129 134.389 90.9333 134.238C90.8538 134.086 90.7419 133.966 90.5978 133.878C90.4552 133.79 90.2879 133.746 90.0956 133.746C89.8868 133.746 89.7045 133.797 89.5487 133.9C89.3946 134.001 89.2753 134.134 89.1908 134.298C89.1079 134.46 89.0665 134.637 89.0665 134.827V135.262C89.0665 135.518 89.1112 135.735 89.2007 135.914C89.2919 136.093 89.4187 136.229 89.5811 136.324C89.7435 136.417 89.9332 136.463 90.1503 136.463C90.2912 136.463 90.4196 136.443 90.5356 136.403C90.6516 136.362 90.7519 136.301 90.8364 136.219C90.9209 136.138 90.9855 136.038 91.0303 135.919L91.7338 136.045C91.6774 136.253 91.5763 136.434 91.4305 136.59C91.2863 136.744 91.1049 136.864 90.8861 136.95C90.669 137.035 90.4213 137.077 90.1428 137.077Z" fill="white"/>
<path d="M294.275 137V131.909H297.467V132.57H295.043V134.121H297.3V134.78H295.043V136.339H297.497V137H294.275ZM298.95 133.182L299.793 134.668L300.643 133.182H301.456L300.265 135.091L301.466 137H300.653L299.793 135.573L298.935 137H298.12L299.308 135.091L298.135 133.182H298.95ZM302.149 138.432V133.182H302.875V133.801H302.937C302.98 133.721 303.042 133.629 303.123 133.525C303.204 133.42 303.317 133.329 303.461 133.251C303.605 133.172 303.796 133.132 304.033 133.132C304.341 133.132 304.616 133.21 304.858 133.366C305.1 133.522 305.29 133.746 305.427 134.039C305.567 134.333 305.636 134.686 305.636 135.098C305.636 135.511 305.568 135.865 305.43 136.16C305.292 136.453 305.103 136.679 304.863 136.838C304.623 136.996 304.349 137.075 304.04 137.075C303.808 137.075 303.619 137.036 303.471 136.958C303.325 136.88 303.211 136.789 303.128 136.684C303.045 136.58 302.981 136.487 302.937 136.406H302.892V138.432H302.149ZM302.877 135.091C302.877 135.359 302.916 135.595 302.994 135.797C303.072 135.999 303.184 136.157 303.332 136.272C303.479 136.384 303.66 136.441 303.874 136.441C304.096 136.441 304.282 136.382 304.431 136.264C304.58 136.145 304.693 135.983 304.769 135.779C304.847 135.576 304.886 135.346 304.886 135.091C304.886 134.839 304.847 134.613 304.771 134.412C304.697 134.212 304.584 134.054 304.433 133.938C304.284 133.821 304.098 133.763 303.874 133.763C303.658 133.763 303.476 133.819 303.327 133.93C303.179 134.041 303.068 134.196 302.991 134.395C302.915 134.594 302.877 134.826 302.877 135.091ZM306.399 137V133.182H307.142V137H306.399ZM306.774 132.593C306.645 132.593 306.534 132.55 306.441 132.463C306.35 132.376 306.305 132.271 306.305 132.15C306.305 132.028 306.35 131.923 306.441 131.837C306.534 131.749 306.645 131.705 306.774 131.705C306.904 131.705 307.014 131.749 307.105 131.837C307.198 131.923 307.244 132.028 307.244 132.15C307.244 132.271 307.198 132.376 307.105 132.463C307.014 132.55 306.904 132.593 306.774 132.593ZM308.072 137V133.182H308.791V133.788H308.83C308.9 133.583 309.023 133.421 309.198 133.304C309.376 133.184 309.576 133.125 309.8 133.125C309.846 133.125 309.901 133.126 309.964 133.13C310.029 133.133 310.079 133.137 310.116 133.142V133.853C310.086 133.845 310.033 133.836 309.956 133.826C309.88 133.814 309.804 133.808 309.728 133.808C309.552 133.808 309.395 133.846 309.258 133.92C309.122 133.993 309.014 134.095 308.935 134.226C308.855 134.355 308.815 134.503 308.815 134.668V137H308.072ZM311.275 138.432C311.164 138.432 311.063 138.423 310.971 138.404C310.88 138.388 310.812 138.37 310.768 138.35L310.947 137.741C311.082 137.777 311.203 137.793 311.31 137.788C311.416 137.783 311.509 137.743 311.59 137.669C311.673 137.594 311.746 137.472 311.809 137.303L311.901 137.05L310.504 133.182H311.3L312.267 136.145H312.306L313.273 133.182H314.071L312.498 137.51C312.425 137.708 312.332 137.877 312.219 138.014C312.107 138.153 311.972 138.258 311.817 138.327C311.661 138.397 311.48 138.432 311.275 138.432ZM318.19 137H316.542V131.909H318.242C318.741 131.909 319.169 132.011 319.527 132.215C319.885 132.417 320.16 132.708 320.35 133.087C320.542 133.465 320.639 133.918 320.639 134.447C320.639 134.977 320.542 135.433 320.348 135.814C320.155 136.195 319.877 136.489 319.512 136.694C319.148 136.898 318.707 137 318.19 137ZM317.31 136.329H318.148C318.536 136.329 318.858 136.256 319.115 136.11C319.372 135.963 319.564 135.75 319.691 135.471C319.819 135.191 319.883 134.85 319.883 134.447C319.883 134.048 319.819 133.709 319.691 133.43C319.566 133.152 319.377 132.941 319.127 132.797C318.877 132.652 318.566 132.58 318.195 132.58H317.31V136.329ZM322.575 137.085C322.333 137.085 322.115 137.04 321.919 136.95C321.723 136.859 321.568 136.727 321.454 136.555C321.341 136.383 321.285 136.171 321.285 135.921C321.285 135.706 321.327 135.528 321.409 135.389C321.492 135.25 321.604 135.14 321.745 135.059C321.886 134.977 322.043 134.916 322.217 134.875C322.391 134.833 322.569 134.802 322.749 134.78C322.978 134.754 323.164 134.732 323.306 134.716C323.449 134.697 323.552 134.668 323.617 134.629C323.681 134.589 323.714 134.524 323.714 134.435V134.417C323.714 134.2 323.652 134.032 323.53 133.913C323.409 133.793 323.228 133.734 322.988 133.734C322.738 133.734 322.54 133.789 322.396 133.9C322.254 134.01 322.155 134.131 322.1 134.266L321.402 134.107C321.485 133.875 321.606 133.687 321.765 133.545C321.926 133.401 322.11 133.296 322.319 133.232C322.528 133.165 322.748 133.132 322.978 133.132C323.13 133.132 323.292 133.15 323.463 133.187C323.635 133.222 323.796 133.286 323.945 133.381C324.096 133.475 324.219 133.61 324.315 133.786C324.411 133.96 324.459 134.186 324.459 134.464V137H323.734V136.478H323.704C323.656 136.574 323.584 136.669 323.487 136.761C323.391 136.854 323.268 136.931 323.117 136.993C322.966 137.054 322.786 137.085 322.575 137.085ZM322.737 136.488C322.942 136.488 323.118 136.447 323.264 136.366C323.411 136.285 323.523 136.179 323.599 136.048C323.677 135.915 323.716 135.774 323.716 135.623V135.131C323.69 135.157 323.638 135.182 323.562 135.205C323.487 135.227 323.402 135.246 323.306 135.262C323.21 135.277 323.116 135.291 323.025 135.305C322.934 135.316 322.858 135.326 322.796 135.335C322.652 135.353 322.521 135.383 322.401 135.426C322.284 135.47 322.189 135.532 322.118 135.613C322.048 135.692 322.013 135.799 322.013 135.931C322.013 136.115 322.081 136.254 322.217 136.349C322.353 136.442 322.526 136.488 322.737 136.488ZM327.162 133.182V133.778H325.076V133.182H327.162ZM325.635 132.267H326.379V135.879C326.379 136.023 326.4 136.132 326.443 136.205C326.486 136.276 326.542 136.325 326.61 136.351C326.679 136.376 326.755 136.388 326.836 136.388C326.896 136.388 326.948 136.384 326.993 136.376C327.037 136.368 327.072 136.361 327.097 136.356L327.231 136.97C327.188 136.987 327.127 137.003 327.047 137.02C326.968 137.038 326.868 137.048 326.749 137.05C326.554 137.053 326.371 137.018 326.202 136.945C326.033 136.872 325.896 136.76 325.792 136.607C325.688 136.455 325.635 136.263 325.635 136.033V132.267ZM329.518 137.077C329.142 137.077 328.818 136.997 328.547 136.836C328.276 136.674 328.068 136.446 327.92 136.152C327.774 135.857 327.701 135.512 327.701 135.116C327.701 134.725 327.774 134.38 327.92 134.082C328.068 133.783 328.273 133.551 328.537 133.383C328.802 133.216 329.112 133.132 329.466 133.132C329.682 133.132 329.891 133.168 330.093 133.239C330.295 133.31 330.476 133.422 330.637 133.575C330.798 133.727 330.925 133.925 331.017 134.169C331.11 134.411 331.157 134.705 331.157 135.051V135.315H328.121V134.758H330.428C330.428 134.562 330.389 134.389 330.309 134.238C330.229 134.086 330.118 133.966 329.973 133.878C329.831 133.79 329.663 133.746 329.471 133.746C329.262 133.746 329.08 133.797 328.924 133.9C328.77 134.001 328.651 134.134 328.566 134.298C328.484 134.46 328.442 134.637 328.442 134.827V135.262C328.442 135.518 328.487 135.735 328.576 135.914C328.668 136.093 328.794 136.229 328.957 136.324C329.119 136.417 329.309 136.463 329.526 136.463C329.667 136.463 329.795 136.443 329.911 136.403C330.027 136.362 330.128 136.301 330.212 136.219C330.297 136.138 330.361 136.038 330.406 135.919L331.109 136.045C331.053 136.253 330.952 136.434 330.806 136.59C330.662 136.744 330.48 136.864 330.262 136.95C330.045 137.035 329.797 137.077 329.518 137.077Z" fill="white"/>
<path d="M31.7816 144.727H33.0281L34.9279 148.033H35.0061L36.9059 144.727H38.1524L35.5139 149.145V152H34.4201V149.145L31.7816 144.727ZM40.4023 152.11C39.891 152.11 39.4447 151.993 39.0636 151.759C38.6824 151.524 38.3865 151.196 38.1758 150.775C37.9651 150.353 37.8597 149.861 37.8597 149.298C37.8597 148.732 37.9651 148.237 38.1758 147.813C38.3865 147.389 38.6824 147.06 39.0636 146.826C39.4447 146.592 39.891 146.474 40.4023 146.474C40.9137 146.474 41.36 146.592 41.7411 146.826C42.1223 147.06 42.4182 147.389 42.6289 147.813C42.8396 148.237 42.9449 148.732 42.9449 149.298C42.9449 149.861 42.8396 150.353 42.6289 150.775C42.4182 151.196 42.1223 151.524 41.7411 151.759C41.36 151.993 40.9137 152.11 40.4023 152.11ZM40.4059 151.219C40.7373 151.219 41.0119 151.131 41.2297 150.956C41.4475 150.781 41.6085 150.548 41.7127 150.256C41.8192 149.965 41.8725 149.644 41.8725 149.294C41.8725 148.946 41.8192 148.626 41.7127 148.335C41.6085 148.042 41.4475 147.806 41.2297 147.629C41.0119 147.451 40.7373 147.362 40.4059 147.362C40.0721 147.362 39.7951 147.451 39.5749 147.629C39.3571 147.806 39.1949 148.042 39.0884 148.335C38.9842 148.626 38.9322 148.946 38.9322 149.294C38.9322 149.644 38.9842 149.965 39.0884 150.256C39.1949 150.548 39.3571 150.781 39.5749 150.956C39.7951 151.131 40.0721 151.219 40.4059 151.219ZM47.4854 149.738V146.545H48.5507V152H47.5067V151.055H47.4499C47.3244 151.347 47.1232 151.589 46.8462 151.783C46.5716 151.975 46.2295 152.071 45.8199 152.071C45.4695 152.071 45.1594 151.994 44.8895 151.84C44.622 151.684 44.4113 151.453 44.2574 151.148C44.1059 150.842 44.0301 150.465 44.0301 150.015V146.545H45.0919V149.887C45.0919 150.259 45.1949 150.555 45.4009 150.775C45.6068 150.995 45.8744 151.105 46.2034 151.105C46.4023 151.105 46.6 151.055 46.7965 150.956C46.9953 150.857 47.1599 150.706 47.2901 150.505C47.4227 150.304 47.4878 150.048 47.4854 149.738ZM49.8774 152V146.545H50.9037V147.412H50.9605C51.0599 147.118 51.2351 146.888 51.4861 146.719C51.7394 146.549 52.0258 146.464 52.3454 146.464C52.4117 146.464 52.4899 146.466 52.5798 146.471C52.6721 146.476 52.7444 146.482 52.7964 146.489V147.504C52.7538 147.492 52.6781 147.479 52.5692 147.465C52.4603 147.449 52.3514 147.44 52.2425 147.44C51.9915 147.44 51.7678 147.494 51.5713 147.6C51.3772 147.704 51.2233 147.85 51.1096 148.037C50.996 148.222 50.9392 148.432 50.9392 148.669V152H49.8774ZM62.117 144.727V152H61.1085L57.4118 146.666H57.3443V152H56.247V144.727H57.2626L60.9629 150.068H61.0304V144.727H62.117ZM65.1198 152.121C64.7742 152.121 64.4617 152.057 64.1823 151.929C63.903 151.799 63.6816 151.611 63.5183 151.364C63.3573 151.118 63.2768 150.816 63.2768 150.459C63.2768 150.151 63.336 149.898 63.4544 149.699C63.5727 149.5 63.7325 149.343 63.9338 149.227C64.135 149.111 64.3599 149.023 64.6085 148.964C64.8571 148.905 65.1104 148.86 65.3684 148.829C65.6951 148.791 65.9603 148.76 66.1639 148.737C66.3675 148.71 66.5154 148.669 66.6078 148.612C66.7001 148.555 66.7463 148.463 66.7463 148.335V148.31C66.7463 148 66.6587 147.76 66.4835 147.589C66.3107 147.419 66.0526 147.334 65.7093 147.334C65.3518 147.334 65.0701 147.413 64.8642 147.572C64.6606 147.728 64.5197 147.902 64.4416 148.094L63.4437 147.866C63.5621 147.535 63.7349 147.268 63.9622 147.064C64.1918 146.858 64.4558 146.709 64.7541 146.616C65.0524 146.522 65.366 146.474 65.6951 146.474C65.9129 146.474 66.1437 146.5 66.3876 146.553C66.6338 146.602 66.8634 146.695 67.0765 146.83C67.2919 146.964 67.4683 147.157 67.6056 147.408C67.7429 147.657 67.8116 147.98 67.8116 148.378V152H66.7747V151.254H66.7321C66.6634 151.392 66.5604 151.527 66.4231 151.659C66.2858 151.792 66.1094 151.902 65.894 151.989C65.6785 152.077 65.4205 152.121 65.1198 152.121ZM65.3507 151.268C65.6442 151.268 65.8952 151.21 66.1035 151.094C66.3142 150.978 66.474 150.827 66.5829 150.64C66.6942 150.451 66.7498 150.248 66.7498 150.033V149.33C66.7119 149.367 66.6385 149.403 66.5296 149.436C66.4231 149.467 66.3012 149.494 66.1639 149.518C66.0266 149.539 65.8928 149.559 65.7626 149.578C65.6324 149.595 65.5235 149.609 65.4359 149.621C65.2299 149.647 65.0417 149.691 64.8713 149.752C64.7032 149.814 64.5682 149.902 64.4664 150.018C64.367 150.132 64.3173 150.284 64.3173 150.473C64.3173 150.736 64.4143 150.935 64.6085 151.07C64.8026 151.202 65.05 151.268 65.3507 151.268ZM69.1258 152V146.545H70.145V147.433H70.2125C70.3261 147.133 70.512 146.898 70.77 146.73C71.0281 146.56 71.337 146.474 71.6969 146.474C72.0614 146.474 72.3668 146.56 72.6131 146.73C72.8616 146.901 73.0451 147.135 73.1635 147.433H73.2203C73.3505 147.142 73.5577 146.91 73.8417 146.737C74.1258 146.562 74.4644 146.474 74.8574 146.474C75.3522 146.474 75.7558 146.629 76.0683 146.94C76.3832 147.25 76.5406 147.717 76.5406 148.342V152H75.4788V148.442C75.4788 148.072 75.3782 147.805 75.177 147.639C74.9757 147.473 74.7354 147.391 74.4561 147.391C74.1104 147.391 73.8417 147.497 73.65 147.71C73.4582 147.921 73.3623 148.192 73.3623 148.523V152H72.3041V148.374C72.3041 148.078 72.2118 147.84 72.0271 147.661C71.8425 147.481 71.6022 147.391 71.3062 147.391C71.105 147.391 70.9192 147.444 70.7487 147.55C70.5806 147.655 70.4445 147.8 70.3403 147.987C70.2385 148.174 70.1876 148.391 70.1876 148.637V152H69.1258ZM80.2146 152.11C79.6772 152.11 79.2143 151.995 78.8261 151.766C78.4402 151.534 78.1419 151.208 77.9312 150.789C77.7229 150.368 77.6187 149.874 77.6187 149.308C77.6187 148.75 77.7229 148.257 77.9312 147.831C78.1419 147.405 78.4355 147.072 78.8119 146.833C79.1907 146.594 79.6334 146.474 80.14 146.474C80.4478 146.474 80.7461 146.525 81.0349 146.627C81.3237 146.729 81.583 146.889 81.8126 147.107C82.0422 147.324 82.2233 147.607 82.3559 147.955C82.4885 148.301 82.5548 148.721 82.5548 149.216V149.592H78.2188V148.797H81.5143C81.5143 148.518 81.4575 148.27 81.3438 148.055C81.2302 147.837 81.0704 147.665 80.8644 147.54C80.6608 147.414 80.4217 147.352 80.1471 147.352C79.8488 147.352 79.5884 147.425 79.3659 147.572C79.1457 147.716 78.9752 147.906 78.8545 148.14C78.7361 148.372 78.6769 148.624 78.6769 148.896V149.518C78.6769 149.882 78.7409 150.192 78.8687 150.448C78.9989 150.704 79.18 150.899 79.412 151.034C79.644 151.167 79.9151 151.233 80.2252 151.233C80.4265 151.233 80.6099 151.205 80.7757 151.148C80.9414 151.089 81.0846 151.001 81.2053 150.885C81.3261 150.769 81.4184 150.626 81.4823 150.455L82.4873 150.636C82.4068 150.932 82.2624 151.192 82.0541 151.414C81.8481 151.634 81.5889 151.806 81.2764 151.929C80.9662 152.05 80.6123 152.11 80.2146 152.11Z" fill="white"/>
<path d="M296.947 152.121C296.386 152.118 295.907 151.97 295.509 151.677C295.111 151.383 294.807 150.956 294.597 150.395C294.386 149.834 294.28 149.158 294.28 148.367C294.28 147.579 294.386 146.905 294.597 146.347C294.81 145.788 295.115 145.362 295.513 145.068C295.913 144.775 296.391 144.628 296.947 144.628C297.504 144.628 297.981 144.776 298.378 145.072C298.776 145.365 299.08 145.791 299.291 146.35C299.504 146.906 299.611 147.579 299.611 148.367C299.611 149.16 299.505 149.837 299.295 150.398C299.084 150.957 298.78 151.384 298.382 151.68C297.984 151.974 297.506 152.121 296.947 152.121ZM296.947 151.173C297.44 151.173 297.824 150.932 298.101 150.452C298.381 149.971 298.521 149.276 298.521 148.367C298.521 147.763 298.457 147.253 298.329 146.837C298.203 146.418 298.022 146.1 297.785 145.885C297.551 145.667 297.272 145.558 296.947 145.558C296.457 145.558 296.073 145.8 295.793 146.283C295.514 146.766 295.373 147.46 295.371 148.367C295.371 148.973 295.433 149.486 295.559 149.905C295.687 150.321 295.868 150.638 296.102 150.853C296.337 151.066 296.618 151.173 296.947 151.173ZM303.302 152.121C302.741 152.118 302.262 151.97 301.864 151.677C301.466 151.383 301.162 150.956 300.952 150.395C300.741 149.834 300.636 149.158 300.636 148.367C300.636 147.579 300.741 146.905 300.952 146.347C301.165 145.788 301.47 145.362 301.868 145.068C302.268 144.775 302.746 144.628 303.302 144.628C303.859 144.628 304.336 144.776 304.734 145.072C305.131 145.365 305.435 145.791 305.646 146.35C305.859 146.906 305.966 147.579 305.966 148.367C305.966 149.16 305.86 149.837 305.65 150.398C305.439 150.957 305.135 151.384 304.737 151.68C304.339 151.974 303.861 152.121 303.302 152.121ZM303.302 151.173C303.795 151.173 304.18 150.932 304.457 150.452C304.736 149.971 304.876 149.276 304.876 148.367C304.876 147.763 304.812 147.253 304.684 146.837C304.558 146.418 304.377 146.1 304.141 145.885C303.906 145.667 303.627 145.558 303.302 145.558C302.812 145.558 302.428 145.8 302.148 146.283C301.869 146.766 301.728 147.46 301.726 148.367C301.726 148.973 301.788 149.486 301.914 149.905C302.042 150.321 302.223 150.638 302.457 150.853C302.692 151.066 302.973 151.173 303.302 151.173ZM309.91 144.386L307.566 153.094H306.618L308.961 144.386H309.91ZM313.229 152.121C312.668 152.118 312.189 151.97 311.791 151.677C311.393 151.383 311.089 150.956 310.879 150.395C310.668 149.834 310.562 149.158 310.562 148.367C310.562 147.579 310.668 146.905 310.879 146.347C311.092 145.788 311.397 145.362 311.795 145.068C312.195 144.775 312.673 144.628 313.229 144.628C313.786 144.628 314.263 144.776 314.66 145.072C315.058 145.365 315.362 145.791 315.573 146.35C315.786 146.906 315.893 147.579 315.893 148.367C315.893 149.16 315.787 149.837 315.577 150.398C315.366 150.957 315.062 151.384 314.664 151.68C314.266 151.974 313.788 152.121 313.229 152.121ZM313.229 151.173C313.722 151.173 314.107 150.932 314.384 150.452C314.663 149.971 314.803 149.276 314.803 148.367C314.803 147.763 314.739 147.253 314.611 146.837C314.485 146.418 314.304 146.1 314.067 145.885C313.833 145.667 313.554 145.558 313.229 145.558C312.739 145.558 312.355 145.8 312.075 146.283C311.796 146.766 311.655 147.46 311.653 148.367C311.653 148.973 311.715 149.486 311.841 149.905C311.969 150.321 312.15 150.638 312.384 150.853C312.619 151.066 312.9 151.173 313.229 151.173ZM319.584 152.121C319.023 152.118 318.544 151.97 318.146 151.677C317.749 151.383 317.444 150.956 317.234 150.395C317.023 149.834 316.918 149.158 316.918 148.367C316.918 147.579 317.023 146.905 317.234 146.347C317.447 145.788 317.752 145.362 318.15 145.068C318.55 144.775 319.028 144.628 319.584 144.628C320.141 144.628 320.618 144.776 321.016 145.072C321.413 145.365 321.718 145.791 321.928 146.35C322.141 146.906 322.248 147.579 322.248 148.367C322.248 149.16 322.142 149.837 321.932 150.398C321.721 150.957 321.417 151.384 321.019 151.68C320.621 151.974 320.143 152.121 319.584 152.121ZM319.584 151.173C320.077 151.173 320.462 150.932 320.739 150.452C321.018 149.971 321.158 149.276 321.158 148.367C321.158 147.763 321.094 147.253 320.966 146.837C320.84 146.418 320.659 146.1 320.423 145.885C320.188 145.667 319.909 145.558 319.584 145.558C319.094 145.558 318.71 145.8 318.43 146.283C318.151 146.766 318.01 147.46 318.008 148.367C318.008 148.973 318.07 149.486 318.196 149.905C318.324 150.321 318.505 150.638 318.739 150.853C318.974 151.066 319.255 151.173 319.584 151.173Z" fill="white"/>
<path d="M333.973 33.6172C334.296 31.5852 333.973 30.2305 332.842 28.98C331.604 27.5731 329.344 27 326.437 27H318.094C317.502 27 317.017 27.4168 316.909 27.99L313.411 49.3527C313.357 49.7695 313.68 50.1343 314.11 50.1343H319.278L318.901 52.3226C318.847 52.6874 319.116 53 319.547 53H323.907C324.445 53 324.876 52.6353 324.93 52.1663L325.845 46.6433C325.899 46.1743 326.383 45.8096 326.868 45.8096H327.514C331.712 45.8096 335.049 44.1423 336.018 39.3487C336.395 37.3687 336.234 35.6493 335.157 34.503C334.834 34.1383 334.457 33.8778 333.973 33.6172Z" fill="#009CDE"/>
<path d="M333.973 33.6172C334.296 31.5852 333.973 30.2305 332.842 28.98C331.604 27.5731 329.344 27 326.437 27H318.094C317.502 27 317.017 27.4168 316.909 27.99L313.411 49.3527C313.357 49.7695 313.68 50.1343 314.11 50.1343H319.278L320.516 42.4228C320.624 41.8497 321.108 41.4329 321.7 41.4329H324.176C329.021 41.4329 332.789 39.5571 333.865 34.0341C333.919 33.9299 333.919 33.7735 333.973 33.6172Z" fill="#012169"/>
<path d="M321.969 33.6693C322.023 33.3046 322.508 32.8357 322.992 32.8357H329.559C330.313 32.8357 331.066 32.8878 331.712 32.992C332.304 33.0962 333.381 33.3567 333.919 33.6693C334.242 31.6373 333.919 30.2826 332.789 29.0321C331.604 27.5731 329.344 27 326.437 27H318.094C317.502 27 317.017 27.4168 316.909 27.99L313.411 49.3527C313.357 49.7695 313.68 50.1343 314.11 50.1343H319.278L321.969 33.6693Z" fill="#003087"/>
<defs>
<linearGradient id="paint0_linear_1362_7829" x1="16" y1="5" x2="144.22" y2="276.561" gradientUnits="userSpaceOnUse">
<stop stop-color="#FF0092"/>
<stop offset="1" stop-color="#216DFD"/>
</linearGradient>
</defs>
</svg>
