<svg width="17" height="17" viewBox="0 0 17 17" fill="none" xmlns="http://www.w3.org/2000/svg">
<path fill-rule="evenodd" clip-rule="evenodd" d="M7.40883 8.39818L3.60194 4.59129C3.46529 4.45464 3.46529 4.23305 3.60194 4.0964L4.09686 3.60152C4.23351 3.46486 4.45506 3.46486 4.59174 3.60152L8.3986 7.40841L12.2055 3.60152C12.3421 3.46486 12.5637 3.46486 12.7004 3.60152L13.1953 4.0964C13.332 4.23305 13.332 4.45464 13.1953 4.59129L9.38841 8.39818L13.1953 12.2051C13.332 12.3417 13.332 12.5633 13.1953 12.7L12.7004 13.1949C12.5637 13.3315 12.3421 13.3315 12.2055 13.1949L8.3986 9.38796L4.59174 13.1949C4.45506 13.3315 4.23351 13.3315 4.09686 13.1949L3.60194 12.7C3.46529 12.5633 3.46529 12.3417 3.60194 12.2051L7.40883 8.39818Z" fill="#151923"/>
</svg>
