<svg width="48" height="48" viewBox="0 0 48 48" fill="none" xmlns="http://www.w3.org/2000/svg">
<rect opacity="0.1" width="48" height="48" rx="12" fill="url(#paint0_linear_1760_4904)"/>
<path opacity="0.4" fill-rule="evenodd" clip-rule="evenodd" d="M20.1838 15.3517H27.8621V13.564H20.1838V15.3517ZM18.4371 13.6374V13.6463C17.8377 13.7008 17.2447 13.8198 16.6679 13.9989V13.9923C16.6507 13.9995 16.6346 14.005 16.6191 14.0104C16.5987 14.0173 16.5795 14.024 16.5606 14.0334C16.5145 14.0446 16.4695 14.0612 16.4266 14.0824C16.3001 14.1235 16.1736 14.1725 16.0545 14.2226C16.0229 14.2348 15.9913 14.249 15.9596 14.2632C15.928 14.2773 15.8964 14.2915 15.8648 14.3038C15.8213 14.3243 15.776 14.3469 15.7307 14.3694C15.6854 14.3919 15.6401 14.4145 15.5967 14.435L15.3822 14.5585C15.3426 14.5787 15.3059 14.6025 15.2684 14.6267C15.2461 14.6411 15.2236 14.6557 15.2 14.6698C14.8772 14.8778 14.5781 15.1214 14.3079 15.3985L14.2918 15.4151C14.2563 15.4565 14.2209 15.4967 14.1861 15.5362C14.1272 15.6031 14.0697 15.6685 14.0151 15.7355L13.999 15.7511C13.122 16.9615 12.6823 18.4534 12.7585 19.9652V20.4447H14.4901V19.9608C14.4901 17.8537 15.1614 16.5421 16.655 15.8702C17.2254 15.6287 17.828 15.4797 18.4414 15.4252H18.4574V13.6452L18.4371 13.6374ZM33.9975 15.7289L34.005 15.7444C34.881 16.9559 35.3185 18.4489 35.2413 19.9608V20.4447H33.5107V19.9485C33.5471 19.0563 33.3681 18.1686 32.9885 17.3665C32.6239 16.68 32.0406 16.1472 31.3362 15.8579C30.7754 15.6165 30.1814 15.4663 29.5755 15.4129V13.6418C30.1749 13.6975 30.7679 13.8154 31.3458 13.9945V13.9856C31.3783 14.0003 31.4031 14.0091 31.4456 14.0241L31.453 14.0268C31.4728 14.0337 31.4912 14.0407 31.5094 14.0476C31.5347 14.0572 31.5596 14.0666 31.5871 14.0757C31.7056 14.1146 31.8165 14.1604 31.9306 14.2076L31.9506 14.2159C32.0032 14.2344 32.0528 14.2573 32.0975 14.278C32.1119 14.2846 32.1259 14.2911 32.1393 14.2971C32.2336 14.3383 32.3301 14.3872 32.4073 14.4284C32.4588 14.4551 32.509 14.4837 32.556 14.5105C32.5814 14.525 32.606 14.539 32.6293 14.5519C32.6677 14.5731 32.7011 14.5958 32.7332 14.6176C32.7567 14.6335 32.7795 14.649 32.803 14.6631C33.1268 14.8722 33.4292 15.117 33.7026 15.3918L33.7123 15.4085C33.813 15.5097 33.9085 15.6165 33.9975 15.7289Z" fill="url(#paint1_linear_1760_4904)"/>
<path d="M29.625 12.3962V16.3356C29.625 16.8319 29.2222 17.234 28.725 17.234C28.2277 17.234 27.825 16.8319 27.825 16.3356V12.4051C27.8205 11.9088 28.221 11.5034 28.7182 11.5C29.2155 11.4967 29.6216 11.8953 29.625 12.3917V12.3962Z" fill="url(#paint2_linear_1760_4904)"/>
<path d="M20.175 12.4104V16.34C20.175 16.8386 19.7718 17.2428 19.2744 17.2428C18.7771 17.2428 18.375 16.8386 18.375 16.34V12.4104C18.375 11.9119 18.7771 11.5088 19.2744 11.5088C19.7718 11.5088 20.175 11.9119 20.175 12.4104Z" fill="url(#paint3_linear_1760_4904)"/>
<path fill-rule="evenodd" clip-rule="evenodd" d="M12.75 30.1376V20.4448H35.25V30.1376C35.25 34.3644 32.8895 36.4999 28.2114 36.4999H19.7779C15.1105 36.4999 12.75 34.3644 12.75 30.1376ZM17.8251 25.8334C17.8251 26.4198 18.2865 26.8956 18.8552 26.8956C19.4346 26.8956 19.8959 26.4088 19.8852 25.8223C19.8852 25.2359 19.4238 24.7601 18.8659 24.7601H18.8552C18.2865 24.7601 17.8251 25.247 17.8251 25.8334ZM22.9646 25.8334C22.9646 26.4198 23.4367 26.8956 24.0054 26.8956C24.574 26.8956 25.0354 26.4198 25.0354 25.8223C25.0354 25.247 24.574 24.7712 24.0054 24.7601H23.9946C23.426 24.7712 22.9646 25.247 22.9646 25.8334ZM29.1449 26.8956C28.5762 26.8956 28.1148 26.4198 28.1148 25.8334C28.1148 25.247 28.5655 24.7712 29.1449 24.7712C29.7135 24.7712 30.1749 25.247 30.1749 25.8334C30.1749 26.4198 29.7135 26.8956 29.1449 26.8956ZM29.1449 31.4322C28.5762 31.4322 28.1148 30.9564 28.1041 30.37C28.1041 29.7836 28.5655 29.3078 29.1341 29.3078H29.1449C29.7135 29.3078 30.1749 29.7836 30.1749 30.37C30.1749 30.9564 29.7135 31.4322 29.1449 31.4322ZM24.0054 31.4322C23.4367 31.4322 22.9646 30.9564 22.9646 30.37C22.9646 29.7836 23.426 29.3078 23.9946 29.2967H24.0054C24.574 29.3078 25.0247 29.7836 25.0354 30.3589C25.0354 30.9564 24.574 31.4322 24.0054 31.4322ZM18.8552 31.4322C18.2865 31.4322 17.8251 30.9564 17.8251 30.37C17.8144 29.7836 18.2758 29.2967 18.8552 29.2967C19.4238 29.2967 19.8852 29.7725 19.8852 30.3589C19.8852 30.9454 19.4238 31.4322 18.8552 31.4322Z" fill="url(#paint4_linear_1760_4904)"/>
<defs>
<linearGradient id="paint0_linear_1760_4904" x1="0" y1="0" x2="48" y2="49.2" gradientUnits="userSpaceOnUse">
<stop stop-color="#FF0092"/>
<stop offset="1" stop-color="#216DFD"/>
</linearGradient>
<linearGradient id="paint1_linear_1760_4904" x1="12.75" y1="13.564" x2="16.5213" y2="26.2045" gradientUnits="userSpaceOnUse">
<stop stop-color="#FF0092"/>
<stop offset="1" stop-color="#216DFD"/>
</linearGradient>
<linearGradient id="paint2_linear_1760_4904" x1="27.825" y1="11.5" x2="31.1698" y2="12.5763" gradientUnits="userSpaceOnUse">
<stop stop-color="#FF0092"/>
<stop offset="1" stop-color="#216DFD"/>
</linearGradient>
<linearGradient id="paint3_linear_1760_4904" x1="18.375" y1="11.5088" x2="21.7198" y2="12.585" gradientUnits="userSpaceOnUse">
<stop stop-color="#FF0092"/>
<stop offset="1" stop-color="#216DFD"/>
</linearGradient>
<linearGradient id="paint4_linear_1760_4904" x1="12.75" y1="20.4448" x2="27.8113" y2="42.0798" gradientUnits="userSpaceOnUse">
<stop stop-color="#FF0092"/>
<stop offset="1" stop-color="#216DFD"/>
</linearGradient>
</defs>
</svg>
