<svg width="42" height="42" viewBox="0 0 42 42" fill="none" xmlns="http://www.w3.org/2000/svg">
<g filter="url(#filter0_b_1303_22627)">
<rect width="42" height="42" rx="21" fill="white" fill-opacity="0.2"/>
<rect x="0.5" y="0.5" width="41" height="41" rx="20.5" stroke="white" stroke-opacity="0.15"/>
<g opacity="0.9">
<path d="M24.7502 18H26.6252C27.1225 18 27.5994 18.1975 27.951 18.5492C28.3027 18.9008 28.5002 19.3777 28.5002 19.875V28.875C28.5002 29.3723 28.3027 29.8492 27.951 30.2008C27.5994 30.5525 27.1225 30.75 26.6252 30.75H15.3752C14.8779 30.75 14.401 30.5525 14.0494 30.2008C13.6978 29.8492 13.5002 29.3723 13.5002 28.875V19.875C13.5002 19.3777 13.6978 18.9008 14.0494 18.5492C14.401 18.1975 14.8779 18 15.3752 18H17.2502M24.7502 15L21.0002 11.25M21.0002 11.25L17.2502 15M21.0002 11.25V24.0469" stroke="white" stroke-width="1.5" stroke-linecap="round" stroke-linejoin="round"/>
</g>
</g>
<defs>
<filter id="filter0_b_1303_22627" x="-12" y="-12" width="66" height="66" filterUnits="userSpaceOnUse" color-interpolation-filters="sRGB">
<feFlood flood-opacity="0" result="BackgroundImageFix"/>
<feGaussianBlur in="BackgroundImageFix" stdDeviation="6"/>
<feComposite in2="SourceAlpha" operator="in" result="effect1_backgroundBlur_1303_22627"/>
<feBlend mode="normal" in="SourceGraphic" in2="effect1_backgroundBlur_1303_22627" result="shape"/>
</filter>
</defs>
</svg>
