<svg width="42" height="42" viewBox="0 0 42 42" fill="none" xmlns="http://www.w3.org/2000/svg">
<rect width="42" height="42" fill="#F5F5F5"/>
<g id="Paymet Method // Subtotal // Coupon Code" clip-path="url(#clip0_957_2776)">
<rect width="375" height="812" transform="translate(-25 -443)" fill="#F7F9FF"/>
<g id="Group 1171274941">
<rect id="Rectangle 19260" x="-9" y="-7" width="343" height="56" rx="10" fill="white"/>
</g>
<g id="google">
<path id="bg" d="M42 0H0V42H42V0Z" fill="white"/>
<path id="google_2" fill-rule="evenodd" clip-rule="evenodd" d="M31.2768 21.2386C31.2768 20.494 31.21 19.7781 31.0859 19.0908H21.1968V23.1524H26.8477C26.6043 24.4649 25.8645 25.577 24.7525 26.3215V28.9561H28.1459C30.1313 27.1281 31.2768 24.4363 31.2768 21.2386Z" fill="#4285F4"/>
<path id="google_3" fill-rule="evenodd" clip-rule="evenodd" d="M21.1964 31.5001C24.0314 31.5001 26.4083 30.5599 28.1455 28.9563L24.7521 26.3217C23.8119 26.9517 22.6092 27.324 21.1964 27.324C18.4617 27.324 16.1469 25.4769 15.3212 22.9951H11.8132V25.7156C13.541 29.1472 17.0919 31.5001 21.1964 31.5001Z" fill="#34A853"/>
<path id="google_4" fill-rule="evenodd" clip-rule="evenodd" d="M15.3216 22.9951C15.1116 22.3651 14.9922 21.6922 14.9922 21.0001C14.9922 20.3081 15.1116 19.6351 15.3216 19.0051V16.2847H11.8136C11.1025 17.7022 10.6968 19.3058 10.6968 21.0001C10.6968 22.6945 11.1025 24.2981 11.8136 25.7156L15.3216 22.9951Z" fill="#FBBC05"/>
<path id="google_5" fill-rule="evenodd" clip-rule="evenodd" d="M21.1964 14.6761C22.738 14.6761 24.1221 15.2059 25.2103 16.2464L28.2219 13.2348C26.4035 11.5405 24.0267 10.5 21.1964 10.5C17.0919 10.5 13.541 12.853 11.8132 16.2846L15.3212 19.005C16.1469 16.5232 18.4617 14.6761 21.1964 14.6761Z" fill="#EA4335"/>
</g>
</g>
<defs>
<clipPath id="clip0_957_2776">
<rect width="375" height="812" fill="white" transform="translate(-25 -443)"/>
</clipPath>
</defs>
</svg>
