<svg width="14" height="14" viewBox="0 0 14 14" fill="none" xmlns="http://www.w3.org/2000/svg">
<path d="M7 0.583496C8.39239 0.583496 9.72774 1.13662 10.7123 2.12119C11.6969 3.10575 12.25 4.44111 12.25 5.8335C12.25 8.007 10.5933 10.2843 7.35 12.7168C7.24903 12.7926 7.12622 12.8335 7 12.8335C6.87378 12.8335 6.75097 12.7926 6.65 12.7168C3.40667 10.2843 1.75 8.007 1.75 5.8335C1.75 4.44111 2.30312 3.10575 3.28769 2.12119C4.27226 1.13662 5.60761 0.583496 7 0.583496ZM7 4.0835C6.53587 4.0835 6.09075 4.26787 5.76256 4.59606C5.43437 4.92425 5.25 5.36937 5.25 5.8335C5.25 6.29762 5.43437 6.74274 5.76256 7.07093C6.09075 7.39912 6.53587 7.5835 7 7.5835C7.46413 7.5835 7.90925 7.39912 8.23744 7.07093C8.56563 6.74274 8.75 6.29762 8.75 5.8335C8.75 5.36937 8.56563 4.92425 8.23744 4.59606C7.90925 4.26787 7.46413 4.0835 7 4.0835Z" fill="#025B8F"/>
</svg>
