<svg width="46" height="15" viewBox="0 0 46 15" fill="none" xmlns="http://www.w3.org/2000/svg">
<g clip-path="url(#clip0_1560_8351)">
<path d="M23.7901 4.77609C23.7639 6.85729 25.6342 8.01862 27.0431 8.70916C28.4907 9.41759 28.9769 9.87193 28.9712 10.5055C28.9604 11.4751 27.8165 11.9031 26.7461 11.9197C24.8786 11.9488 23.7928 11.4126 22.9296 11.0071L22.2568 14.1731C23.1229 14.5745 24.7266 14.9246 26.3896 14.9399C30.2933 14.9399 32.8472 13.0019 32.8611 9.99699C32.8763 6.18338 27.6164 5.97229 27.6523 4.26771C27.6647 3.75084 28.1551 3.19928 29.2296 3.05904C29.7615 2.98819 31.2297 2.93398 32.8943 3.70494L33.5477 0.641689C32.6525 0.313858 31.5019 -5.81741e-05 30.0694 -5.81741e-05C26.3952 -5.81741e-05 23.8109 1.9644 23.7901 4.77609ZM39.8256 0.263797C39.1128 0.263797 38.5121 0.681989 38.244 1.32374L32.6677 14.7149H36.5686L37.3448 12.5573H42.1116L42.5619 14.7149H46L42.9998 0.263797H39.8256ZM40.3713 4.16759L41.497 9.59416H38.414L40.3713 4.16759ZM19.0605 0.263977L15.9857 14.7148H19.7029L22.7763 0.263617H19.0605M13.5616 0.263617L9.69252 10.0998L8.12745 1.73651C7.9438 0.802894 7.21859 0.263797 6.41323 0.263797H0.0885859L0 0.683435C1.29842 0.966808 2.77366 1.42386 3.66742 1.91289C4.21439 2.21163 4.37036 2.47277 4.55005 3.18265L7.51435 14.7149H11.4425L17.4649 0.263797H13.5616" fill="url(#paint0_linear_1560_8351)"/>
</g>
<defs>
<linearGradient id="paint0_linear_1560_8351" x1="21.148" y1="15.2396" x2="21.583" y2="-0.103821" gradientUnits="userSpaceOnUse">
<stop stop-color="#222357"/>
<stop offset="1" stop-color="#254AA5"/>
</linearGradient>
<clipPath id="clip0_1560_8351">
<rect width="46" height="15" fill="white"/>
</clipPath>
</defs>
</svg>
