<svg width="14" height="14" viewBox="0 0 14 14" fill="none" xmlns="http://www.w3.org/2000/svg">
<g id="objects/stopwatch">
<path id="Vector" d="M7 7.87695C7.24162 7.87695 7.4375 7.68108 7.4375 7.43945C7.4375 7.19783 7.24162 7.00195 7 7.00195C6.75838 7.00195 6.5625 7.19783 6.5625 7.43945C6.5625 7.68108 6.75838 7.87695 7 7.87695Z" fill="#707B81"/>
<path id="Vector_2" d="M7.65625 2.23096V1.97119C7.65625 1.79714 7.58711 1.63022 7.46404 1.50715C7.34097 1.38408 7.17405 1.31494 7 1.31494C6.82595 1.31494 6.65903 1.38408 6.53596 1.50715C6.41289 1.63022 6.34375 1.79714 6.34375 1.97119V2.23096C5.51503 2.33499 4.72334 2.63627 4.03512 3.10951L3.7461 2.81885C3.62281 2.69556 3.4556 2.6263 3.28125 2.6263C3.1069 2.6263 2.93969 2.69556 2.81641 2.81885C2.69312 2.94213 2.62386 3.10934 2.62386 3.28369C2.62386 3.45804 2.69312 3.62525 2.81641 3.74853L3.05156 3.98369C2.21162 4.93903 1.74886 6.16787 1.75 7.43994C1.75 10.3348 4.10512 12.6899 7 12.6899C9.89488 12.6899 12.25 10.3348 12.25 7.43994C12.25 4.76736 10.2424 2.55471 7.65625 2.23096ZM7 8.75244C6.69045 8.75235 6.3909 8.64286 6.15426 8.44331C5.91762 8.24376 5.75913 7.96699 5.70678 7.6619C5.65443 7.35681 5.7116 7.04304 5.86818 6.77601C6.02477 6.50899 6.27069 6.30591 6.5625 6.20264V4.15869C6.5625 4.04266 6.6086 3.93138 6.69064 3.84933C6.77269 3.76728 6.88397 3.72119 7 3.72119C7.11603 3.72119 7.22731 3.76728 7.30936 3.84933C7.39141 3.93138 7.4375 4.04266 7.4375 4.15869V6.20264C7.72931 6.30591 7.97524 6.50899 8.13182 6.77601C8.2884 7.04304 8.34557 7.35681 8.29322 7.6619C8.24088 7.96699 8.08238 8.24376 7.84574 8.44331C7.6091 8.64286 7.30955 8.75235 7 8.75244Z" fill="#FF0092"/>
</g>
</svg>
