<svg width="20" height="20" viewBox="0 0 20 20" fill="none" xmlns="http://www.w3.org/2000/svg">
<path d="M16.2501 9.58317C16.2501 10.7332 17.1834 11.6665 18.3334 11.6665V12.4998C18.3334 15.8332 17.5001 16.6665 14.1667 16.6665H5.83341C2.50008 16.6665 1.66675 15.8332 1.66675 12.4998V12.0832C2.81675 12.0832 3.75008 11.1498 3.75008 9.99984C3.75008 8.84984 2.81675 7.91651 1.66675 7.91651V7.49984C1.66675 4.16651 2.50008 3.33317 5.83341 3.33317H14.1667C17.5001 3.33317 18.3334 4.16651 18.3334 7.49984C17.1834 7.49984 16.2501 8.43317 16.2501 9.58317Z" stroke="url(#paint0_linear_2312_1243)" stroke-width="1.25" stroke-linecap="round" stroke-linejoin="round"/>
<path d="M7.5 7.7085L12.5 12.7085" stroke="url(#paint1_linear_2312_1243)" stroke-width="1.25" stroke-linecap="round" stroke-linejoin="round"/>
<path d="M12.4953 7.70833H12.5028" stroke="url(#paint2_linear_2312_1243)" stroke-width="1.66667" stroke-linecap="round" stroke-linejoin="round"/>
<path d="M7.49534 12.2918H7.50283" stroke="url(#paint3_linear_2312_1243)" stroke-width="1.66667" stroke-linecap="round" stroke-linejoin="round"/>
<defs>
<linearGradient id="paint0_linear_2312_1243" x1="1.66675" y1="16.6665" x2="14.6048" y2="0.0896757" gradientUnits="userSpaceOnUse">
<stop stop-color="#FF0092"/>
<stop offset="1" stop-color="#216DFD"/>
</linearGradient>
<linearGradient id="paint1_linear_2312_1243" x1="7.5" y1="12.7085" x2="12.5" y2="7.5835" gradientUnits="userSpaceOnUse">
<stop stop-color="#FF0092"/>
<stop offset="1" stop-color="#216DFD"/>
</linearGradient>
<linearGradient id="paint2_linear_2312_1243" x1="12.0833" y1="8.125" x2="12.9166" y2="7.2725" gradientUnits="userSpaceOnUse">
<stop stop-color="#FF0092"/>
<stop offset="1" stop-color="#216DFD"/>
</linearGradient>
<linearGradient id="paint3_linear_2312_1243" x1="7.08325" y1="12.7085" x2="7.91662" y2="11.856" gradientUnits="userSpaceOnUse">
<stop stop-color="#FF0092"/>
<stop offset="1" stop-color="#216DFD"/>
</linearGradient>
</defs>
</svg>
