<svg width="24" height="24" viewBox="0 0 24 24" fill="none" xmlns="http://www.w3.org/2000/svg">
<path d="M13.8496 3.4043L13.85 3.40458L19.6099 7.43448C20.0387 7.73467 20.459 8.23882 20.7726 8.83965C21.0863 9.44047 21.26 10.074 21.26 10.6001V17.3801C21.26 19.5158 19.5258 21.2501 17.39 21.2501H6.60999C4.47631 21.2501 2.73999 19.508 2.73999 17.3701V10.4701C2.73999 9.9834 2.89682 9.38229 3.18285 8.80135C3.46868 8.22083 3.85159 7.72538 4.24126 7.42144L4.24143 7.42131L9.24936 3.51292C9.24969 3.51266 9.25003 3.5124 9.25036 3.51214C10.5006 2.54421 12.5492 2.49318 13.8496 3.4043ZM12 19.5001C12.8242 19.5001 13.5 18.8243 13.5 18.0001V15.0001C13.5 14.1758 12.8242 13.5001 12 13.5001C11.1758 13.5001 10.5 14.1758 10.5 15.0001V18.0001C10.5 18.8243 11.1758 19.5001 12 19.5001Z" stroke="#7390A1" stroke-width="1.5"/>
</svg>
