<svg width="24" height="24" viewBox="0 0 24 24" fill="none" xmlns="http://www.w3.org/2000/svg">
<path d="M19.9532 14.7781C19.9064 14.6094 20.0095 14.375 20.1079 14.2063C20.138 14.156 20.1709 14.1075 20.2064 14.0609C21.0483 12.8098 21.4987 11.3362 21.5001 9.82813C21.5142 5.50625 17.8673 2 13.3579 2C9.4251 2 6.14385 4.67656 5.3751 8.22969C5.26009 8.75632 5.20195 9.29377 5.20166 9.83281C5.20166 14.1594 8.70791 17.7594 13.2173 17.7594C13.9345 17.7594 14.9001 17.5438 15.4298 17.3984C15.9595 17.2531 16.4845 17.0609 16.6204 17.0094C16.7598 16.9568 16.9074 16.9298 17.0564 16.9297C17.2188 16.9291 17.3798 16.9609 17.5298 17.0234L20.1876 17.9656C20.2459 17.9903 20.3075 18.0061 20.3704 18.0125C20.4699 18.0125 20.5653 17.973 20.6356 17.9027C20.7059 17.8323 20.7454 17.737 20.7454 17.6375C20.7421 17.5946 20.7343 17.5522 20.722 17.5109L19.9532 14.7781Z" stroke="#7390A1" stroke-width="1.5" stroke-miterlimit="10" stroke-linecap="round"/>
<path d="M2.86534 10.6268C2.25054 11.7313 1.95314 12.9843 2.006 14.2473C2.05886 15.5102 2.45993 16.734 3.16487 17.7832C3.27315 17.9468 3.33409 18.0734 3.31534 18.1582C3.29659 18.2431 2.75612 21.0584 2.75612 21.0584C2.74312 21.1243 2.74805 21.1924 2.7704 21.2558C2.79274 21.3191 2.83169 21.3753 2.88315 21.4184C2.95183 21.4731 3.03722 21.5026 3.12503 21.5018C3.17195 21.502 3.21839 21.4924 3.26143 21.4737L5.89628 20.4425C6.07762 20.371 6.27992 20.3743 6.45878 20.4518C7.34659 20.7978 8.32815 21.0143 9.31019 21.0143C10.628 21.0157 11.9226 20.6682 13.0625 20.007" stroke="#7390A1" stroke-width="1.5" stroke-miterlimit="10" stroke-linecap="round"/>
</svg>
