<svg width="24" height="24" viewBox="0 0 24 24" fill="none" xmlns="http://www.w3.org/2000/svg">
<g clip-path="url(#clip0_1552_8549)">
<path d="M12.1358 2.2553C6.65237 2.18124 2.17581 6.6578 2.24987 12.1412C2.32299 17.4001 6.60503 21.6822 11.8639 21.7553C17.3483 21.8303 21.8239 17.3537 21.7489 11.8703C21.6767 6.61046 17.3947 2.32843 12.1358 2.2553ZM18.0617 17.5951C18.0431 17.6153 18.0202 17.6312 17.9947 17.6415C17.9692 17.6519 17.9418 17.6565 17.9143 17.6551C17.8869 17.6537 17.86 17.6462 17.8358 17.6333C17.8115 17.6203 17.7904 17.6022 17.7739 17.5801C17.3547 17.0316 16.8412 16.5619 16.2575 16.1931C15.0641 15.4272 13.5519 15.0053 11.9999 15.0053C10.4478 15.0053 8.93565 15.4272 7.74221 16.1931C7.15856 16.5618 6.6451 17.0313 6.22581 17.5797C6.20933 17.6017 6.18822 17.6198 6.16396 17.6328C6.13969 17.6457 6.11288 17.6532 6.08541 17.6546C6.05795 17.6561 6.03051 17.6514 6.00503 17.6411C5.97955 17.6307 5.95667 17.6149 5.93799 17.5947C4.56253 16.1098 3.78338 14.1697 3.74987 12.1459C3.67346 7.58452 7.41643 3.76655 11.9797 3.7553C16.543 3.74405 20.2499 7.44952 20.2499 12.0053C20.2514 14.0778 19.4699 16.0744 18.0617 17.5951Z" fill="#7390A1"/>
<path d="M12 6.75256C11.0756 6.75256 10.2398 7.09897 9.6459 7.7285C9.05199 8.35803 8.75527 9.2285 8.82231 10.1627C8.95824 12.0026 10.3837 13.5026 12 13.5026C13.6162 13.5026 15.0389 12.0026 15.1776 10.1632C15.247 9.23788 14.9526 8.37538 14.3489 7.73413C13.7526 7.10131 12.9182 6.75256 12 6.75256Z" fill="#7390A1"/>
</g>
<defs>
<clipPath id="clip0_1552_8549">
<rect width="24" height="24" fill="white"/>
</clipPath>
</defs>
</svg>
