<svg width="24" height="24" viewBox="0 0 24 24" fill="none" xmlns="http://www.w3.org/2000/svg">
<path d="M12.25 2.5C10.3216 2.5 8.43657 3.07183 6.83319 4.14317C5.22981 5.21451 3.98013 6.73725 3.24218 8.51883C2.50422 10.3004 2.31114 12.2608 2.68735 14.1521C3.06355 16.0434 3.99215 17.7807 5.35571 19.1443C6.71927 20.5078 8.45656 21.4364 10.3479 21.8126C12.2392 22.1888 14.1996 21.9958 15.9812 21.2578C17.7627 20.5199 19.2855 19.2702 20.3568 17.6668C21.4282 16.0634 22 14.1784 22 12.25C22 9.66413 20.9728 7.18419 19.1443 5.35571C17.3158 3.52723 14.8359 2.5 12.25 2.5Z" stroke="#7390A1" stroke-width="1.2" stroke-miterlimit="10"/>
<path d="M11.4886 7.5C10.6998 7.5 9.9286 7.73393 9.27267 8.17221C8.61674 8.61048 8.10551 9.23342 7.80362 9.96225C7.50173 10.6911 7.42274 11.4931 7.57664 12.2668C7.73054 13.0405 8.11043 13.7512 8.66825 14.309C9.22607 14.8668 9.93677 15.2467 10.7105 15.4006C11.4842 15.5545 12.2862 15.4755 13.015 15.1737C13.7438 14.8718 14.3668 14.3605 14.8051 13.7046C15.2433 13.0487 15.4773 12.2775 15.4773 11.4886C15.4773 10.9648 15.3741 10.4462 15.1737 9.96225C14.9732 9.47833 14.6794 9.03862 14.309 8.66824C13.9386 8.29787 13.4989 8.00406 13.015 7.80362C12.5311 7.60317 12.0124 7.5 11.4886 7.5V7.5Z" stroke="#7390A1" stroke-width="1.2" stroke-miterlimit="10"/>
<path d="M14.3495 14.3501L17.2501 17.2507" stroke="#7390A1" stroke-width="1.2" stroke-miterlimit="10" stroke-linecap="round"/>
</svg>
