<svg width="24" height="24" viewBox="0 0 24 24" fill="none" xmlns="http://www.w3.org/2000/svg">
<path d="M14.9999 17.9999V18.7499C14.9999 19.5455 14.6839 20.3086 14.1212 20.8712C13.5586 21.4338 12.7956 21.7499 11.9999 21.7499C11.2043 21.7499 10.4412 21.4338 9.87861 20.8712C9.316 20.3086 8.99993 19.5455 8.99993 18.7499V17.9999M20.0474 16.4732C18.8437 14.9999 17.9938 14.2499 17.9938 10.1882C17.9938 6.46863 16.0945 5.14347 14.5312 4.49988C14.3235 4.41457 14.1281 4.21863 14.0648 4.00535C13.7906 3.07207 13.0218 2.24988 11.9999 2.24988C10.9781 2.24988 10.2088 3.07253 9.93743 4.00628C9.87415 4.22191 9.67868 4.41457 9.47102 4.49988C7.90586 5.14441 6.00836 6.46488 6.00836 10.1882C6.00602 14.2499 5.15618 14.9999 3.95243 16.4732C3.45368 17.0835 3.89055 17.9999 4.7629 17.9999H19.2416C20.1093 17.9999 20.5434 17.0807 20.0474 16.4732Z" stroke="white" stroke-width="1.5" stroke-linecap="round" stroke-linejoin="round"/>
</svg>
