<svg width="36" height="42" viewBox="0 0 36 42" fill="none" xmlns="http://www.w3.org/2000/svg">
<path d="M26 9.6087C26 12.4759 23.0905 16.7551 20.7808 19.7005C19.5758 21.2371 18.9732 22.0055 18 22.0055C17.0268 22.0055 16.4242 21.2371 15.2192 19.7005C12.9095 16.7551 10 12.4759 10 9.6087C10 4.85424 13.5817 1 18 1C22.4183 1 26 4.85424 26 9.6087Z" fill="#025B8F" stroke="#025B8F" stroke-width="1.5"/>
<path d="M15 10C15 11.6569 16.3431 13 18 13C19.6569 13 21 11.6569 21 10C21 8.34315 19.6569 7 18 7C16.3431 7 15 8.34315 15 10Z" fill="#025B8F" stroke="white" stroke-width="1.5"/>
<path d="M1.28791 39V31.7273H5.67711V32.5085H2.16859V34.9659H5.44984V35.7472H2.16859V38.2188H5.73393V39H1.28791ZM7.77583 33.5455L9.08265 35.7756L10.3895 33.5455H11.3554L9.59402 36.2727L11.3554 39H10.3895L9.08265 36.8835L7.77583 39H6.80993L8.54288 36.2727L6.80993 33.5455H7.77583ZM12.5512 41.0455V33.5455H13.3609V34.4119H13.4603C13.5219 34.3172 13.6071 34.1965 13.716 34.0497C13.8273 33.9006 13.9859 33.768 14.1919 33.652C14.4002 33.5336 14.6819 33.4744 15.037 33.4744C15.4963 33.4744 15.9011 33.5893 16.2515 33.8189C16.6019 34.0485 16.8753 34.3741 17.0718 34.7955C17.2683 35.2169 17.3666 35.714 17.3666 36.2869C17.3666 36.8646 17.2683 37.3653 17.0718 37.7891C16.8753 38.2105 16.6031 38.5372 16.2551 38.7692C15.907 38.9988 15.5058 39.1136 15.0512 39.1136C14.7008 39.1136 14.4203 39.0556 14.2096 38.9396C13.9989 38.8213 13.8367 38.6875 13.7231 38.5384C13.6095 38.3868 13.5219 38.2614 13.4603 38.1619H13.3893V41.0455H12.5512ZM13.3751 36.2727C13.3751 36.6847 13.4355 37.0481 13.5562 37.3629C13.6769 37.6754 13.8533 37.9205 14.0853 38.098C14.3173 38.2732 14.6014 38.3608 14.9376 38.3608C15.288 38.3608 15.5803 38.2685 15.8147 38.0838C16.0515 37.8968 16.229 37.6458 16.3474 37.331C16.4681 37.0137 16.5285 36.661 16.5285 36.2727C16.5285 35.8892 16.4693 35.5436 16.3509 35.2358C16.2349 34.9257 16.0586 34.6806 15.8218 34.5007C15.5874 34.3184 15.2927 34.2273 14.9376 34.2273C14.5967 34.2273 14.3102 34.3137 14.0782 34.4865C13.8462 34.657 13.671 34.8961 13.5526 35.2038C13.4343 35.5092 13.3751 35.8655 13.3751 36.2727ZM19.483 31.7273V39H18.645V31.7273H19.483ZM23.2339 39.1136C22.7415 39.1136 22.3095 38.9964 21.9378 38.7621C21.5684 38.5277 21.2796 38.1998 21.0713 37.7784C20.8653 37.357 20.7623 36.8646 20.7623 36.3011C20.7623 35.733 20.8653 35.237 21.0713 34.8132C21.2796 34.3894 21.5684 34.0604 21.9378 33.826C22.3095 33.5916 22.7415 33.4744 23.2339 33.4744C23.7264 33.4744 24.1572 33.5916 24.5265 33.826C24.8982 34.0604 25.1871 34.3894 25.393 34.8132C25.6014 35.237 25.7055 35.733 25.7055 36.3011C25.7055 36.8646 25.6014 37.357 25.393 37.7784C25.1871 38.1998 24.8982 38.5277 24.5265 38.7621C24.1572 38.9964 23.7264 39.1136 23.2339 39.1136ZM23.2339 38.3608C23.608 38.3608 23.9157 38.2649 24.1572 38.0732C24.3987 37.8814 24.5774 37.6293 24.6934 37.3168C24.8095 37.0043 24.8675 36.6657 24.8675 36.3011C24.8675 35.9366 24.8095 35.5968 24.6934 35.282C24.5774 34.9671 24.3987 34.7126 24.1572 34.5185C23.9157 34.3243 23.608 34.2273 23.2339 34.2273C22.8599 34.2273 22.5521 34.3243 22.3106 34.5185C22.0692 34.7126 21.8904 34.9671 21.7744 35.282C21.6584 35.5968 21.6004 35.9366 21.6004 36.3011C21.6004 36.6657 21.6584 37.0043 21.7744 37.3168C21.8904 37.6293 22.0692 37.8814 22.3106 38.0732C22.5521 38.2649 22.8599 38.3608 23.2339 38.3608ZM26.9848 39V33.5455H27.7945V34.3693H27.8513C27.9507 34.0994 28.1307 33.8804 28.3911 33.7124C28.6515 33.5443 28.945 33.4602 29.2718 33.4602C29.3333 33.4602 29.4102 33.4614 29.5026 33.4638C29.5949 33.4661 29.6647 33.4697 29.7121 33.4744V34.3267C29.6837 34.3196 29.6186 34.3089 29.5168 34.2947C29.4173 34.2782 29.312 34.2699 29.2007 34.2699C28.9356 34.2699 28.6988 34.3255 28.4905 34.4368C28.2845 34.5457 28.1212 34.6972 28.0004 34.8913C27.8821 35.0831 27.8229 35.3021 27.8229 35.5483V39H26.9848ZM32.8264 39.1136C32.3009 39.1136 31.8475 38.9976 31.4664 38.7656C31.0876 38.5312 30.7952 38.2045 30.5892 37.7855C30.3856 37.3641 30.2838 36.8741 30.2838 36.3153C30.2838 35.7566 30.3856 35.2642 30.5892 34.8381C30.7952 34.4096 31.0816 34.0758 31.4486 33.8366C31.8179 33.5952 32.2488 33.4744 32.7412 33.4744C33.0253 33.4744 33.3058 33.5218 33.5828 33.6165C33.8598 33.7112 34.1119 33.8651 34.3392 34.0781C34.5665 34.2888 34.7476 34.5682 34.8825 34.9162C35.0175 35.2642 35.085 35.6927 35.085 36.2017V36.5568H30.8804V35.8324H34.2327C34.2327 35.5246 34.1711 35.25 34.048 35.0085C33.9273 34.767 33.7545 34.5765 33.5296 34.4368C33.307 34.2971 33.0442 34.2273 32.7412 34.2273C32.4074 34.2273 32.1186 34.3101 31.8747 34.4759C31.6333 34.6392 31.4474 34.8523 31.3172 35.1151C31.187 35.3778 31.1219 35.6596 31.1219 35.9602V36.4432C31.1219 36.8551 31.1929 37.2043 31.335 37.4908C31.4794 37.7749 31.6794 37.9915 31.9351 38.1406C32.1908 38.2874 32.4879 38.3608 32.8264 38.3608C33.0466 38.3608 33.2455 38.33 33.423 38.2685C33.603 38.2045 33.758 38.1098 33.8882 37.9844C34.0184 37.8565 34.1191 37.6979 34.1901 37.5085L34.9997 37.7358C34.9145 38.0104 34.7713 38.2519 34.57 38.4602C34.3688 38.6662 34.1202 38.8272 33.8243 38.9432C33.5284 39.0568 33.1958 39.1136 32.8264 39.1136Z" fill="#025B8F"/>
</svg>
