<svg width="40" height="42" viewBox="0 0 40 42" fill="none" xmlns="http://www.w3.org/2000/svg">
<path d="M10.3331 17.7423C10.3331 17.7456 10.3331 17.7517 10.3293 17.7602C10.3308 17.7545 10.3317 17.7484 10.3331 17.7423ZM28.1203 18.5125C27.966 18.5092 27.8136 18.4774 27.6708 18.4188L25.0092 17.4752L24.9895 17.4672C24.9315 17.443 24.8691 17.4309 24.8062 17.4316C24.7483 17.4316 24.6908 17.4421 24.6365 17.4625C24.5718 17.4869 23.9892 17.7058 23.3779 17.8736C23.0465 17.9645 21.8929 18.2613 20.9672 18.2613C18.6009 18.2613 16.3884 17.3519 14.7379 15.7005C13.9316 14.8991 13.2923 13.9458 12.8569 12.8957C12.4216 11.8456 12.1988 10.7196 12.2015 9.58282C12.2015 8.9905 12.2653 8.3999 12.3918 7.82125C12.8039 5.91719 13.8951 4.18516 15.4645 2.94625C17.0744 1.68346 19.0617 0.99805 21.1078 1C23.5551 1 25.8356 1.9375 27.5297 3.63344C29.1309 5.23985 30.0084 7.35204 30.0014 9.58047C30 11.2364 29.5056 12.8543 28.5811 14.2281L28.5722 14.2413L28.5375 14.2881C28.5295 14.2989 28.5215 14.3092 28.514 14.32L28.507 14.3327C28.4884 14.3644 28.4715 14.3971 28.4564 14.4306L29.1942 17.0528C29.2268 17.161 29.2445 17.2731 29.2467 17.3861C29.2469 17.5341 29.2179 17.6806 29.1613 17.8174C29.1048 17.9541 29.0218 18.0784 28.9172 18.183C28.8126 18.2876 28.6883 18.3706 28.5516 18.4271C28.4148 18.4837 28.2683 18.5127 28.1203 18.5125Z" fill="#025B8F"/>
<path d="M21.5564 19.4418C21.508 19.3476 21.4399 19.265 21.3566 19.1995C21.2734 19.1339 21.177 19.0871 21.0741 19.0622C20.8032 18.9904 20.4872 19.0026 20.2458 18.9848C17.9664 18.8263 15.8215 17.8481 14.2074 16.2309C12.7724 14.804 11.8398 12.9495 11.55 10.9467C11.4844 10.4901 11.4844 10.3767 11.4844 10.3767C11.4844 10.2244 11.438 10.0757 11.3513 9.95035C11.2647 9.82505 11.142 9.72909 10.9995 9.67525C10.857 9.6214 10.7015 9.61223 10.5536 9.64894C10.4058 9.68565 10.2727 9.76651 10.1719 9.88075C10.1719 9.88075 9.80252 10.2829 9.62815 10.6865C9.13909 11.8133 8.93053 13.0419 9.02033 14.267C9.11014 15.4921 9.49563 16.6771 10.1438 17.7206C10.2656 17.9236 10.2656 18.0173 10.2385 18.2283C10.1105 18.8897 9.88643 20.0564 9.76971 20.6615C9.73107 20.8578 9.74544 21.0608 9.81135 21.2496C9.87727 21.4385 9.99234 21.6063 10.1447 21.7359L10.1663 21.7542C10.3678 21.9143 10.6176 22.0015 10.875 22.0017C11.0198 22.0018 11.1632 21.9733 11.2969 21.9178L13.8052 20.9498C13.8915 20.917 13.9869 20.917 14.0733 20.9498C15.061 21.3173 16.0889 21.5123 17.063 21.5123C18.2767 21.5135 19.4756 21.2468 20.5744 20.7314C20.8303 20.6114 21.2307 20.4811 21.465 20.2101C21.5537 20.105 21.6097 19.9762 21.6259 19.8397C21.6422 19.7031 21.618 19.5648 21.5564 19.4418Z" fill="#025B8F"/>
<path d="M1.0174 31.7273H2.06854L4.54013 37.7642H4.62536L7.09695 31.7273H8.14808V39H7.32422V33.4744H7.2532L4.98047 39H4.18501L1.91229 33.4744H1.84126V39H1.0174V31.7273ZM10.34 41.0455C10.198 41.0455 10.0713 41.0336 9.96005 41.0099C9.84878 40.9886 9.77184 40.9673 9.72923 40.946L9.94229 40.2074C10.1459 40.2595 10.3258 40.2784 10.4821 40.2642C10.6383 40.25 10.7768 40.1802 10.8975 40.0547C11.0207 39.9316 11.1331 39.7315 11.2349 39.4545L11.3912 39.0284L9.37411 33.5455H10.2832L11.7889 37.892H11.8457L13.3514 33.5455H14.2605L11.9451 39.7955C11.841 40.0772 11.7119 40.3104 11.5581 40.495C11.4042 40.6821 11.2254 40.8205 11.0218 40.9105C10.8206 41.0005 10.5933 41.0455 10.34 41.0455ZM24.1451 34H23.2644C23.2123 33.7467 23.1212 33.5241 22.9909 33.3324C22.8631 33.1406 22.7069 32.9796 22.5222 32.8494C22.3399 32.7169 22.1375 32.6174 21.915 32.5511C21.6924 32.4848 21.4604 32.4517 21.2189 32.4517C20.7786 32.4517 20.3797 32.563 20.0222 32.7855C19.6671 33.008 19.3842 33.3359 19.1735 33.7692C18.9651 34.2024 18.861 34.7339 18.861 35.3636C18.861 35.9934 18.9651 36.5249 19.1735 36.9581C19.3842 37.3913 19.6671 37.7192 20.0222 37.9418C20.3797 38.1643 20.7786 38.2756 21.2189 38.2756C21.4604 38.2756 21.6924 38.2424 21.915 38.1761C22.1375 38.1098 22.3399 38.0116 22.5222 37.8814C22.7069 37.7488 22.8631 37.5866 22.9909 37.3949C23.1212 37.2008 23.2123 36.9782 23.2644 36.7273H24.1451C24.0788 37.099 23.958 37.4316 23.7828 37.7251C23.6077 38.0187 23.3899 38.2685 23.1294 38.4744C22.869 38.678 22.5766 38.8331 22.2523 38.9396C21.9303 39.0462 21.5859 39.0994 21.2189 39.0994C20.5987 39.0994 20.0471 38.9479 19.5641 38.6449C19.0811 38.3419 18.7012 37.911 18.4242 37.3523C18.1472 36.7936 18.0087 36.1307 18.0087 35.3636C18.0087 34.5966 18.1472 33.9337 18.4242 33.375C18.7012 32.8163 19.0811 32.3854 19.5641 32.0824C20.0471 31.7794 20.5987 31.6278 21.2189 31.6278C21.5859 31.6278 21.9303 31.6811 22.2523 31.7876C22.5766 31.8942 22.869 32.0504 23.1294 32.2564C23.3899 32.46 23.6077 32.7086 23.7828 33.0021C23.958 33.2933 24.0788 33.6259 24.1451 34ZM26.2926 35.7188V39H25.4545V31.7273H26.2926V34.3977H26.3636C26.4915 34.116 26.6832 33.8923 26.9389 33.7266C27.197 33.5585 27.5402 33.4744 27.9688 33.4744C28.3404 33.4744 28.666 33.549 28.9453 33.6982C29.2247 33.8449 29.4413 34.071 29.5952 34.3764C29.7514 34.6795 29.8295 35.0653 29.8295 35.5341V39H28.9915V35.5909C28.9915 35.1577 28.879 34.8227 28.6541 34.5859C28.4316 34.3468 28.1226 34.2273 27.7273 34.2273C27.4527 34.2273 27.2064 34.2853 26.9886 34.4013C26.7732 34.5173 26.6027 34.6866 26.4773 34.9091C26.3542 35.1316 26.2926 35.4015 26.2926 35.7188ZM32.9679 39.1278C32.6222 39.1278 32.3085 39.0627 32.0268 38.9325C31.7451 38.8 31.5214 38.6094 31.3556 38.3608C31.1899 38.1098 31.1071 37.8068 31.1071 37.4517C31.1071 37.1392 31.1686 36.8859 31.2917 36.6918C31.4148 36.4953 31.5794 36.3414 31.7853 36.2301C31.9913 36.1188 32.2186 36.036 32.4672 35.9815C32.7181 35.9247 32.9702 35.8797 33.2235 35.8466C33.555 35.804 33.8237 35.772 34.0297 35.7507C34.238 35.727 34.3895 35.688 34.4842 35.6335C34.5813 35.5791 34.6298 35.4844 34.6298 35.3494V35.321C34.6298 34.9706 34.5339 34.6984 34.3422 34.5043C34.1528 34.3101 33.8651 34.2131 33.4792 34.2131C33.0791 34.2131 32.7654 34.3007 32.5382 34.4759C32.3109 34.651 32.1511 34.8381 32.0588 35.0369L31.2633 34.7528C31.4054 34.4214 31.5948 34.1634 31.8315 33.9787C32.0706 33.7917 32.331 33.6615 32.6127 33.5881C32.8968 33.5123 33.1762 33.4744 33.4508 33.4744C33.626 33.4744 33.8272 33.4957 34.0545 33.5384C34.2842 33.5786 34.5055 33.6626 34.7186 33.7905C34.934 33.9183 35.1127 34.1113 35.2548 34.3693C35.3968 34.6274 35.4679 34.973 35.4679 35.4062V39H34.6298V38.2614H34.5872C34.5304 38.3797 34.4357 38.5064 34.3031 38.6413C34.1705 38.7763 33.9941 38.8911 33.774 38.9858C33.5538 39.0805 33.2851 39.1278 32.9679 39.1278ZM33.0957 38.375C33.4271 38.375 33.7065 38.3099 33.9338 38.1797C34.1634 38.0495 34.3362 37.8814 34.4522 37.6754C34.5706 37.4695 34.6298 37.2528 34.6298 37.0256V36.2585C34.5943 36.3011 34.5162 36.3402 34.3954 36.3757C34.277 36.4089 34.1397 36.4384 33.9835 36.4645C33.8296 36.4882 33.6793 36.5095 33.5325 36.5284C33.3881 36.545 33.2709 36.5592 33.1809 36.571C32.9631 36.5994 32.7595 36.6456 32.5701 36.7095C32.3831 36.7711 32.2316 36.8646 32.1156 36.9901C32.002 37.1132 31.9451 37.2812 31.9451 37.4943C31.9451 37.7855 32.0529 38.0057 32.2683 38.1548C32.4861 38.3016 32.7619 38.375 33.0957 38.375ZM39.3697 33.5455V34.2557H36.543V33.5455H39.3697ZM37.3668 32.2386H38.2049V37.4375C38.2049 37.6742 38.2392 37.8518 38.3079 37.9702C38.3789 38.0862 38.4689 38.1643 38.5778 38.2045C38.689 38.2424 38.8062 38.2614 38.9293 38.2614C39.0217 38.2614 39.0974 38.2566 39.1566 38.2472C39.2158 38.2353 39.2631 38.2259 39.2987 38.2188L39.4691 38.9716C39.4123 38.9929 39.333 39.0142 39.2312 39.0355C39.1294 39.0592 39.0004 39.071 38.8441 39.071C38.6074 39.071 38.3754 39.0201 38.1481 38.9183C37.9232 38.8165 37.7362 38.6615 37.587 38.4531C37.4402 38.2448 37.3668 37.982 37.3668 37.6648V32.2386Z" fill="#025B8F"/>
</svg>
