<svg width="48" height="42" viewBox="0 0 48 42" fill="none" xmlns="http://www.w3.org/2000/svg">
<path d="M22.75 2C17.3739 2 13 6.37391 13 11.75C13 17.1261 17.3739 21.5 22.75 21.5C28.1261 21.5 32.5 17.1261 32.5 11.75C32.5 6.37391 28.1261 2 22.75 2ZM20.3959 7.47594C20.9898 6.84641 21.8256 6.5 22.75 6.5C23.6744 6.5 24.5027 6.84875 25.0989 7.48156C25.7031 8.12281 25.997 8.98438 25.9277 9.91063C25.7889 11.75 24.3639 13.25 22.75 13.25C21.1361 13.25 19.7083 11.75 19.5723 9.91016C19.5034 8.97641 19.7969 8.11203 20.3959 7.47594ZM22.75 20C21.6487 20.0007 20.5584 19.7803 19.5438 19.3518C18.5293 18.9232 17.6111 18.2953 16.8438 17.5053C17.2832 16.8786 17.8432 16.3457 18.4909 15.9378C19.6858 15.1719 21.198 14.75 22.75 14.75C24.302 14.75 25.8142 15.1719 27.0077 15.9378C27.6559 16.3455 28.2164 16.8784 28.6563 17.5053C27.889 18.2954 26.9708 18.9234 25.9562 19.3519C24.9417 19.7804 23.8514 20.0008 22.75 20Z" fill="#025B8F"/>
<path d="M1.22346 31.7273H2.27459L4.74618 37.7642H4.83141L7.303 31.7273H8.35414V39H7.53027V33.4744H7.45925L5.18652 39H4.39107L2.11834 33.4744H2.04732V39H1.22346V31.7273ZM10.5461 41.0455C10.404 41.0455 10.2774 41.0336 10.1661 41.0099C10.0548 40.9886 9.97789 40.9673 9.93528 40.946L10.1483 40.2074C10.3519 40.2595 10.5319 40.2784 10.6881 40.2642C10.8444 40.25 10.9829 40.1802 11.1036 40.0547C11.2267 39.9316 11.3392 39.7315 11.441 39.4545L11.5972 39.0284L9.58017 33.5455H10.4893L11.9949 37.892H12.0518L13.5574 33.5455H14.4665L12.1512 39.7955C12.047 40.0772 11.918 40.3104 11.7641 40.495C11.6102 40.6821 11.4315 40.8205 11.2279 40.9105C11.0267 41.0005 10.7994 41.0455 10.5461 41.0455ZM18.4988 39V31.7273H20.9562C21.5268 31.7273 21.9932 31.8303 22.3554 32.0362C22.72 32.2398 22.9898 32.5156 23.165 32.8636C23.3402 33.2116 23.4278 33.5999 23.4278 34.0284C23.4278 34.4569 23.3402 34.8464 23.165 35.1967C22.9922 35.5471 22.7247 35.8265 22.3625 36.0348C22.0003 36.2408 21.5363 36.3438 20.9704 36.3438H19.2091V35.5625H20.942C21.3327 35.5625 21.6463 35.495 21.8831 35.3601C22.1198 35.2251 22.2915 35.0429 22.398 34.8132C22.5069 34.5812 22.5613 34.3196 22.5613 34.0284C22.5613 33.7372 22.5069 33.4768 22.398 33.2472C22.2915 33.0175 22.1186 32.8376 21.8795 32.7074C21.6404 32.5748 21.3232 32.5085 20.9278 32.5085H19.3795V39H18.4988ZM24.7329 39V33.5455H25.5425V34.3693H25.5993C25.6988 34.0994 25.8787 33.8804 26.1391 33.7124C26.3995 33.5443 26.6931 33.4602 27.0198 33.4602C27.0814 33.4602 27.1583 33.4614 27.2506 33.4638C27.343 33.4661 27.4128 33.4697 27.4601 33.4744V34.3267C27.4317 34.3196 27.3666 34.3089 27.2648 34.2947C27.1654 34.2782 27.06 34.2699 26.9488 34.2699C26.6836 34.2699 26.4469 34.3255 26.2385 34.4368C26.0326 34.5457 25.8692 34.6972 25.7485 34.8913C25.6301 35.0831 25.5709 35.3021 25.5709 35.5483V39H24.7329ZM30.5035 39.1136C30.011 39.1136 29.579 38.9964 29.2073 38.7621C28.838 38.5277 28.5492 38.1998 28.3408 37.7784C28.1349 37.357 28.0319 36.8646 28.0319 36.3011C28.0319 35.733 28.1349 35.237 28.3408 34.8132C28.5492 34.3894 28.838 34.0604 29.2073 33.826C29.579 33.5916 30.011 33.4744 30.5035 33.4744C30.9959 33.4744 31.4268 33.5916 31.7961 33.826C32.1678 34.0604 32.4566 34.3894 32.6626 34.8132C32.8709 35.237 32.9751 35.733 32.9751 36.3011C32.9751 36.8646 32.8709 37.357 32.6626 37.7784C32.4566 38.1998 32.1678 38.5277 31.7961 38.7621C31.4268 38.9964 30.9959 39.1136 30.5035 39.1136ZM30.5035 38.3608C30.8775 38.3608 31.1853 38.2649 31.4268 38.0732C31.6682 37.8814 31.847 37.6293 31.963 37.3168C32.079 37.0043 32.137 36.6657 32.137 36.3011C32.137 35.9366 32.079 35.5968 31.963 35.282C31.847 34.9671 31.6682 34.7126 31.4268 34.5185C31.1853 34.3243 30.8775 34.2273 30.5035 34.2273C30.1294 34.2273 29.8216 34.3243 29.5802 34.5185C29.3387 34.7126 29.1599 34.9671 29.0439 35.282C28.9279 35.5968 28.8699 35.9366 28.8699 36.3011C28.8699 36.6657 28.9279 37.0043 29.0439 37.3168C29.1599 37.6293 29.3387 37.8814 29.5802 38.0732C29.8216 38.2649 30.1294 38.3608 30.5035 38.3608ZM36.6833 33.5455V34.2557H33.743V33.5455H36.6833ZM34.6237 39V32.7926C34.6237 32.4801 34.6971 32.2197 34.8438 32.0114C34.9906 31.803 35.1812 31.6468 35.4156 31.5426C35.6499 31.4384 35.8973 31.3864 36.1578 31.3864C36.3637 31.3864 36.5318 31.4029 36.662 31.4361C36.7922 31.4692 36.8893 31.5 36.9532 31.5284L36.7117 32.2528C36.6691 32.2386 36.6099 32.2209 36.5342 32.1996C36.4608 32.1783 36.3637 32.1676 36.243 32.1676C35.966 32.1676 35.766 32.2375 35.6428 32.3771C35.5221 32.5168 35.4617 32.7216 35.4617 32.9915V39H34.6237ZM37.8579 39V33.5455H38.6959V39H37.8579ZM38.284 32.6364C38.1206 32.6364 37.9798 32.5807 37.8614 32.4695C37.7454 32.3582 37.6874 32.2244 37.6874 32.0682C37.6874 31.9119 37.7454 31.7782 37.8614 31.6669C37.9798 31.5556 38.1206 31.5 38.284 31.5C38.4474 31.5 38.587 31.5556 38.703 31.6669C38.8214 31.7782 38.8806 31.9119 38.8806 32.0682C38.8806 32.2244 38.8214 32.3582 38.703 32.4695C38.587 32.5807 38.4474 32.6364 38.284 32.6364ZM41.069 31.7273V39H40.2309V31.7273H41.069ZM44.8909 39.1136C44.3653 39.1136 43.912 38.9976 43.5308 38.7656C43.152 38.5312 42.8596 38.2045 42.6537 37.7855C42.4501 37.3641 42.3483 36.8741 42.3483 36.3153C42.3483 35.7566 42.4501 35.2642 42.6537 34.8381C42.8596 34.4096 43.1461 34.0758 43.5131 33.8366C43.8824 33.5952 44.3132 33.4744 44.8057 33.4744C45.0898 33.4744 45.3703 33.5218 45.6473 33.6165C45.9243 33.7112 46.1764 33.8651 46.4037 34.0781C46.6309 34.2888 46.8121 34.5682 46.947 34.9162C47.0819 35.2642 47.1494 35.6927 47.1494 36.2017V36.5568H42.9449V35.8324H46.2971C46.2971 35.5246 46.2356 35.25 46.1125 35.0085C45.9917 34.767 45.8189 34.5765 45.594 34.4368C45.3715 34.2971 45.1087 34.2273 44.8057 34.2273C44.4719 34.2273 44.183 34.3101 43.9392 34.4759C43.6977 34.6392 43.5119 34.8523 43.3817 35.1151C43.2515 35.3778 43.1863 35.6596 43.1863 35.9602V36.4432C43.1863 36.8551 43.2574 37.2043 43.3994 37.4908C43.5438 37.7749 43.7439 37.9915 43.9996 38.1406C44.2552 38.2874 44.5523 38.3608 44.8909 38.3608C45.1111 38.3608 45.3099 38.33 45.4875 38.2685C45.6674 38.2045 45.8225 38.1098 45.9527 37.9844C46.0829 37.8565 46.1835 37.6979 46.2545 37.5085L47.0642 37.7358C46.979 38.0104 46.8357 38.2519 46.6345 38.4602C46.4333 38.6662 46.1847 38.8272 45.8888 38.9432C45.5928 39.0568 45.2602 39.1136 44.8909 39.1136Z" fill="#025B8F"/>
</svg>
