<svg width="33" height="42" viewBox="0 0 33 42" fill="none" xmlns="http://www.w3.org/2000/svg">
<path d="M15.75 2C13.8216 2 11.9366 2.57183 10.3332 3.64317C8.72981 4.71451 7.48013 6.23725 6.74218 8.01883C6.00422 9.80041 5.81114 11.7608 6.18735 13.6521C6.56355 15.5434 7.49215 17.2807 8.85571 18.6443C10.2193 20.0078 11.9566 20.9364 13.8479 21.3126C15.7392 21.6888 17.6996 21.4958 19.4812 20.7578C21.2627 20.0199 22.7855 18.7702 23.8568 17.1668C24.9282 15.5634 25.5 13.6784 25.5 11.75C25.5 9.16413 24.4728 6.68419 22.6443 4.85571C20.8158 3.02723 18.3359 2 15.75 2Z" fill="#025B8F" stroke="#025B8F" stroke-width="1.2" stroke-miterlimit="10"/>
<path d="M14.9886 7C14.1998 7 13.4286 7.23393 12.7727 7.67221C12.1167 8.11048 11.6055 8.73342 11.3036 9.46225C11.0017 10.1911 10.9227 10.9931 11.0766 11.7668C11.2305 12.5405 11.6104 13.2512 12.1682 13.809C12.7261 14.3668 13.4368 14.7467 14.2105 14.9006C14.9842 15.0545 15.7862 14.9755 16.515 14.6737C17.2438 14.3718 17.8668 13.8605 18.3051 13.2046C18.7433 12.5487 18.9773 11.7775 18.9773 10.9886C18.9773 10.4648 18.8741 9.94617 18.6737 9.46225C18.4732 8.97833 18.1794 8.53862 17.809 8.16824C17.4386 7.79787 16.9989 7.50406 16.515 7.30362C16.0311 7.10317 15.5124 7 14.9886 7V7Z" stroke="white" stroke-width="1.2" stroke-miterlimit="10"/>
<path d="M17.8496 13.8501L20.7502 16.7507" stroke="white" stroke-width="1.2" stroke-miterlimit="10" stroke-linecap="round"/>
<path d="M4.91752 33.5455C4.87491 33.1856 4.70209 32.9062 4.39906 32.7074C4.09603 32.5085 3.72434 32.4091 3.284 32.4091C2.96203 32.4091 2.68031 32.4612 2.43883 32.5653C2.19972 32.6695 2.0127 32.8127 1.87775 32.995C1.74518 33.1773 1.67889 33.3845 1.67889 33.6165C1.67889 33.8106 1.72505 33.9775 1.81738 34.1172C1.91208 34.2545 2.03282 34.3693 2.1796 34.4616C2.32638 34.5516 2.48026 34.6262 2.64125 34.6854C2.80223 34.7422 2.9502 34.7884 3.08514 34.8239L3.82377 35.0227C4.01317 35.0724 4.22387 35.1411 4.45588 35.2287C4.69025 35.3163 4.91397 35.4358 5.12704 35.5874C5.34248 35.7365 5.52003 35.9283 5.65971 36.1626C5.79939 36.397 5.86923 36.6847 5.86923 37.0256C5.86923 37.4186 5.76625 37.7737 5.56028 38.0909C5.35668 38.4081 5.05839 38.6603 4.66539 38.8473C4.27477 39.0343 3.8001 39.1278 3.24139 39.1278C2.72056 39.1278 2.26956 39.0438 1.88841 38.8757C1.50962 38.7076 1.21132 38.4732 0.993519 38.1726C0.778084 37.8719 0.656161 37.5227 0.627752 37.125H1.53684C1.56052 37.3996 1.65285 37.6269 1.81383 37.8068C1.97718 37.9844 2.18315 38.117 2.43173 38.2045C2.68268 38.2898 2.95256 38.3324 3.24139 38.3324C3.57756 38.3324 3.87941 38.2779 4.14693 38.169C4.41445 38.0578 4.62633 37.9039 4.78258 37.7074C4.93883 37.5085 5.01696 37.2765 5.01696 37.0114C5.01696 36.7699 4.94949 36.5734 4.81454 36.4219C4.6796 36.2704 4.50204 36.1473 4.28187 36.0526C4.0617 35.9579 3.82377 35.875 3.56809 35.804L2.67321 35.5483C2.10502 35.3849 1.65521 35.1518 1.32377 34.8487C0.992335 34.5457 0.826616 34.1491 0.826616 33.6591C0.826616 33.2519 0.936701 32.8968 1.15687 32.5938C1.37941 32.2884 1.6777 32.0516 2.05176 31.8835C2.42818 31.7131 2.8484 31.6278 3.31241 31.6278C3.78116 31.6278 4.19783 31.7119 4.56241 31.88C4.92699 32.0457 5.21582 32.273 5.42889 32.5618C5.64432 32.8506 5.75796 33.1785 5.7698 33.5455H4.91752ZM9.4905 39.1136C8.96493 39.1136 8.51157 38.9976 8.13042 38.7656C7.75163 38.5312 7.45925 38.2045 7.25328 37.7855C7.04969 37.3641 6.94789 36.8741 6.94789 36.3153C6.94789 35.7566 7.04969 35.2642 7.25328 34.8381C7.45925 34.4096 7.74571 34.0758 8.11266 33.8366C8.48198 33.5952 8.91285 33.4744 9.40527 33.4744C9.68936 33.4744 9.9699 33.5218 10.2469 33.6165C10.5239 33.7112 10.776 33.8651 11.0033 34.0781C11.2306 34.2888 11.4117 34.5682 11.5466 34.9162C11.6816 35.2642 11.749 35.6927 11.749 36.2017V36.5568H7.54448V35.8324H10.8968C10.8968 35.5246 10.8352 35.25 10.7121 35.0085C10.5914 34.767 10.4185 34.5765 10.1936 34.4368C9.97109 34.2971 9.7083 34.2273 9.40527 34.2273C9.07147 34.2273 8.78264 34.3101 8.5388 34.4759C8.29732 34.6392 8.11148 34.8523 7.98127 35.1151C7.85106 35.3778 7.78596 35.6596 7.78596 35.9602V36.4432C7.78596 36.8551 7.85698 37.2043 7.99902 37.4908C8.14344 37.7749 8.34348 37.9915 8.59917 38.1406C8.85485 38.2874 9.15196 38.3608 9.4905 38.3608C9.71067 38.3608 9.90953 38.33 10.0871 38.2685C10.267 38.2045 10.4221 38.1098 10.5523 37.9844C10.6825 37.8565 10.7831 37.6979 10.8541 37.5085L11.6638 37.7358C11.5786 38.0104 11.4353 38.2519 11.2341 38.4602C11.0329 38.6662 10.7843 38.8272 10.4884 38.9432C10.1924 39.0568 9.85982 39.1136 9.4905 39.1136ZM14.629 39.1278C14.2834 39.1278 13.9697 39.0627 13.6879 38.9325C13.4062 38.8 13.1825 38.6094 13.0168 38.3608C12.8511 38.1098 12.7682 37.8068 12.7682 37.4517C12.7682 37.1392 12.8298 36.8859 12.9529 36.6918C13.076 36.4953 13.2405 36.3414 13.4465 36.2301C13.6524 36.1188 13.8797 36.036 14.1283 35.9815C14.3792 35.9247 14.6314 35.8797 14.8847 35.8466C15.2161 35.804 15.4848 35.772 15.6908 35.7507C15.8991 35.727 16.0506 35.688 16.1453 35.6335C16.2424 35.5791 16.2909 35.4844 16.2909 35.3494V35.321C16.2909 34.9706 16.195 34.6984 16.0033 34.5043C15.8139 34.3101 15.5262 34.2131 15.1404 34.2131C14.7403 34.2131 14.4266 34.3007 14.1993 34.4759C13.972 34.651 13.8122 34.8381 13.7199 35.0369L12.9244 34.7528C13.0665 34.4214 13.2559 34.1634 13.4926 33.9787C13.7317 33.7917 13.9922 33.6615 14.2739 33.5881C14.558 33.5123 14.8373 33.4744 15.1119 33.4744C15.2871 33.4744 15.4884 33.4957 15.7156 33.5384C15.9453 33.5786 16.1666 33.6626 16.3797 33.7905C16.5951 33.9183 16.7739 34.1113 16.9159 34.3693C17.058 34.6274 17.129 34.973 17.129 35.4062V39H16.2909V38.2614H16.2483C16.1915 38.3797 16.0968 38.5064 15.9642 38.6413C15.8316 38.7763 15.6553 38.8911 15.4351 38.9858C15.2149 39.0805 14.9462 39.1278 14.629 39.1278ZM14.7568 38.375C15.0883 38.375 15.3676 38.3099 15.5949 38.1797C15.8245 38.0495 15.9974 37.8814 16.1134 37.6754C16.2317 37.4695 16.2909 37.2528 16.2909 37.0256V36.2585C16.2554 36.3011 16.1773 36.3402 16.0566 36.3757C15.9382 36.4089 15.8009 36.4384 15.6446 36.4645C15.4907 36.4882 15.3404 36.5095 15.1936 36.5284C15.0492 36.545 14.932 36.5592 14.8421 36.571C14.6243 36.5994 14.4207 36.6456 14.2313 36.7095C14.0442 36.7711 13.8927 36.8646 13.7767 36.9901C13.6631 37.1132 13.6063 37.2812 13.6063 37.4943C13.6063 37.7855 13.714 38.0057 13.9294 38.1548C14.1472 38.3016 14.423 38.375 14.7568 38.375ZM18.6586 39V33.5455H19.4683V34.3693H19.5251C19.6246 34.0994 19.8045 33.8804 20.0649 33.7124C20.3253 33.5443 20.6189 33.4602 20.9456 33.4602C21.0071 33.4602 21.0841 33.4614 21.1764 33.4638C21.2687 33.4661 21.3386 33.4697 21.3859 33.4744V34.3267C21.3575 34.3196 21.2924 34.3089 21.1906 34.2947C21.0912 34.2782 20.9858 34.2699 20.8746 34.2699C20.6094 34.2699 20.3727 34.3255 20.1643 34.4368C19.9584 34.5457 19.795 34.6972 19.6743 34.8913C19.5559 35.0831 19.4967 35.3021 19.4967 35.5483V39H18.6586ZM24.4292 39.1136C23.9179 39.1136 23.4775 38.9929 23.1082 38.7514C22.7389 38.5099 22.4548 38.1773 22.2559 37.7536C22.0571 37.3298 21.9577 36.8456 21.9577 36.3011C21.9577 35.7472 22.0595 35.2583 22.2631 34.8345C22.469 34.4084 22.7555 34.0758 23.1224 33.8366C23.4917 33.5952 23.9226 33.4744 24.415 33.4744C24.7986 33.4744 25.1442 33.5455 25.452 33.6875C25.7597 33.8295 26.0119 34.0284 26.2084 34.2841C26.4049 34.5398 26.5268 34.8381 26.5741 35.179H25.7361C25.6721 34.9304 25.5301 34.7102 25.3099 34.5185C25.0921 34.3243 24.7986 34.2273 24.4292 34.2273C24.1025 34.2273 23.8161 34.3125 23.5699 34.483C23.326 34.651 23.1354 34.889 22.9981 35.1967C22.8632 35.5021 22.7957 35.8608 22.7957 36.2727C22.7957 36.6941 22.862 37.0611 22.9946 37.3736C23.1295 37.6861 23.3189 37.9287 23.5628 38.1016C23.809 38.2744 24.0978 38.3608 24.4292 38.3608C24.647 38.3608 24.8447 38.3229 25.0223 38.2472C25.1998 38.1714 25.3502 38.0625 25.4733 37.9205C25.5964 37.7784 25.684 37.608 25.7361 37.4091H26.5741C26.5268 37.7311 26.4096 38.0211 26.2226 38.2791C26.0379 38.5348 25.7929 38.7384 25.4875 38.8899C25.1845 39.0391 24.8317 39.1136 24.4292 39.1136ZM28.6373 35.7188V39H27.7993V31.7273H28.6373V34.3977H28.7084C28.8362 34.116 29.028 33.8923 29.2836 33.7266C29.5417 33.5585 29.885 33.4744 30.3135 33.4744C30.6852 33.4744 31.0107 33.549 31.29 33.6982C31.5694 33.8449 31.786 34.071 31.9399 34.3764C32.0961 34.6795 32.1743 35.0653 32.1743 35.5341V39H31.3362V35.5909C31.3362 35.1577 31.2238 34.8227 30.9988 34.5859C30.7763 34.3468 30.4674 34.2273 30.072 34.2273C29.7974 34.2273 29.5512 34.2853 29.3334 34.4013C29.1179 34.5173 28.9475 34.6866 28.822 34.9091C28.6989 35.1316 28.6373 35.4015 28.6373 35.7188Z" fill="#025B8F"/>
</svg>
